<svg version="1.1" viewBox="0.0 0.0 546.0 337.0" fill="none" stroke="none" stroke-linecap="square" stroke-miterlimit="10" width="546" height="337" xmlns:xlink="http://www.w3.org/1999/xlink" xmlns="http://www.w3.org/2000/svg"><path fill="#ffffff" d="M0 0L546.0 0L546.0 337.0L0 337.0L0 0Z" fill-rule="nonzero"/><path stroke="#cccccc" stroke-width="1.0" stroke-linecap="butt" d="M86.5 266.5L529.5 266.5" fill-rule="nonzero"/><path stroke="#cccccc" stroke-width="1.0" stroke-linecap="butt" d="M86.5 197.5L529.5 197.5" fill-rule="nonzero"/><path stroke="#cccccc" stroke-width="1.0" stroke-linecap="butt" d="M86.5 128.5L529.5 128.5" fill-rule="nonzero"/><path stroke="#cccccc" stroke-width="1.0" stroke-linecap="butt" d="M86.5 59.5L529.5 59.5" fill-rule="nonzero"/><clipPath id="id_0"><path d="M86.85 59.583332L529.15 59.583332L529.15 266.15L86.85 266.15L86.85 59.583332Z" clip-rule="nonzero"/></clipPath><path stroke="#000000" stroke-width="0.0" stroke-linecap="butt" stroke-opacity="0.0" clip-path="url(#id_0)" d="M120.0 266.0L98.0 266.0L98.0 74.0C98.0 72.89543 98.89543 72.0 100.0 72.0L118.0 72.0C119.10457 72.0 120.0 72.89543 120.0 74.0Z" fill-rule="nonzero"/><path fill="#4285f4" clip-path="url(#id_0)" d="M120.0 266.0L98.0 266.0L98.0 74.0C98.0 72.89543 98.89543 72.0 100.0 72.0L118.0 72.0C119.10457 72.0 120.0 72.89543 120.0 74.0Z" fill-rule="nonzero"/><path stroke="#000000" stroke-width="0.0" stroke-linecap="butt" stroke-opacity="0.0" clip-path="url(#id_0)" d="M153.0 266.0L131.0 266.0L131.0 216.0C131.0 214.89543 131.89543 214.0 133.0 214.0L151.0 214.0C152.10457 214.0 153.0 214.89543 153.0 216.0Z" fill-rule="nonzero"/><path fill="#4285f4" clip-path="url(#id_0)" d="M153.0 266.0L131.0 266.0L131.0 216.0C131.0 214.89543 131.89543 214.0 133.0 214.0L151.0 214.0C152.10457 214.0 153.0 214.89543 153.0 216.0Z" fill-rule="nonzero"/><path stroke="#000000" stroke-width="0.0" stroke-linecap="butt" stroke-opacity="0.0" clip-path="url(#id_0)" d="M186.0 266.0L164.0 266.0L164.0 157.0C164.0 155.89543 164.89543 155.0 166.0 155.0L184.0 155.0C185.10457 155.0 186.0 155.89543 186.0 157.0Z" fill-rule="nonzero"/><path fill="#4285f4" clip-path="url(#id_0)" d="M186.0 266.0L164.0 266.0L164.0 157.0C164.0 155.89543 164.89543 155.0 166.0 155.0L184.0 155.0C185.10457 155.0 186.0 155.89543 186.0 157.0Z" fill-rule="nonzero"/><path stroke="#000000" stroke-width="0.0" stroke-linecap="butt" stroke-opacity="0.0" clip-path="url(#id_0)" d="M220.0 266.0L198.0 266.0L198.0 176.0C198.0 174.89543 198.89543 174.0 200.0 174.0L218.0 174.0C219.10457 174.0 220.0 174.89543 220.0 176.0Z" fill-rule="nonzero"/><path fill="#4285f4" clip-path="url(#id_0)" d="M220.0 266.0L198.0 266.0L198.0 176.0C198.0 174.89543 198.89543 174.0 200.0 174.0L218.0 174.0C219.10457 174.0 220.0 174.89543 220.0 176.0Z" fill-rule="nonzero"/><path stroke="#000000" stroke-width="0.0" stroke-linecap="butt" stroke-opacity="0.0" clip-path="url(#id_0)" d="M253.0 266.0L231.0 266.0L231.0 118.0C231.0 116.89543 231.89543 116.0 233.0 116.0L251.0 116.0C252.10457 116.0 253.0 116.89543 253.0 118.0Z" fill-rule="nonzero"/><path fill="#4285f4" clip-path="url(#id_0)" d="M253.0 266.0L231.0 266.0L231.0 118.0C231.0 116.89543 231.89543 116.0 233.0 116.0L251.0 116.0C252.10457 116.0 253.0 116.89543 253.0 118.0Z" fill-rule="nonzero"/><path stroke="#000000" stroke-width="0.0" stroke-linecap="butt" stroke-opacity="0.0" clip-path="url(#id_0)" d="M286.0 266.0L264.0 266.0L264.0 225.0C264.0 223.89543 264.89542 223.0 266.0 223.0L284.0 223.0C285.10458 223.0 286.0 223.89543 286.0 225.0Z" fill-rule="nonzero"/><path fill="#4285f4" clip-path="url(#id_0)" d="M286.0 266.0L264.0 266.0L264.0 225.0C264.0 223.89543 264.89542 223.0 266.0 223.0L284.0 223.0C285.10458 223.0 286.0 223.89543 286.0 225.0Z" fill-rule="nonzero"/><path stroke="#000000" stroke-width="0.0" stroke-linecap="butt" stroke-opacity="0.0" clip-path="url(#id_0)" d="M319.0 266.0L297.0 266.0L297.0 191.0C297.0 189.89543 297.89542 189.0 299.0 189.0L317.0 189.0C318.10458 189.0 319.0 189.89543 319.0 191.0Z" fill-rule="nonzero"/><path fill="#4285f4" clip-path="url(#id_0)" d="M319.0 266.0L297.0 266.0L297.0 191.0C297.0 189.89543 297.89542 189.0 299.0 189.0L317.0 189.0C318.10458 189.0 319.0 189.89543 319.0 191.0Z" fill-rule="nonzero"/><path stroke="#000000" stroke-width="0.0" stroke-linecap="butt" stroke-opacity="0.0" clip-path="url(#id_0)" d="M352.0 266.0L330.0 266.0L330.0 178.0C330.0 176.89543 330.89542 176.0 332.0 176.0L350.0 176.0C351.10458 176.0 352.0 176.89543 352.0 178.0Z" fill-rule="nonzero"/><path fill="#4285f4" clip-path="url(#id_0)" d="M352.0 266.0L330.0 266.0L330.0 178.0C330.0 176.89543 330.89542 176.0 332.0 176.0L350.0 176.0C351.10458 176.0 352.0 176.89543 352.0 178.0Z" fill-rule="nonzero"/><path stroke="#000000" stroke-width="0.0" stroke-linecap="butt" stroke-opacity="0.0" clip-path="url(#id_0)" d="M385.0 266.0L363.0 266.0L363.0 229.0C363.0 227.89543 363.89542 227.0 365.0 227.0L383.0 227.0C384.10458 227.0 385.0 227.89543 385.0 229.0Z" fill-rule="nonzero"/><path fill="#4285f4" clip-path="url(#id_0)" d="M385.0 266.0L363.0 266.0L363.0 229.0C363.0 227.89543 363.89542 227.0 365.0 227.0L383.0 227.0C384.10458 227.0 385.0 227.89543 385.0 229.0Z" fill-rule="nonzero"/><path stroke="#000000" stroke-width="0.0" stroke-linecap="butt" stroke-opacity="0.0" clip-path="url(#id_0)" d="M418.0 266.0L396.0 266.0L396.0 230.0C396.0 228.89543 396.89542 228.0 398.0 228.0L416.0 228.0C417.10458 228.0 418.0 228.89543 418.0 230.0Z" fill-rule="nonzero"/><path fill="#4285f4" clip-path="url(#id_0)" d="M418.0 266.0L396.0 266.0L396.0 230.0C396.0 228.89543 396.89542 228.0 398.0 228.0L416.0 228.0C417.10458 228.0 418.0 228.89543 418.0 230.0Z" fill-rule="nonzero"/><path stroke="#000000" stroke-width="0.0" stroke-linecap="butt" stroke-opacity="0.0" clip-path="url(#id_0)" d="M452.0 266.0L430.0 266.0L430.0 205.0C430.0 203.89543 430.89542 203.0 432.0 203.0L450.0 203.0C451.10458 203.0 452.0 203.89543 452.0 205.0Z" fill-rule="nonzero"/><path fill="#4285f4" clip-path="url(#id_0)" d="M452.0 266.0L430.0 266.0L430.0 205.0C430.0 203.89543 430.89542 203.0 432.0 203.0L450.0 203.0C451.10458 203.0 452.0 203.89543 452.0 205.0Z" fill-rule="nonzero"/><path stroke="#000000" stroke-width="0.0" stroke-linecap="butt" stroke-opacity="0.0" clip-path="url(#id_0)" d="M485.0 266.0L463.0 266.0L463.0 237.0C463.0 235.89543 463.89542 235.0 465.0 235.0L483.0 235.0C484.10458 235.0 485.0 235.89543 485.0 237.0Z" fill-rule="nonzero"/><path fill="#4285f4" clip-path="url(#id_0)" d="M485.0 266.0L463.0 266.0L463.0 237.0C463.0 235.89543 463.89542 235.0 465.0 235.0L483.0 235.0C484.10458 235.0 485.0 235.89543 485.0 237.0Z" fill-rule="nonzero"/><path stroke="#000000" stroke-width="0.0" stroke-linecap="butt" stroke-opacity="0.0" clip-path="url(#id_0)" d="M518.0 266.0L496.0 266.0L496.0 240.0C496.0 238.89543 496.89542 238.0 498.0 238.0L516.0 238.0C517.10455 238.0 518.0 238.89543 518.0 240.0Z" fill-rule="nonzero"/><path fill="#4285f4" clip-path="url(#id_0)" d="M518.0 266.0L496.0 266.0L496.0 240.0C496.0 238.89543 496.89542 238.0 498.0 238.0L516.0 238.0C517.10455 238.0 518.0 238.89543 518.0 240.0Z" fill-rule="nonzero"/><path fill="#424242" d="M238.26562 314.44687Q238.10938 315.79062 237.26562 316.54062Q236.42188 317.275 235.03125 317.275Q233.51562 317.275 232.60938 316.19687Q231.70312 315.10312 231.70312 313.275L231.70312 312.4625Q231.70312 311.275 232.125 310.36874Q232.54688 309.4625 233.32812 308.97812Q234.10938 308.49374 235.125 308.49374Q236.48438 308.49374 237.29688 309.25937Q238.125 310.025 238.26562 311.35312L237.14062 311.35312Q236.98438 310.3375 236.5 309.88437Q236.01562 309.43124 235.125 309.43124Q234.04688 309.43124 233.4375 310.22812Q232.82812 311.025 232.82812 312.49374L232.82812 313.32187Q232.82812 314.7125 233.40625 315.54062Q233.98438 316.35312 235.03125 316.35312Q235.96875 316.35312 236.46875 315.93124Q236.96875 315.49374 237.14062 314.44687L238.26562 314.44687ZM239.53125 313.91562Q239.53125 312.99374 239.89062 312.24374Q240.26562 311.49374 240.92188 311.10312Q241.57812 310.69687 242.40625 310.69687Q243.70312 310.69687 244.5 311.5875Q245.3125 312.47812 245.3125 313.97812L245.3125 314.05624Q245.3125 314.97812 244.95312 315.7125Q244.59375 316.44687 243.9375 316.86874Q243.28125 317.275 242.42188 317.275Q241.14062 317.275 240.32812 316.38437Q239.53125 315.47812 239.53125 313.99374L239.53125 313.91562ZM240.625 314.05624Q240.625 315.10312 241.10938 315.74374Q241.60938 316.38437 242.42188 316.38437Q243.25 316.38437 243.73438 315.74374Q244.21875 315.0875 244.21875 313.91562Q244.21875 312.88437 243.71875 312.24374Q243.23438 311.5875 242.40625 311.5875Q241.60938 311.5875 241.10938 312.22812Q240.625 312.85312 240.625 314.05624ZM247.84375 310.80624L247.875 311.60312Q248.60938 310.69687 249.78125 310.69687Q251.79688 310.69687 251.8125 312.9625L251.8125 317.15L250.71875 317.15L250.71875 312.94687Q250.71875 312.275 250.40625 311.94687Q250.10938 311.61874 249.45312 311.61874Q248.92188 311.61874 248.51562 311.9Q248.125 312.18124 247.90625 312.63437L247.90625 317.15L246.82812 317.15L246.82812 310.80624L247.84375 310.80624ZM253.5625 313.93124Q253.5625 312.4625 254.25 311.5875Q254.9375 310.69687 256.0625 310.69687Q257.17188 310.69687 257.82812 311.44687L257.82812 308.15L258.90625 308.15L258.90625 317.15L257.90625 317.15L257.85938 316.4625Q257.20312 317.275 256.04688 317.275Q254.95312 317.275 254.25 316.36874Q253.5625 315.4625 253.5625 314.00937L253.5625 313.93124ZM254.64062 314.05624Q254.64062 315.13437 255.07812 315.74374Q255.53125 316.35312 256.3125 316.35312Q257.34375 316.35312 257.82812 315.41562L257.82812 312.50937Q257.34375 311.61874 256.32812 311.61874Q255.53125 311.61874 255.07812 312.22812Q254.64062 312.8375 254.64062 314.05624ZM262.0 317.15L260.92188 317.15L260.92188 310.80624L262.0 310.80624L262.0 317.15ZM260.82812 309.13437Q260.82812 308.86874 260.98438 308.68124Q261.15625 308.49374 261.46875 308.49374Q261.78125 308.49374 261.9375 308.68124Q262.10938 308.86874 262.10938 309.13437Q262.10938 309.38437 261.9375 309.57187Q261.78125 309.74374 261.46875 309.74374Q261.15625 309.74374 260.98438 309.57187Q260.82812 309.38437 260.82812 309.13437ZM265.29688 309.275L265.29688 310.80624L266.46875 310.80624L266.46875 311.65L265.29688 311.65L265.29688 315.57187Q265.29688 315.9625 265.45312 316.15Q265.60938 316.3375 265.98438 316.3375Q266.17188 316.3375 266.5 316.275L266.5 317.15Q266.07812 317.275 265.67188 317.275Q264.95312 317.275 264.57812 316.8375Q264.20312 316.38437 264.20312 315.57187L264.20312 311.65L263.04688 311.65L263.04688 310.80624L264.20312 310.80624L264.20312 309.275L265.29688 309.275ZM269.0 317.15L267.92188 317.15L267.92188 310.80624L269.0 310.80624L269.0 317.15ZM267.82812 309.13437Q267.82812 308.86874 267.98438 308.68124Q268.15625 308.49374 268.46875 308.49374Q268.78125 308.49374 268.9375 308.68124Q269.10938 308.86874 269.10938 309.13437Q269.10938 309.38437 268.9375 309.57187Q268.78125 309.74374 268.46875 309.74374Q268.15625 309.74374 267.98438 309.57187Q267.82812 309.38437 267.82812 309.13437ZM270.53125 313.91562Q270.53125 312.99374 270.89062 312.24374Q271.26562 311.49374 271.92188 311.10312Q272.57812 310.69687 273.40625 310.69687Q274.70312 310.69687 275.5 311.5875Q276.3125 312.47812 276.3125 313.97812L276.3125 314.05624Q276.3125 314.97812 275.95312 315.7125Q275.59375 316.44687 274.9375 316.86874Q274.28125 317.275 273.42188 317.275Q272.14062 317.275 271.32812 316.38437Q270.53125 315.47812 270.53125 313.99374L270.53125 313.91562ZM271.625 314.05624Q271.625 315.10312 272.10938 315.74374Q272.60938 316.38437 273.42188 316.38437Q274.25 316.38437 274.73438 315.74374Q275.21875 315.0875 275.21875 313.91562Q275.21875 312.88437 274.71875 312.24374Q274.23438 311.5875 273.40625 311.5875Q272.60938 311.5875 272.10938 312.22812Q271.625 312.85312 271.625 314.05624ZM278.84375 310.80624L278.875 311.60312Q279.60938 310.69687 280.78125 310.69687Q282.79688 310.69687 282.8125 312.9625L282.8125 317.15L281.71875 317.15L281.71875 312.94687Q281.71875 312.275 281.40625 311.94687Q281.10938 311.61874 280.45312 311.61874Q279.92188 311.61874 279.51562 311.9Q279.125 312.18124 278.90625 312.63437L278.90625 317.15L277.82812 317.15L277.82812 310.80624L278.84375 310.80624ZM286.0 317.15L284.92188 317.15L284.92188 310.80624L286.0 310.80624L286.0 317.15ZM284.82812 309.13437Q284.82812 308.86874 284.98438 308.68124Q285.15625 308.49374 285.46875 308.49374Q285.78125 308.49374 285.9375 308.68124Q286.10938 308.86874 286.10938 309.13437Q286.10938 309.38437 285.9375 309.57187Q285.78125 309.74374 285.46875 309.74374Q285.15625 309.74374 284.98438 309.57187Q284.82812 309.38437 284.82812 309.13437ZM288.84375 310.80624L288.875 311.60312Q289.60938 310.69687 290.78125 310.69687Q292.79688 310.69687 292.8125 312.9625L292.8125 317.15L291.71875 317.15L291.71875 312.94687Q291.71875 312.275 291.40625 311.94687Q291.10938 311.61874 290.45312 311.61874Q289.92188 311.61874 289.51562 311.9Q289.125 312.18124 288.90625 312.63437L288.90625 317.15L287.82812 317.15L287.82812 310.80624L288.84375 310.80624ZM294.5625 313.93124Q294.5625 312.44687 295.25 311.57187Q295.9375 310.69687 297.0625 310.69687Q298.21875 310.69687 298.875 311.50937L298.92188 310.80624L299.92188 310.80624L299.92188 316.99374Q299.92188 318.22812 299.1875 318.93124Q298.45312 319.65 297.23438 319.65Q296.54688 319.65 295.89062 319.35312Q295.23438 319.05624 294.89062 318.55624L295.45312 317.9Q296.14062 318.75937 297.15625 318.75937Q297.9375 318.75937 298.375 318.30624Q298.82812 317.86874 298.82812 317.05624L298.82812 316.50937Q298.17188 317.275 297.04688 317.275Q295.9375 317.275 295.25 316.38437Q294.5625 315.47812 294.5625 313.93124ZM295.65625 314.05624Q295.65625 315.11874 296.09375 315.74374Q296.53125 316.35312 297.32812 316.35312Q298.34375 316.35312 298.82812 315.41562L298.82812 312.525Q298.32812 311.61874 297.32812 311.61874Q296.54688 311.61874 296.09375 312.22812Q295.65625 312.8375 295.65625 314.05624ZM311.26562 314.44687Q311.10938 315.79062 310.26562 316.54062Q309.42188 317.275 308.03125 317.275Q306.51562 317.275 305.60938 316.19687Q304.70312 315.10312 304.70312 313.275L304.70312 312.4625Q304.70312 311.275 305.125 310.36874Q305.54688 309.4625 306.32812 308.97812Q307.10938 308.49374 308.125 308.49374Q309.48438 308.49374 310.29688 309.25937Q311.125 310.025 311.26562 311.35312L310.14062 311.35312Q309.98438 310.3375 309.5 309.88437Q309.01562 309.43124 308.125 309.43124Q307.04688 309.43124 306.4375 310.22812Q305.82812 311.025 305.82812 312.49374L305.82812 313.32187Q305.82812 314.7125 306.40625 315.54062Q306.98438 316.35312 308.03125 316.35312Q308.96875 316.35312 309.46875 315.93124Q309.96875 315.49374 310.14062 314.44687L311.26562 314.44687ZM312.53125 313.91562Q312.53125 312.99374 312.89062 312.24374Q313.26562 311.49374 313.92188 311.10312Q314.57812 310.69687 315.40625 310.69687Q316.70312 310.69687 317.5 311.5875Q318.3125 312.47812 318.3125 313.97812L318.3125 314.05624Q318.3125 314.97812 317.95312 315.7125Q317.59375 316.44687 316.9375 316.86874Q316.28125 317.275 315.42188 317.275Q314.14062 317.275 313.32812 316.38437Q312.53125 315.47812 312.53125 313.99374L312.53125 313.91562ZM313.625 314.05624Q313.625 315.10312 314.10938 315.74374Q314.60938 316.38437 315.42188 316.38437Q316.25 316.38437 316.73438 315.74374Q317.21875 315.0875 317.21875 313.91562Q317.21875 312.88437 316.71875 312.24374Q316.23438 311.5875 315.40625 311.5875Q314.60938 311.5875 314.10938 312.22812Q313.625 312.85312 313.625 314.05624ZM320.84375 310.80624L320.875 311.60312Q321.60938 310.69687 322.78125 310.69687Q324.79688 310.69687 324.8125 312.9625L324.8125 317.15L323.71875 317.15L323.71875 312.94687Q323.71875 312.275 323.40625 311.94687Q323.10938 311.61874 322.45312 311.61874Q321.92188 311.61874 321.51562 311.9Q321.125 312.18124 320.90625 312.63437L320.90625 317.15L319.82812 317.15L319.82812 310.80624L320.84375 310.80624ZM327.35938 317.15L327.35938 311.65L326.35938 311.65L326.35938 310.80624L327.35938 310.80624L327.35938 310.16562Q327.35938 309.13437 327.89062 308.5875Q328.4375 308.025 329.4375 308.025Q329.8125 308.025 330.1875 308.11874L330.125 309.00937Q329.84375 308.94687 329.54688 308.94687Q329.01562 308.94687 328.71875 309.25937Q328.4375 309.57187 328.4375 310.13437L328.4375 310.80624L329.79688 310.80624L329.79688 311.65L328.4375 311.65L328.4375 317.15L327.35938 317.15ZM332.0 317.15L330.92188 317.15L330.92188 310.80624L332.0 310.80624L332.0 317.15ZM330.82812 309.13437Q330.82812 308.86874 330.98438 308.68124Q331.15625 308.49374 331.46875 308.49374Q331.78125 308.49374 331.9375 308.68124Q332.10938 308.86874 332.10938 309.13437Q332.10938 309.38437 331.9375 309.57187Q331.78125 309.74374 331.46875 309.74374Q331.15625 309.74374 330.98438 309.57187Q330.82812 309.38437 330.82812 309.13437ZM333.5625 313.93124Q333.5625 312.44687 334.25 311.57187Q334.9375 310.69687 336.0625 310.69687Q337.21875 310.69687 337.875 311.50937L337.92188 310.80624L338.92188 310.80624L338.92188 316.99374Q338.92188 318.22812 338.1875 318.93124Q337.45312 319.65 336.23438 319.65Q335.54688 319.65 334.89062 319.35312Q334.23438 319.05624 333.89062 318.55624L334.45312 317.9Q335.14062 318.75937 336.15625 318.75937Q336.9375 318.75937 337.375 318.30624Q337.82812 317.86874 337.82812 317.05624L337.82812 316.50937Q337.17188 317.275 336.04688 317.275Q334.9375 317.275 334.25 316.38437Q333.5625 315.47812 333.5625 313.93124ZM334.65625 314.05624Q334.65625 315.11874 335.09375 315.74374Q335.53125 316.35312 336.32812 316.35312Q337.34375 316.35312 337.82812 315.41562L337.82812 312.525Q337.32812 311.61874 336.32812 311.61874Q335.54688 311.61874 335.09375 312.22812Q334.65625 312.8375 334.65625 314.05624ZM344.73438 316.525Q344.10938 317.275 342.875 317.275Q341.85938 317.275 341.32812 316.68124Q340.79688 316.0875 340.79688 314.93124L340.79688 310.80624L341.875 310.80624L341.875 314.9Q341.875 316.35312 343.04688 316.35312Q344.29688 316.35312 344.70312 315.41562L344.70312 310.80624L345.79688 310.80624L345.79688 317.15L344.76562 317.15L344.73438 316.525ZM350.89062 311.775Q350.64062 311.74374 350.35938 311.74374Q349.28125 311.74374 348.90625 312.65L348.90625 317.15L347.82812 317.15L347.82812 310.80624L348.875 310.80624L348.89062 311.54062Q349.42188 310.69687 350.40625 310.69687Q350.71875 310.69687 350.89062 310.775L350.89062 311.775ZM355.73438 317.15Q355.64062 316.9625 355.57812 316.47812Q354.82812 317.275 353.78125 317.275Q352.84375 317.275 352.23438 316.74374Q351.64062 316.2125 351.64062 315.38437Q351.64062 314.4 352.39062 313.85312Q353.14062 313.30624 354.51562 313.30624L355.5625 313.30624L355.5625 312.80624Q355.5625 312.24374 355.21875 311.91562Q354.89062 311.57187 354.21875 311.57187Q353.64062 311.57187 353.25 311.86874Q352.85938 312.15 352.85938 312.57187L351.76562 312.57187Q351.76562 312.0875 352.09375 311.65Q352.4375 311.2125 353.01562 310.9625Q353.59375 310.69687 354.28125 310.69687Q355.39062 310.69687 356.0 311.24374Q356.625 311.79062 356.65625 312.74374L356.65625 315.66562Q356.65625 316.54062 356.875 317.05624L356.875 317.15L355.73438 317.15ZM353.9375 316.32187Q354.45312 316.32187 354.90625 316.05624Q355.35938 315.79062 355.5625 315.36874L355.5625 314.07187L354.71875 314.07187Q352.71875 314.07187 352.71875 315.24374Q352.71875 315.74374 353.0625 316.04062Q353.40625 316.32187 353.9375 316.32187ZM360.29688 309.275L360.29688 310.80624L361.46875 310.80624L361.46875 311.65L360.29688 311.65L360.29688 315.57187Q360.29688 315.9625 360.45312 316.15Q360.60938 316.3375 360.98438 316.3375Q361.17188 316.3375 361.5 316.275L361.5 317.15Q361.07812 317.275 360.67188 317.275Q359.95312 317.275 359.57812 316.8375Q359.20312 316.38437 359.20312 315.57187L359.20312 311.65L358.04688 311.65L358.04688 310.80624L359.20312 310.80624L359.20312 309.275L360.29688 309.275ZM364.0 317.15L362.92188 317.15L362.92188 310.80624L364.0 310.80624L364.0 317.15ZM362.82812 309.13437Q362.82812 308.86874 362.98438 308.68124Q363.15625 308.49374 363.46875 308.49374Q363.78125 308.49374 363.9375 308.68124Q364.10938 308.86874 364.10938 309.13437Q364.10938 309.38437 363.9375 309.57187Q363.78125 309.74374 363.46875 309.74374Q363.15625 309.74374 362.98438 309.57187Q362.82812 309.38437 362.82812 309.13437ZM365.53125 313.91562Q365.53125 312.99374 365.89062 312.24374Q366.26562 311.49374 366.92188 311.10312Q367.57812 310.69687 368.40625 310.69687Q369.70312 310.69687 370.5 311.5875Q371.3125 312.47812 371.3125 313.97812L371.3125 314.05624Q371.3125 314.97812 370.95312 315.7125Q370.59375 316.44687 369.9375 316.86874Q369.28125 317.275 368.42188 317.275Q367.14062 317.275 366.32812 316.38437Q365.53125 315.47812 365.53125 313.99374L365.53125 313.91562ZM366.625 314.05624Q366.625 315.10312 367.10938 315.74374Q367.60938 316.38437 368.42188 316.38437Q369.25 316.38437 369.73438 315.74374Q370.21875 315.0875 370.21875 313.91562Q370.21875 312.88437 369.71875 312.24374Q369.23438 311.5875 368.40625 311.5875Q367.60938 311.5875 367.10938 312.22812Q366.625 312.85312 366.625 314.05624ZM373.84375 310.80624L373.875 311.60312Q374.60938 310.69687 375.78125 310.69687Q377.79688 310.69687 377.8125 312.9625L377.8125 317.15L376.71875 317.15L376.71875 312.94687Q376.71875 312.275 376.40625 311.94687Q376.10938 311.61874 375.45312 311.61874Q374.92188 311.61874 374.51562 311.9Q374.125 312.18124 373.90625 312.63437L373.90625 317.15L372.82812 317.15L372.82812 310.80624L373.84375 310.80624ZM383.51562 315.4625Q383.51562 315.025 383.17188 314.79062Q382.84375 314.54062 382.01562 314.36874Q381.20312 314.19687 380.71875 313.94687Q380.23438 313.69687 380.0 313.36874Q379.78125 313.025 379.78125 312.55624Q379.78125 311.775 380.4375 311.24374Q381.09375 310.69687 382.125 310.69687Q383.20312 310.69687 383.85938 311.25937Q384.53125 311.80624 384.53125 312.66562L383.45312 312.66562Q383.45312 312.22812 383.0625 311.91562Q382.6875 311.5875 382.125 311.5875Q381.53125 311.5875 381.1875 311.85312Q380.85938 312.10312 380.85938 312.50937Q380.85938 312.9 381.17188 313.10312Q381.48438 313.30624 382.29688 313.49374Q383.10938 313.66562 383.60938 313.91562Q384.10938 314.16562 384.34375 314.525Q384.59375 314.88437 384.59375 315.38437Q384.59375 316.24374 383.90625 316.75937Q383.23438 317.275 382.15625 317.275Q381.39062 317.275 380.79688 317.00937Q380.21875 316.72812 379.89062 316.24374Q379.5625 315.75937 379.5625 315.19687L380.64062 315.19687Q380.67188 315.74374 381.07812 316.07187Q381.48438 316.38437 382.15625 316.38437Q382.76562 316.38437 383.14062 316.13437Q383.51562 315.88437 383.51562 315.4625Z" fill-rule="nonzero"/><path fill="#424242" d="M27.349995 205.80417L20.318745 203.36667L20.318745 202.1323L28.849995 205.30417L28.849995 206.28854L20.318745 209.4448L20.318745 208.22604L27.349995 205.80417ZM28.849995 196.8823Q28.662495 196.97604 28.17812 197.03854Q28.974995 197.78854 28.974995 198.83542Q28.974995 199.77292 28.443745 200.3823Q27.912495 200.97604 27.08437 200.97604Q26.099995 200.97604 25.55312 200.22604Q25.006245 199.47604 25.006245 198.10104L25.006245 197.05417L24.506245 197.05417Q23.943745 197.05417 23.61562 197.39792Q23.27187 197.72604 23.27187 198.39792Q23.27187 198.97604 23.568745 199.36667Q23.849995 199.7573 24.27187 199.7573L24.27187 200.85104Q23.787495 200.85104 23.349995 200.52292Q22.912495 200.17917 22.662495 199.60104Q22.39687 199.02292 22.39687 198.33542Q22.39687 197.22604 22.943745 196.61667Q23.49062 195.99167 24.443745 195.96042L27.36562 195.96042Q28.24062 195.96042 28.756245 195.74167L28.849995 195.74167L28.849995 196.8823ZM28.02187 198.67917Q28.02187 198.16354 27.756245 197.71042Q27.49062 197.2573 27.068745 197.05417L25.77187 197.05417L25.77187 197.89792Q25.77187 199.89792 26.943745 199.89792Q27.443745 199.89792 27.74062 199.55417Q28.02187 199.21042 28.02187 198.67917ZM28.849995 192.61667L28.849995 193.6948L19.849995 193.6948L19.849995 192.61667L28.849995 192.61667ZM28.849995 189.61667L28.849995 190.6948L22.506245 190.6948L22.506245 189.61667L28.849995 189.61667ZM20.83437 190.78854Q20.568745 190.78854 20.381245 190.6323Q20.193745 190.46042 20.193745 190.14792Q20.193745 189.83542 20.381245 189.67917Q20.568745 189.5073 20.83437 189.5073Q21.08437 189.5073 21.27187 189.67917Q21.443745 189.83542 21.443745 190.14792Q21.443745 190.46042 21.27187 190.6323Q21.08437 190.78854 20.83437 190.78854ZM25.631245 188.05417Q24.162495 188.05417 23.287495 187.36667Q22.39687 186.67917 22.39687 185.55417Q22.39687 184.4448 23.14687 183.78854L19.849995 183.78854L19.849995 182.71042L28.849995 182.71042L28.849995 183.71042L28.162495 183.7573Q28.974995 184.41354 28.974995 185.5698Q28.974995 186.66354 28.068745 187.36667Q27.162495 188.05417 25.70937 188.05417L25.631245 188.05417ZM25.756245 186.97604Q26.83437 186.97604 27.443745 186.53854Q28.05312 186.08542 28.05312 185.30417Q28.05312 184.27292 27.11562 183.78854L24.20937 183.78854Q23.318745 184.27292 23.318745 185.28854Q23.318745 186.08542 23.92812 186.53854Q24.537495 186.97604 25.756245 186.97604ZM28.849995 176.8823Q28.662495 176.97604 28.17812 177.03854Q28.974995 177.78854 28.974995 178.83542Q28.974995 179.77292 28.443745 180.3823Q27.912495 180.97604 27.08437 180.97604Q26.099995 180.97604 25.55312 180.22604Q25.006245 179.47604 25.006245 178.10104L25.006245 177.05417L24.506245 177.05417Q23.943745 177.05417 23.61562 177.39792Q23.27187 177.72604 23.27187 178.39792Q23.27187 178.97604 23.568745 179.36667Q23.849995 179.7573 24.27187 179.7573L24.27187 180.85104Q23.787495 180.85104 23.349995 180.52292Q22.912495 180.17917 22.662495 179.60104Q22.39687 179.02292 22.39687 178.33542Q22.39687 177.22604 22.943745 176.61667Q23.49062 175.99167 24.443745 175.96042L27.36562 175.96042Q28.24062 175.96042 28.756245 175.74167L28.849995 175.74167L28.849995 176.8823ZM28.02187 178.67917Q28.02187 178.16354 27.756245 177.71042Q27.49062 177.2573 27.068745 177.05417L25.77187 177.05417L25.77187 177.89792Q25.77187 179.89792 26.943745 179.89792Q27.443745 179.89792 27.74062 179.55417Q28.02187 179.21042 28.02187 178.67917ZM20.974995 172.3198L22.506245 172.3198L22.506245 171.14792L23.349995 171.14792L23.349995 172.3198L27.27187 172.3198Q27.662495 172.3198 27.849995 172.16354Q28.037495 172.0073 28.037495 171.6323Q28.037495 171.4448 27.974995 171.11667L28.849995 171.11667Q28.974995 171.53854 28.974995 171.9448Q28.974995 172.66354 28.537495 173.03854Q28.08437 173.41354 27.27187 173.41354L23.349995 173.41354L23.349995 174.5698L22.506245 174.5698L22.506245 173.41354L20.974995 173.41354L20.974995 172.3198ZM28.849995 168.61667L28.849995 169.6948L22.506245 169.6948L22.506245 168.61667L28.849995 168.61667ZM20.83437 169.78854Q20.568745 169.78854 20.381245 169.6323Q20.193745 169.46042 20.193745 169.14792Q20.193745 168.83542 20.381245 168.67917Q20.568745 168.5073 20.83437 168.5073Q21.08437 168.5073 21.27187 168.67917Q21.443745 168.83542 21.443745 169.14792Q21.443745 169.46042 21.27187 169.6323Q21.08437 169.78854 20.83437 169.78854ZM25.61562 167.08542Q24.693745 167.08542 23.943745 166.72604Q23.193745 166.35104 22.80312 165.6948Q22.39687 165.03854 22.39687 164.21042Q22.39687 162.91354 23.287495 162.11667Q24.17812 161.30417 25.67812 161.30417L25.756245 161.30417Q26.67812 161.30417 27.412495 161.66354Q28.14687 162.02292 28.568745 162.67917Q28.974995 163.33542 28.974995 164.1948Q28.974995 165.47604 28.08437 166.28854Q27.17812 167.08542 25.693745 167.08542L25.61562 167.08542ZM25.756245 165.99167Q26.80312 165.99167 27.443745 165.5073Q28.08437 165.0073 28.08437 164.1948Q28.08437 163.36667 27.443745 162.8823Q26.787495 162.39792 25.61562 162.39792Q24.58437 162.39792 23.943745 162.89792Q23.287495 163.3823 23.287495 164.21042Q23.287495 165.0073 23.92812 165.5073Q24.55312 165.99167 25.756245 165.99167ZM22.506245 158.77292L23.30312 158.74167Q22.39687 158.0073 22.39687 156.83542Q22.39687 154.8198 24.662495 154.80417L28.849995 154.80417L28.849995 155.89792L24.64687 155.89792Q23.974995 155.89792 23.64687 156.21042Q23.318745 156.5073 23.318745 157.16354Q23.318745 157.6948 23.599995 158.10104Q23.881245 158.49167 24.33437 158.71042L28.849995 158.71042L28.849995 159.78854L22.506245 159.78854L22.506245 158.77292ZM28.849995 143.0698L28.849995 144.1948L22.27187 148.49167L28.849995 148.49167L28.849995 149.6323L20.318745 149.6323L20.318745 148.49167L26.92812 144.1948L20.318745 144.1948L20.318745 143.0698L28.849995 143.0698ZM27.92812 139.49167L27.92812 135.4448L28.849995 135.4448L28.849995 140.6323L20.318745 140.6323L20.318745 139.49167L27.92812 139.49167ZM27.92812 133.49167L27.92812 129.4448L28.849995 129.4448L28.849995 134.6323L20.318745 134.6323L20.318745 133.49167L27.92812 133.49167Z" fill-rule="nonzero"/><path fill="#757575" d="M55.9125 267.00937Q55.9125 268.91562 55.25625 269.85312Q54.615623 270.775 53.225 270.775Q51.865623 270.775 51.209373 269.86874Q50.553123 268.9625 50.521873 267.15L50.521873 265.7125Q50.521873 263.82187 51.1625 262.91562Q51.81875 261.99374 53.209373 261.99374Q54.584373 261.99374 55.240623 262.88437Q55.896873 263.75937 55.9125 265.60312L55.9125 267.00937ZM54.81875 265.525Q54.81875 264.15 54.428123 263.525Q54.053123 262.88437 53.209373 262.88437Q52.38125 262.88437 51.990623 263.525Q51.615623 264.15 51.615623 265.44687L51.615623 267.18124Q51.615623 268.55624 52.00625 269.22812Q52.4125 269.88437 53.225 269.88437Q54.021873 269.88437 54.4125 269.25937Q54.803123 268.63437 54.81875 267.30624L54.81875 265.525ZM57.69375 270.0875Q57.69375 269.80624 57.85 269.61874Q58.021873 269.43124 58.35 269.43124Q58.69375 269.43124 58.865623 269.61874Q59.0375 269.80624 59.0375 270.0875Q59.0375 270.35312 58.865623 270.54062Q58.69375 270.7125 58.35 270.7125Q58.021873 270.7125 57.85 270.54062Q57.69375 270.35312 57.69375 270.0875ZM65.9125 267.00937Q65.9125 268.91562 65.25625 269.85312Q64.61562 270.775 63.225 270.775Q61.865623 270.775 61.209373 269.86874Q60.553123 268.9625 60.521873 267.15L60.521873 265.7125Q60.521873 263.82187 61.1625 262.91562Q61.81875 261.99374 63.209373 261.99374Q64.58437 261.99374 65.24062 262.88437Q65.89687 263.75937 65.9125 265.60312L65.9125 267.00937ZM64.81875 265.525Q64.81875 264.15 64.42812 263.525Q64.05312 262.88437 63.209373 262.88437Q62.38125 262.88437 61.990623 263.525Q61.615623 264.15 61.615623 265.44687L61.615623 267.18124Q61.615623 268.55624 62.00625 269.22812Q62.4125 269.88437 63.225 269.88437Q64.02187 269.88437 64.4125 269.25937Q64.80312 268.63437 64.81875 267.30624L64.81875 265.525ZM69.13125 265.85312L69.94375 265.85312Q70.725 265.8375 71.1625 265.44687Q71.6 265.05624 71.6 264.38437Q71.6 262.88437 70.1 262.88437Q69.39687 262.88437 68.975 263.29062Q68.56875 263.69687 68.56875 264.35312L67.475 264.35312Q67.475 263.3375 68.20937 262.66562Q68.95937 261.99374 70.1 261.99374Q71.30312 261.99374 71.99062 262.63437Q72.67812 263.275 72.67812 264.41562Q72.67812 264.97812 72.31875 265.49374Q71.95937 266.00937 71.33437 266.275Q72.0375 266.49374 72.4125 267.00937Q72.80312 267.525 72.80312 268.275Q72.80312 269.41562 72.05312 270.10312Q71.30312 270.775 70.1 270.775Q68.9125 270.775 68.14687 270.11874Q67.39687 269.4625 67.39687 268.4L68.49062 268.4Q68.49062 269.07187 68.92812 269.47812Q69.36562 269.88437 70.11562 269.88437Q70.89687 269.88437 71.30312 269.47812Q71.725 269.05624 71.725 268.29062Q71.725 267.55624 71.27187 267.16562Q70.81875 266.75937 69.94375 266.74374L69.13125 266.74374L69.13125 265.85312ZM79.9125 267.00937Q79.9125 268.91562 79.25625 269.85312Q78.61562 270.775 77.225 270.775Q75.86562 270.775 75.20937 269.86874Q74.55312 268.9625 74.52187 267.15L74.52187 265.7125Q74.52187 263.82187 75.1625 262.91562Q75.81875 261.99374 77.20937 261.99374Q78.58437 261.99374 79.24062 262.88437Q79.89687 263.75937 79.9125 265.60312L79.9125 267.00937ZM78.81875 265.525Q78.81875 264.15 78.42812 263.525Q78.05312 262.88437 77.20937 262.88437Q76.38125 262.88437 75.99062 263.525Q75.61562 264.15 75.61562 265.44687L75.61562 267.18124Q75.61562 268.55624 76.00625 269.22812Q76.4125 269.88437 77.225 269.88437Q78.02187 269.88437 78.4125 269.25937Q78.80312 268.63437 78.81875 267.30624L78.81875 265.525Z" fill-rule="nonzero"/><path fill="#757575" d="M55.9125 198.15382Q55.9125 200.06007 55.25625 200.99757Q54.615623 201.91945 53.225 201.91945Q51.865623 201.91945 51.209373 201.0132Q50.553123 200.10695 50.521873 198.29445L50.521873 196.85695Q50.521873 194.96632 51.1625 194.06007Q51.81875 193.1382 53.209373 193.1382Q54.584373 193.1382 55.240623 194.02882Q55.896873 194.90382 55.9125 196.74757L55.9125 198.15382ZM54.81875 196.66945Q54.81875 195.29445 54.428123 194.66945Q54.053123 194.02882 53.209373 194.02882Q52.38125 194.02882 51.990623 194.66945Q51.615623 195.29445 51.615623 196.59132L51.615623 198.3257Q51.615623 199.7007 52.00625 200.37257Q52.4125 201.02882 53.225 201.02882Q54.021873 201.02882 54.4125 200.40382Q54.803123 199.77882 54.81875 198.4507L54.81875 196.66945ZM57.69375 201.23195Q57.69375 200.9507 57.85 200.7632Q58.021873 200.5757 58.35 200.5757Q58.69375 200.5757 58.865623 200.7632Q59.0375 200.9507 59.0375 201.23195Q59.0375 201.49757 58.865623 201.68507Q58.69375 201.85695 58.35 201.85695Q58.021873 201.85695 57.85 201.68507Q57.69375 201.49757 57.69375 201.23195ZM65.9125 198.15382Q65.9125 200.06007 65.25625 200.99757Q64.61562 201.91945 63.225 201.91945Q61.865623 201.91945 61.209373 201.0132Q60.553123 200.10695 60.521873 198.29445L60.521873 196.85695Q60.521873 194.96632 61.1625 194.06007Q61.81875 193.1382 63.209373 193.1382Q64.58437 193.1382 65.24062 194.02882Q65.89687 194.90382 65.9125 196.74757L65.9125 198.15382ZM64.81875 196.66945Q64.81875 195.29445 64.42812 194.66945Q64.05312 194.02882 63.209373 194.02882Q62.38125 194.02882 61.990623 194.66945Q61.615623 195.29445 61.615623 196.59132L61.615623 198.3257Q61.615623 199.7007 62.00625 200.37257Q62.4125 201.02882 63.225 201.02882Q64.02187 201.02882 64.4125 200.40382Q64.80312 199.77882 64.81875 198.4507L64.81875 196.66945ZM73.06875 193.87257L69.5375 201.79445L68.39687 201.79445L71.9125 194.15382L67.30312 194.15382L67.30312 193.2632L73.06875 193.2632L73.06875 193.87257ZM79.9125 198.15382Q79.9125 200.06007 79.25625 200.99757Q78.61562 201.91945 77.225 201.91945Q75.86562 201.91945 75.20937 201.0132Q74.55312 200.10695 74.52187 198.29445L74.52187 196.85695Q74.52187 194.96632 75.1625 194.06007Q75.81875 193.1382 77.20937 193.1382Q78.58437 193.1382 79.24062 194.02882Q79.89687 194.90382 79.9125 196.74757L79.9125 198.15382ZM78.81875 196.66945Q78.81875 195.29445 78.42812 194.66945Q78.05312 194.02882 77.20937 194.02882Q76.38125 194.02882 75.99062 194.66945Q75.61562 195.29445 75.61562 196.59132L75.61562 198.3257Q75.61562 199.7007 76.00625 200.37257Q76.4125 201.02882 77.225 201.02882Q78.02187 201.02882 78.4125 200.40382Q78.80312 199.77882 78.81875 198.4507L78.81875 196.66945Z" fill-rule="nonzero"/><path fill="#757575" d="M55.9125 129.29826Q55.9125 131.20451 55.25625 132.14201Q54.615623 133.06389 53.225 133.06389Q51.865623 133.06389 51.209373 132.15764Q50.553123 131.25139 50.521873 129.43889L50.521873 128.00139Q50.521873 126.11076 51.1625 125.20451Q51.81875 124.28264 53.209373 124.28264Q54.584373 124.28264 55.240623 125.17326Q55.896873 126.04826 55.9125 127.89201L55.9125 129.29826ZM54.81875 127.81389Q54.81875 126.43889 54.428123 125.81389Q54.053123 125.17326 53.209373 125.17326Q52.38125 125.17326 51.990623 125.81389Q51.615623 126.43889 51.615623 127.73576L51.615623 129.47014Q51.615623 130.84514 52.00625 131.51701Q52.4125 132.17326 53.225 132.17326Q54.021873 132.17326 54.4125 131.54826Q54.803123 130.92326 54.81875 129.59514L54.81875 127.81389ZM57.69375 132.37639Q57.69375 132.09514 57.85 131.90764Q58.021873 131.72014 58.35 131.72014Q58.69375 131.72014 58.865623 131.90764Q59.0375 132.09514 59.0375 132.37639Q59.0375 132.64201 58.865623 132.82951Q58.69375 133.00139 58.35 133.00139Q58.021873 133.00139 57.85 132.82951Q57.69375 132.64201 57.69375 132.37639ZM64.11562 132.93889L63.0375 132.93889L63.0375 125.72014L60.85 126.51701L60.85 125.53264L63.959373 124.36076L64.11562 124.36076L64.11562 132.93889ZM71.11562 132.93889L70.0375 132.93889L70.0375 125.72014L67.85 126.51701L67.85 125.53264L70.95937 124.36076L71.11562 124.36076L71.11562 132.93889ZM79.9125 129.29826Q79.9125 131.20451 79.25625 132.14201Q78.61562 133.06389 77.225 133.06389Q75.86562 133.06389 75.20937 132.15764Q74.55312 131.25139 74.52187 129.43889L74.52187 128.00139Q74.52187 126.11076 75.1625 125.20451Q75.81875 124.28264 77.20937 124.28264Q78.58437 124.28264 79.24062 125.17326Q79.89687 126.04826 79.9125 127.89201L79.9125 129.29826ZM78.81875 127.81389Q78.81875 126.43889 78.42812 125.81389Q78.05312 125.17326 77.20937 125.17326Q76.38125 125.17326 75.99062 125.81389Q75.61562 126.43889 75.61562 127.73576L75.61562 129.47014Q75.61562 130.84514 76.00625 131.51701Q76.4125 132.17326 77.225 132.17326Q78.02187 132.17326 78.4125 131.54826Q78.80312 130.92326 78.81875 129.59514L78.81875 127.81389Z" fill-rule="nonzero"/><path fill="#757575" d="M55.9125 60.44271Q55.9125 62.34896 55.25625 63.28646Q54.615623 64.208336 53.225 64.208336Q51.865623 64.208336 51.209373 63.302086Q50.553123 62.395836 50.521873 60.583336L50.521873 59.145836Q50.521873 57.25521 51.1625 56.34896Q51.81875 55.427086 53.209373 55.427086Q54.584373 55.427086 55.240623 56.31771Q55.896873 57.19271 55.9125 59.03646L55.9125 60.44271ZM54.81875 58.958336Q54.81875 57.583336 54.428123 56.958336Q54.053123 56.31771 53.209373 56.31771Q52.38125 56.31771 51.990623 56.958336Q51.615623 57.583336 51.615623 58.88021L51.615623 60.614586Q51.615623 61.989586 52.00625 62.66146Q52.4125 63.31771 53.225 63.31771Q54.021873 63.31771 54.4125 62.69271Q54.803123 62.06771 54.81875 60.739586L54.81875 58.958336ZM57.69375 63.520836Q57.69375 63.239586 57.85 63.052086Q58.021873 62.864586 58.35 62.864586Q58.69375 62.864586 58.865623 63.052086Q59.0375 63.239586 59.0375 63.520836Q59.0375 63.78646 58.865623 63.97396Q58.69375 64.145836 58.35 64.145836Q58.021873 64.145836 57.85 63.97396Q57.69375 63.78646 57.69375 63.520836ZM64.11562 64.083336L63.0375 64.083336L63.0375 56.864586L60.85 57.66146L60.85 56.677086L63.959373 55.50521L64.11562 55.50521L64.11562 64.083336ZM68.05312 59.802086L68.49062 55.552086L72.86562 55.552086L72.86562 56.552086L69.4125 56.552086L69.14687 58.88021Q69.7875 58.50521 70.58437 58.50521Q71.74062 58.50521 72.42812 59.28646Q73.11562 60.052086 73.11562 61.364586Q73.11562 62.677086 72.39687 63.44271Q71.69375 64.208336 70.4125 64.208336Q69.2875 64.208336 68.56875 63.583336Q67.85 62.94271 67.75625 61.833336L68.77187 61.833336Q68.88125 62.56771 69.30312 62.94271Q69.725 63.31771 70.4125 63.31771Q71.1625 63.31771 71.6 62.802086Q72.0375 62.28646 72.0375 61.38021Q72.0375 60.520836 71.56875 60.00521Q71.1 59.489586 70.31875 59.489586Q69.61562 59.489586 69.20937 59.78646L68.92812 60.020836L68.05312 59.802086ZM79.9125 60.44271Q79.9125 62.34896 79.25625 63.28646Q78.61562 64.208336 77.225 64.208336Q75.86562 64.208336 75.20937 63.302086Q74.55312 62.395836 74.52187 60.583336L74.52187 59.145836Q74.52187 57.25521 75.1625 56.34896Q75.81875 55.427086 77.20937 55.427086Q78.58437 55.427086 79.24062 56.31771Q79.89687 57.19271 79.9125 59.03646L79.9125 60.44271ZM78.81875 58.958336Q78.81875 57.583336 78.42812 56.958336Q78.05312 56.31771 77.20937 56.31771Q76.38125 56.31771 75.99062 56.958336Q75.61562 57.583336 75.61562 58.88021L75.61562 60.614586Q75.61562 61.989586 76.00625 62.66146Q76.4125 63.31771 77.225 63.31771Q78.02187 63.31771 78.4125 62.69271Q78.80312 62.06771 78.81875 60.739586L78.81875 58.958336Z" fill-rule="nonzero"/><path fill="#757575" d="M92.76036 284.15L91.63536 284.15L87.338486 277.57187L87.338486 284.15L86.19786 284.15L86.19786 275.61874L87.338486 275.61874L91.63536 282.22812L91.63536 275.61874L92.76036 275.61874L92.76036 284.15ZM94.744736 280.91562Q94.744736 279.99374 95.10411 279.24374Q95.47911 278.49374 96.13536 278.10312Q96.79161 277.69687 97.619736 277.69687Q98.91661 277.69687 99.713486 278.5875Q100.525986 279.47812 100.525986 280.97812L100.525986 281.05624Q100.525986 281.97812 100.16661 282.7125Q99.807236 283.44687 99.150986 283.86874Q98.494736 284.275 97.63536 284.275Q96.35411 284.275 95.54161 283.38437Q94.744736 282.47812 94.744736 280.99374L94.744736 280.91562ZM95.838486 281.05624Q95.838486 282.10312 96.32286 282.74374Q96.82286 283.38437 97.63536 283.38437Q98.463486 283.38437 98.94786 282.74374Q99.432236 282.0875 99.432236 280.91562Q99.432236 279.88437 98.932236 279.24374Q98.44786 278.5875 97.619736 278.5875Q96.82286 278.5875 96.32286 279.22812Q95.838486 279.85312 95.838486 281.05624ZM104.29161 280.9625L101.432236 280.9625L101.432236 280.0875L104.29161 280.0875L104.29161 280.9625ZM111.47911 281.44687Q111.32286 282.79062 110.47911 283.54062Q109.63536 284.275 108.244736 284.275Q106.72911 284.275 105.82286 283.19687Q104.91661 282.10312 104.91661 280.275L104.91661 279.4625Q104.91661 278.275 105.338486 277.36874Q105.76036 276.4625 106.54161 275.97812Q107.32286 275.49374 108.338486 275.49374Q109.69786 275.49374 110.51036 276.25937Q111.338486 277.025 111.47911 278.35312L110.35411 278.35312Q110.19786 277.3375 109.713486 276.88437Q109.22911 276.43124 108.338486 276.43124Q107.26036 276.43124 106.650986 277.22812Q106.04161 278.025 106.04161 279.49374L106.04161 280.32187Q106.04161 281.7125 106.619736 282.54062Q107.19786 283.35312 108.244736 283.35312Q109.182236 283.35312 109.682236 282.93124Q110.182236 282.49374 110.35411 281.44687L111.47911 281.44687ZM112.744736 280.91562Q112.744736 279.99374 113.10411 279.24374Q113.47911 278.49374 114.13536 278.10312Q114.79161 277.69687 115.619736 277.69687Q116.91661 277.69687 117.713486 278.5875Q118.525986 279.47812 118.525986 280.97812L118.525986 281.05624Q118.525986 281.97812 118.16661 282.7125Q117.807236 283.44687 117.150986 283.86874Q116.494736 284.275 115.63536 284.275Q114.35411 284.275 113.54161 283.38437Q112.744736 282.47812 112.744736 280.99374L112.744736 280.91562ZM113.838486 281.05624Q113.838486 282.10312 114.32286 282.74374Q114.82286 283.38437 115.63536 283.38437Q116.463486 283.38437 116.94786 282.74374Q117.432236 282.0875 117.432236 280.91562Q117.432236 279.88437 116.932236 279.24374Q116.44786 278.5875 115.619736 278.5875Q114.82286 278.5875 114.32286 279.22812Q113.838486 279.85312 113.838486 281.05624ZM121.057236 277.80624L121.088486 278.60312Q121.82286 277.69687 122.994736 277.69687Q125.01036 277.69687 125.025986 279.9625L125.025986 284.15L123.932236 284.15L123.932236 279.94687Q123.932236 279.275 123.619736 278.94687Q123.32286 278.61874 122.66661 278.61874Q122.13536 278.61874 121.72911 278.9Q121.338486 279.18124 121.119736 279.63437L121.119736 284.15L120.04161 284.15L120.04161 277.80624L121.057236 277.80624ZM126.775986 280.93124Q126.775986 279.4625 127.463486 278.5875Q128.15099 277.69687 129.27599 277.69687Q130.38536 277.69687 131.04161 278.44687L131.04161 275.15L132.11974 275.15L132.11974 284.15L131.11974 284.15L131.07286 283.4625Q130.41661 284.275 129.26036 284.275Q128.16661 284.275 127.463486 283.36874Q126.775986 282.4625 126.775986 281.00937L126.775986 280.93124ZM127.85411 281.05624Q127.85411 282.13437 128.29161 282.74374Q128.74474 283.35312 129.52599 283.35312Q130.55724 283.35312 131.04161 282.41562L131.04161 279.50937Q130.55724 278.61874 129.54161 278.61874Q128.74474 278.61874 128.29161 279.22812Q127.85411 279.8375 127.85411 281.05624Z" fill-rule="nonzero"/><path fill="#757575" d="M143.0477 284.15L141.9227 284.15L141.9227 275.61874L143.0477 275.61874L143.0477 284.15Z" fill-rule="nonzero"/><path fill="#757575" d="M178.74129 281.44687Q178.58504 282.79062 177.74129 283.54062Q176.89754 284.275 175.50691 284.275Q173.99129 284.275 173.08504 283.19687Q172.17879 282.10312 172.17879 280.275L172.17879 279.4625Q172.17879 278.275 172.60066 277.36874Q173.02254 276.4625 173.80379 275.97812Q174.58504 275.49374 175.60066 275.49374Q176.96004 275.49374 177.77254 276.25937Q178.60066 277.025 178.74129 278.35312L177.61629 278.35312Q177.46004 277.3375 176.97566 276.88437Q176.49129 276.43124 175.60066 276.43124Q174.52254 276.43124 173.91316 277.22812Q173.30379 278.025 173.30379 279.49374L173.30379 280.32187Q173.30379 281.7125 173.88191 282.54062Q174.46004 283.35312 175.50691 283.35312Q176.44441 283.35312 176.94441 282.93124Q177.44441 282.49374 177.61629 281.44687L178.74129 281.44687Z" fill-rule="nonzero"/><path fill="#757575" d="M211.65361 284.15L210.52861 284.15L206.23174 277.57187L206.23174 284.15L205.09111 284.15L205.09111 275.61874L206.23174 275.61874L210.52861 282.22812L210.52861 275.61874L211.65361 275.61874L211.65361 284.15Z" fill-rule="nonzero"/><path fill="#757575" d="M239.2222 284.15L239.2222 275.61874L242.01907 275.61874Q243.4097 275.61874 244.0972 276.19687Q244.80032 276.75937 244.80032 277.88437Q244.80032 278.49374 244.45657 278.9625Q244.12845 279.41562 243.5347 279.66562Q244.23782 279.85312 244.62845 280.4Q245.0347 280.93124 245.0347 281.68124Q245.0347 282.8375 244.2847 283.49374Q243.55032 284.15 242.19095 284.15L239.2222 284.15ZM240.3472 280.16562L240.3472 283.22812L242.20657 283.22812Q243.00345 283.22812 243.45657 282.82187Q243.9097 282.41562 243.9097 281.69687Q243.9097 280.16562 242.2222 280.16562L240.3472 280.16562ZM240.3472 279.25937L242.05032 279.25937Q242.7847 279.25937 243.2222 278.9Q243.67532 278.525 243.67532 277.88437Q243.67532 277.18124 243.26907 276.86874Q242.86282 276.54062 242.01907 276.54062L240.3472 276.54062L240.3472 279.25937Z" fill-rule="nonzero"/><path fill="#757575" d="M276.63455 281.44687Q276.4783 282.79062 275.63455 283.54062Q274.7908 284.275 273.40018 284.275Q271.88455 284.275 270.9783 283.19687Q270.07205 282.10312 270.07205 280.275L270.07205 279.4625Q270.07205 278.275 270.49393 277.36874Q270.9158 276.4625 271.69705 275.97812Q272.4783 275.49374 273.49393 275.49374Q274.8533 275.49374 275.6658 276.25937Q276.49393 277.025 276.63455 278.35312L275.50955 278.35312Q275.3533 277.3375 274.86893 276.88437Q274.38455 276.43124 273.49393 276.43124Q272.4158 276.43124 271.80643 277.22812Q271.19705 278.025 271.19705 279.49374L271.19705 280.32187Q271.19705 281.7125 271.77518 282.54062Q272.3533 283.35312 273.40018 283.35312Q274.33768 283.35312 274.83768 282.93124Q275.33768 282.49374 275.50955 281.44687L276.63455 281.44687ZM279.57205 284.15L278.44705 284.15L278.44705 275.61874L279.57205 275.61874L279.57205 284.15Z" fill-rule="nonzero"/><path fill="#757575" d="M306.76562 281.44687Q306.60938 282.79062 305.76562 283.54062Q304.92188 284.275 303.53125 284.275Q302.01562 284.275 301.10938 283.19687Q300.20312 282.10312 300.20312 280.275L300.20312 279.4625Q300.20312 278.275 300.625 277.36874Q301.04688 276.4625 301.82812 275.97812Q302.60938 275.49374 303.625 275.49374Q304.98438 275.49374 305.79688 276.25937Q306.625 277.025 306.76562 278.35312L305.64062 278.35312Q305.48438 277.3375 305.0 276.88437Q304.51562 276.43124 303.625 276.43124Q302.54688 276.43124 301.9375 277.22812Q301.32812 278.025 301.32812 279.49374L301.32812 280.32187Q301.32812 281.7125 301.90625 282.54062Q302.48438 283.35312 303.53125 283.35312Q304.46875 283.35312 304.96875 282.93124Q305.46875 282.49374 305.64062 281.44687L306.76562 281.44687ZM315.04688 284.15L313.92188 284.15L309.625 277.57187L309.625 284.15L308.48438 284.15L308.48438 275.61874L309.625 275.61874L313.92188 282.22812L313.92188 275.61874L315.04688 275.61874L315.04688 284.15Z" fill-rule="nonzero"/><path fill="#757575" d="M340.8967 281.44687Q340.74045 282.79062 339.8967 283.54062Q339.05295 284.275 337.66232 284.275Q336.1467 284.275 335.24045 283.19687Q334.3342 282.10312 334.3342 280.275L334.3342 279.4625Q334.3342 278.275 334.75607 277.36874Q335.17795 276.4625 335.9592 275.97812Q336.74045 275.49374 337.75607 275.49374Q339.11545 275.49374 339.92795 276.25937Q340.75607 277.025 340.8967 278.35312L339.7717 278.35312Q339.61545 277.3375 339.13107 276.88437Q338.6467 276.43124 337.75607 276.43124Q336.67795 276.43124 336.06857 277.22812Q335.4592 278.025 335.4592 279.49374L335.4592 280.32187Q335.4592 281.7125 336.03732 282.54062Q336.61545 283.35312 337.66232 283.35312Q338.59982 283.35312 339.09982 282.93124Q339.59982 282.49374 339.7717 281.44687L340.8967 281.44687ZM342.61545 284.15L342.61545 275.61874L345.41232 275.61874Q346.80295 275.61874 347.49045 276.19687Q348.19357 276.75937 348.19357 277.88437Q348.19357 278.49374 347.84982 278.9625Q347.5217 279.41562 346.92795 279.66562Q347.63107 279.85312 348.0217 280.4Q348.42795 280.93124 348.42795 281.68124Q348.42795 282.8375 347.67795 283.49374Q346.94357 284.15 345.5842 284.15L342.61545 284.15ZM343.74045 280.16562L343.74045 283.22812L345.59982 283.22812Q346.3967 283.22812 346.84982 282.82187Q347.30295 282.41562 347.30295 281.69687Q347.30295 280.16562 345.61545 280.16562L343.74045 280.16562ZM343.74045 279.25937L345.44357 279.25937Q346.17795 279.25937 346.61545 278.9Q347.06857 278.525 347.06857 277.88437Q347.06857 277.18124 346.66232 276.86874Q346.25607 276.54062 345.41232 276.54062L343.74045 276.54062L343.74045 279.25937Z" fill-rule="nonzero"/><path fill="#757575" d="M371.4653 284.15L370.3403 284.15L370.3403 275.61874L371.4653 275.61874L371.4653 284.15ZM373.24655 284.15L373.24655 275.61874L376.04343 275.61874Q377.43405 275.61874 378.12155 276.19687Q378.82468 276.75937 378.82468 277.88437Q378.82468 278.49374 378.48093 278.9625Q378.1528 279.41562 377.55905 279.66562Q378.26218 279.85312 378.6528 280.4Q379.05905 280.93124 379.05905 281.68124Q379.05905 282.8375 378.30905 283.49374Q377.57468 284.15 376.2153 284.15L373.24655 284.15ZM374.37155 280.16562L374.37155 283.22812L376.23093 283.22812Q377.0278 283.22812 377.48093 282.82187Q377.93405 282.41562 377.93405 281.69687Q377.93405 280.16562 376.24655 280.16562L374.37155 280.16562ZM374.37155 279.25937L376.07468 279.25937Q376.80905 279.25937 377.24655 278.9Q377.69968 278.525 377.69968 277.88437Q377.69968 277.18124 377.29343 276.86874Q376.88718 276.54062 376.04343 276.54062L374.37155 276.54062L374.37155 279.25937Z" fill-rule="nonzero"/><path fill="#757575" d="M404.65887 281.44687Q404.50262 282.79062 403.65887 283.54062Q402.81512 284.275 401.4245 284.275Q399.90887 284.275 399.00262 283.19687Q398.09637 282.10312 398.09637 280.275L398.09637 279.4625Q398.09637 278.275 398.51825 277.36874Q398.94012 276.4625 399.72137 275.97812Q400.50262 275.49374 401.51825 275.49374Q402.87762 275.49374 403.69012 276.25937Q404.51825 277.025 404.65887 278.35312L403.53387 278.35312Q403.37762 277.3375 402.89325 276.88437Q402.40887 276.43124 401.51825 276.43124Q400.44012 276.43124 399.83075 277.22812Q399.22137 278.025 399.22137 279.49374L399.22137 280.32187Q399.22137 281.7125 399.7995 282.54062Q400.37762 283.35312 401.4245 283.35312Q402.362 283.35312 402.862 282.93124Q403.362 282.49374 403.53387 281.44687L404.65887 281.44687ZM412.94012 284.15L411.81512 284.15L407.51825 277.57187L407.51825 284.15L406.37762 284.15L406.37762 275.61874L407.51825 275.61874L411.81512 282.22812L411.81512 275.61874L412.94012 275.61874L412.94012 284.15ZM416.59637 284.15L415.47137 284.15L415.47137 275.61874L416.59637 275.61874L416.59637 284.15Z" fill-rule="nonzero"/><path fill="#757575" d="M435.78998 281.44687Q435.63373 282.79062 434.78998 283.54062Q433.94623 284.275 432.5556 284.275Q431.03998 284.275 430.13373 283.19687Q429.22748 282.10312 429.22748 280.275L429.22748 279.4625Q429.22748 278.275 429.64935 277.36874Q430.07123 276.4625 430.85248 275.97812Q431.63373 275.49374 432.64935 275.49374Q434.00873 275.49374 434.82123 276.25937Q435.64935 277.025 435.78998 278.35312L434.66498 278.35312Q434.50873 277.3375 434.02435 276.88437Q433.53998 276.43124 432.64935 276.43124Q431.57123 276.43124 430.96185 277.22812Q430.35248 278.025 430.35248 279.49374L430.35248 280.32187Q430.35248 281.7125 430.9306 282.54062Q431.50873 283.35312 432.5556 283.35312Q433.4931 283.35312 433.9931 282.93124Q434.4931 282.49374 434.66498 281.44687L435.78998 281.44687ZM444.07123 284.15L442.94623 284.15L438.64935 277.57187L438.64935 284.15L437.50873 284.15L437.50873 275.61874L438.64935 275.61874L442.94623 282.22812L442.94623 275.61874L444.07123 275.61874L444.07123 284.15ZM446.50873 284.15L446.50873 275.61874L449.3056 275.61874Q450.69623 275.61874 451.38373 276.19687Q452.08685 276.75937 452.08685 277.88437Q452.08685 278.49374 451.7431 278.9625Q451.41498 279.41562 450.82123 279.66562Q451.52435 279.85312 451.91498 280.4Q452.32123 280.93124 452.32123 281.68124Q452.32123 282.8375 451.57123 283.49374Q450.83685 284.15 449.47748 284.15L446.50873 284.15ZM447.63373 280.16562L447.63373 283.22812L449.4931 283.22812Q450.28998 283.22812 450.7431 282.82187Q451.19623 282.41562 451.19623 281.69687Q451.19623 280.16562 449.50873 280.16562L447.63373 280.16562ZM447.63373 279.25937L449.33685 279.25937Q450.07123 279.25937 450.50873 278.9Q450.96185 278.525 450.96185 277.88437Q450.96185 277.18124 450.5556 276.86874Q450.14935 276.54062 449.3056 276.54062L447.63373 276.54062L447.63373 279.25937Z" fill-rule="nonzero"/><path fill="#757575" d="M471.92105 281.44687Q471.7648 282.79062 470.92105 283.54062Q470.0773 284.275 468.68668 284.275Q467.17105 284.275 466.2648 283.19687Q465.35855 282.10312 465.35855 280.275L465.35855 279.4625Q465.35855 278.275 465.78043 277.36874Q466.2023 276.4625 466.98355 275.97812Q467.7648 275.49374 468.78043 275.49374Q470.1398 275.49374 470.9523 276.25937Q471.78043 277.025 471.92105 278.35312L470.79605 278.35312Q470.6398 277.3375 470.15543 276.88437Q469.67105 276.43124 468.78043 276.43124Q467.7023 276.43124 467.09293 277.22812Q466.48355 278.025 466.48355 279.49374L466.48355 280.32187Q466.48355 281.7125 467.06168 282.54062Q467.6398 283.35312 468.68668 283.35312Q469.62418 283.35312 470.12418 282.93124Q470.62418 282.49374 470.79605 281.44687L471.92105 281.44687ZM474.85855 284.15L473.73355 284.15L473.73355 275.61874L474.85855 275.61874L474.85855 284.15ZM476.6398 284.15L476.6398 275.61874L479.43668 275.61874Q480.8273 275.61874 481.5148 276.19687Q482.21793 276.75937 482.21793 277.88437Q482.21793 278.49374 481.87418 278.9625Q481.54605 279.41562 480.9523 279.66562Q481.65543 279.85312 482.04605 280.4Q482.4523 280.93124 482.4523 281.68124Q482.4523 282.8375 481.7023 283.49374Q480.96793 284.15 479.60855 284.15L476.6398 284.15ZM477.7648 280.16562L477.7648 283.22812L479.62418 283.22812Q480.42105 283.22812 480.87418 282.82187Q481.3273 282.41562 481.3273 281.69687Q481.3273 280.16562 479.6398 280.16562L477.7648 280.16562ZM477.7648 279.25937L479.46793 279.25937Q480.2023 279.25937 480.6398 278.9Q481.09293 278.525 481.09293 277.88437Q481.09293 277.18124 480.68668 276.86874Q480.28043 276.54062 479.43668 276.54062L477.7648 276.54062L477.7648 279.25937Z" fill-rule="nonzero"/><path fill="#757575" d="M500.55215 281.44687Q500.3959 282.79062 499.55215 283.54062Q498.7084 284.275 497.31778 284.275Q495.80215 284.275 494.8959 283.19687Q493.98965 282.10312 493.98965 280.275L493.98965 279.4625Q493.98965 278.275 494.41153 277.36874Q494.8334 276.4625 495.61465 275.97812Q496.3959 275.49374 497.41153 275.49374Q498.7709 275.49374 499.5834 276.25937Q500.41153 277.025 500.55215 278.35312L499.42715 278.35312Q499.2709 277.3375 498.78653 276.88437Q498.30215 276.43124 497.41153 276.43124Q496.3334 276.43124 495.72403 277.22812Q495.11465 278.025 495.11465 279.49374L495.11465 280.32187Q495.11465 281.7125 495.69278 282.54062Q496.2709 283.35312 497.31778 283.35312Q498.25528 283.35312 498.75528 282.93124Q499.25528 282.49374 499.42715 281.44687L500.55215 281.44687ZM508.8334 284.15L507.7084 284.15L503.41153 277.57187L503.41153 284.15L502.2709 284.15L502.2709 275.61874L503.41153 275.61874L507.7084 282.22812L507.7084 275.61874L508.8334 275.61874L508.8334 284.15ZM512.4896 284.15L511.36465 284.15L511.36465 275.61874L512.4896 275.61874L512.4896 284.15ZM514.2709 284.15L514.2709 275.61874L517.06775 275.61874Q518.4584 275.61874 519.1459 276.19687Q519.849 276.75937 519.849 277.88437Q519.849 278.49374 519.50525 278.9625Q519.1771 279.41562 518.5834 279.66562Q519.2865 279.85312 519.6771 280.4Q520.0834 280.93124 520.0834 281.68124Q520.0834 282.8375 519.3334 283.49374Q518.599 284.15 517.2396 284.15L514.2709 284.15ZM515.3959 280.16562L515.3959 283.22812L517.25525 283.22812Q518.0521 283.22812 518.50525 282.82187Q518.9584 282.41562 518.9584 281.69687Q518.9584 280.16562 517.2709 280.16562L515.3959 280.16562ZM515.3959 279.25937L517.099 279.25937Q517.8334 279.25937 518.2709 278.9Q518.724 278.525 518.724 277.88437Q518.724 277.18124 518.31775 276.86874Q517.9115 276.54062 517.06775 276.54062L515.3959 276.54062L515.3959 279.25937Z" fill-rule="nonzero"/><path fill="#757575" d="M26.35 29.568748L20.38125 29.568748L20.38125 35.85L18.50625 35.85L18.50625 21.631248L27.303125 21.631248L27.303125 23.178123L20.38125 23.178123L20.38125 28.037498L26.35 28.037498L26.35 29.568748ZM28.740625 30.474998Q28.740625 28.912498 29.35 27.678123Q29.959375 26.428123 31.0375 25.756248Q32.13125 25.084373 33.5375 25.084373Q35.69375 25.084373 37.021873 26.584373Q38.365623 28.068748 38.365623 30.553123L38.365623 30.678123Q38.365623 32.225 37.771873 33.459373Q37.178123 34.678123 36.06875 35.365623Q34.975 36.053123 33.553123 36.053123Q31.4125 36.053123 30.06875 34.553123Q28.740625 33.053123 28.740625 30.599998L28.740625 30.474998ZM30.553125 30.678123Q30.553125 32.44375 31.365625 33.50625Q32.19375 34.56875 33.553123 34.56875Q34.928123 34.56875 35.740623 33.490623Q36.553123 32.4125 36.553123 30.474998Q36.553123 28.724998 35.725 27.646873Q34.896873 26.568748 33.5375 26.568748Q32.19375 26.568748 31.365625 27.631248Q30.553125 28.693748 30.553125 30.678123ZM42.178123 35.85L40.38125 35.85L40.38125 20.849998L42.178123 20.849998L42.178123 35.85ZM48.1625 30.959373L47.0375 32.13125L47.0375 35.85L45.225 35.85L45.225 20.849998L47.0375 20.849998L47.0375 29.928123L48.00625 28.756248L51.2875 25.287498L53.490623 25.287498L49.38125 29.693748L53.975 35.85L51.85 35.85L48.1625 30.959373ZM55.584373 37.06875L54.021873 37.06875L59.959373 21.631248L61.50625 21.631248L55.584373 37.06875ZM63.50625 35.85L63.50625 21.631248L67.52187 21.631248Q69.36562 21.631248 70.7875 22.459373Q72.225 23.271873 72.99062 24.787498Q73.77187 26.303123 73.7875 28.256248L73.7875 29.162498Q73.7875 31.178123 73.00625 32.69375Q72.225 34.209373 70.7875 35.021873Q69.35 35.834373 67.44375 35.85L63.50625 35.85ZM65.38125 23.178123L65.38125 34.31875L67.35 34.31875Q69.52187 34.31875 70.725 32.975Q71.92812 31.615623 71.92812 29.131248L71.92812 28.303123Q71.92812 25.881248 70.7875 24.537498Q69.64687 23.193748 67.56875 23.178123L65.38125 23.178123ZM82.74062 34.803123Q81.69375 36.053123 79.64687 36.053123Q77.95937 36.053123 77.06875 35.06875Q76.19375 34.084373 76.17812 32.1625L76.17812 25.287498L77.99062 25.287498L77.99062 32.115623Q77.99062 34.50625 79.94375 34.50625Q82.00625 34.50625 82.69375 32.975L82.69375 25.287498L84.50625 25.287498L84.50625 35.85L82.7875 35.85L82.74062 34.803123ZM92.31875 26.896873Q91.9125 26.834373 91.44375 26.834373Q89.6625 26.834373 89.02187 28.349998L89.02187 35.85L87.225 35.85L87.225 25.287498L88.975 25.287498L89.00625 26.506248Q89.89687 25.084373 91.52187 25.084373Q92.05312 25.084373 92.31875 25.224998L92.31875 26.896873ZM100.74062 35.85Q100.58437 35.5375 100.49062 34.740623Q99.225 36.053123 97.475 36.053123Q95.9125 36.053123 94.9125 35.1625Q93.9125 34.271873 93.9125 32.9125Q93.9125 31.271873 95.1625 30.365623Q96.42812 29.443748 98.69375 29.443748L100.45937 29.443748L100.45937 28.615623Q100.45937 27.662498 99.88125 27.099998Q99.31875 26.537498 98.225 26.537498Q97.25625 26.537498 96.6 27.037498Q95.94375 27.521873 95.94375 28.209373L94.13125 28.209373Q94.13125 27.428123 94.69375 26.693748Q95.25625 25.943748 96.20937 25.521873Q97.17812 25.084373 98.33437 25.084373Q100.1625 25.084373 101.19375 26.006248Q102.225 26.912498 102.27187 28.521873L102.27187 33.38125Q102.27187 34.834373 102.63125 35.69375L102.63125 35.85L100.74062 35.85ZM97.74062 34.475Q98.6 34.475 99.35 34.0375Q100.11562 33.6 100.45937 32.896873L100.45937 30.724998L99.0375 30.724998Q95.725 30.724998 95.725 32.6625Q95.725 33.521873 96.2875 34.00625Q96.85 34.475 97.74062 34.475ZM107.6625 22.724998L107.6625 25.287498L109.64687 25.287498L109.64687 26.678123L107.6625 26.678123L107.6625 33.225Q107.6625 33.865623 107.92812 34.19375Q108.19375 34.50625 108.83437 34.50625Q109.14687 34.50625 109.69375 34.38125L109.69375 35.85Q108.975 36.053123 108.30312 36.053123Q107.1 36.053123 106.475 35.31875Q105.86562 34.584373 105.86562 33.225L105.86562 26.678123L103.94375 26.678123L103.94375 25.287498L105.86562 25.287498L105.86562 22.724998L107.6625 22.724998ZM114.17812 35.85L112.38125 35.85L112.38125 25.287498L114.17812 25.287498L114.17812 35.85ZM112.225 22.474998Q112.225 22.037498 112.49062 21.740623Q112.77187 21.428123 113.2875 21.428123Q113.81875 21.428123 114.08437 21.740623Q114.36562 22.037498 114.36562 22.474998Q114.36562 22.912498 114.08437 23.209373Q113.81875 23.506248 113.2875 23.506248Q112.77187 23.506248 112.49062 23.209373Q112.225 22.912498 112.225 22.474998ZM116.74062 30.474998Q116.74062 28.912498 117.35 27.678123Q117.95937 26.428123 119.0375 25.756248Q120.13125 25.084373 121.5375 25.084373Q123.69375 25.084373 125.02187 26.584373Q126.36562 28.068748 126.36562 30.553123L126.36562 30.678123Q126.36562 32.225 125.77187 33.459373Q125.17812 34.678123 124.06875 35.365623Q122.975 36.053123 121.55312 36.053123Q119.4125 36.053123 118.06875 34.553123Q116.74062 33.053123 116.74062 30.599998L116.74062 30.474998ZM118.55312 30.678123Q118.55312 32.44375 119.36562 33.50625Q120.19375 34.56875 121.55312 34.56875Q122.92812 34.56875 123.74062 33.490623Q124.55312 32.4125 124.55312 30.474998Q124.55312 28.724998 123.725 27.646873Q122.89687 26.568748 121.5375 26.568748Q120.19375 26.568748 119.36562 27.631248Q118.55312 28.693748 118.55312 30.678123ZM129.92813 25.287498L129.99063 26.615623Q131.19376 25.084373 133.14688 25.084373Q136.50626 25.084373 136.52188 28.865623L136.52188 35.85L134.725 35.85L134.725 28.849998Q134.70938 27.709373 134.19376 27.162498Q133.69376 26.615623 132.6 26.615623Q131.725 26.615623 131.05313 27.084373Q130.39688 27.553123 130.02188 28.318748L130.02188 35.85L128.225 35.85L128.225 25.287498L129.92813 25.287498Z" fill-rule="nonzero"/></svg>