<svg version="1.1" viewBox="0.0 0.0 590.0 364.0" fill="none" stroke="none" stroke-linecap="square" stroke-miterlimit="10" width="590" height="364" xmlns:xlink="http://www.w3.org/1999/xlink" xmlns="http://www.w3.org/2000/svg"><path fill="#ffffff" d="M0 0L590.0 0L590.0 364.0L0 364.0L0 0Z" fill-rule="nonzero"/><path stroke="#cccccc" stroke-width="1.0" stroke-linecap="butt" d="M88.5 291.5L571.5 291.5" fill-rule="nonzero"/><path stroke="#cccccc" stroke-width="1.0" stroke-linecap="butt" d="M88.5 215.5L571.5 215.5" fill-rule="nonzero"/><path stroke="#cccccc" stroke-width="1.0" stroke-linecap="butt" d="M88.5 138.5L571.5 138.5" fill-rule="nonzero"/><path stroke="#cccccc" stroke-width="1.0" stroke-linecap="butt" d="M88.5 61.5L571.5 61.5" fill-rule="nonzero"/><clipPath id="id_0"><path d="M88.2 61.833332L571.8 61.833332L571.8 291.8L88.2 291.8L88.2 61.833332Z" clip-rule="nonzero"/></clipPath><path stroke="#000000" stroke-width="0.0" stroke-linecap="butt" stroke-opacity="0.0" clip-path="url(#id_0)" d="M125.0 292.0L101.0 292.0L101.0 78.0C101.0 76.89543 101.89543 76.0 103.0 76.0L123.0 76.0C124.10457 76.0 125.0 76.89543 125.0 78.0Z" fill-rule="nonzero"/><path fill="#4285f4" clip-path="url(#id_0)" d="M125.0 292.0L101.0 292.0L101.0 78.0C101.0 76.89543 101.89543 76.0 103.0 76.0L123.0 76.0C124.10457 76.0 125.0 76.89543 125.0 78.0Z" fill-rule="nonzero"/><path stroke="#000000" stroke-width="0.0" stroke-linecap="butt" stroke-opacity="0.0" clip-path="url(#id_0)" d="M161.0 292.0L137.0 292.0L137.0 160.0C137.0 158.89543 137.89543 158.0 139.0 158.0L159.0 158.0C160.10457 158.0 161.0 158.89543 161.0 160.0Z" fill-rule="nonzero"/><path fill="#4285f4" clip-path="url(#id_0)" d="M161.0 292.0L137.0 292.0L137.0 160.0C137.0 158.89543 137.89543 158.0 139.0 158.0L159.0 158.0C160.10457 158.0 161.0 158.89543 161.0 160.0Z" fill-rule="nonzero"/><path stroke="#000000" stroke-width="0.0" stroke-linecap="butt" stroke-opacity="0.0" clip-path="url(#id_0)" d="M197.0 292.0L173.0 292.0L173.0 131.0C173.0 129.89543 173.89543 129.0 175.0 129.0L195.0 129.0C196.10457 129.0 197.0 129.89543 197.0 131.0Z" fill-rule="nonzero"/><path fill="#4285f4" clip-path="url(#id_0)" d="M197.0 292.0L173.0 292.0L173.0 131.0C173.0 129.89543 173.89543 129.0 175.0 129.0L195.0 129.0C196.10457 129.0 197.0 129.89543 197.0 131.0Z" fill-rule="nonzero"/><path stroke="#000000" stroke-width="0.0" stroke-linecap="butt" stroke-opacity="0.0" clip-path="url(#id_0)" d="M233.0 292.0L209.0 292.0L209.0 126.0C209.0 124.89543 209.89543 124.0 211.0 124.0L231.0 124.0C232.10457 124.0 233.0 124.89543 233.0 126.0Z" fill-rule="nonzero"/><path fill="#4285f4" clip-path="url(#id_0)" d="M233.0 292.0L209.0 292.0L209.0 126.0C209.0 124.89543 209.89543 124.0 211.0 124.0L231.0 124.0C232.10457 124.0 233.0 124.89543 233.0 126.0Z" fill-rule="nonzero"/><path stroke="#000000" stroke-width="0.0" stroke-linecap="butt" stroke-opacity="0.0" clip-path="url(#id_0)" d="M270.0 292.0L246.0 292.0L246.0 159.0C246.0 157.89543 246.89543 157.0 248.0 157.0L268.0 157.0C269.10458 157.0 270.0 157.89543 270.0 159.0Z" fill-rule="nonzero"/><path fill="#4285f4" clip-path="url(#id_0)" d="M270.0 292.0L246.0 292.0L246.0 159.0C246.0 157.89543 246.89543 157.0 248.0 157.0L268.0 157.0C269.10458 157.0 270.0 157.89543 270.0 159.0Z" fill-rule="nonzero"/><path stroke="#000000" stroke-width="0.0" stroke-linecap="butt" stroke-opacity="0.0" clip-path="url(#id_0)" d="M306.0 292.0L282.0 292.0L282.0 186.0C282.0 184.89543 282.89542 184.0 284.0 184.0L304.0 184.0C305.10458 184.0 306.0 184.89543 306.0 186.0Z" fill-rule="nonzero"/><path fill="#4285f4" clip-path="url(#id_0)" d="M306.0 292.0L282.0 292.0L282.0 186.0C282.0 184.89543 282.89542 184.0 284.0 184.0L304.0 184.0C305.10458 184.0 306.0 184.89543 306.0 186.0Z" fill-rule="nonzero"/><path stroke="#000000" stroke-width="0.0" stroke-linecap="butt" stroke-opacity="0.0" clip-path="url(#id_0)" d="M342.0 292.0L318.0 292.0L318.0 137.0C318.0 135.89543 318.89542 135.0 320.0 135.0L340.0 135.0C341.10458 135.0 342.0 135.89543 342.0 137.0Z" fill-rule="nonzero"/><path fill="#4285f4" clip-path="url(#id_0)" d="M342.0 292.0L318.0 292.0L318.0 137.0C318.0 135.89543 318.89542 135.0 320.0 135.0L340.0 135.0C341.10458 135.0 342.0 135.89543 342.0 137.0Z" fill-rule="nonzero"/><path stroke="#000000" stroke-width="0.0" stroke-linecap="butt" stroke-opacity="0.0" clip-path="url(#id_0)" d="M378.0 292.0L354.0 292.0L354.0 185.0C354.0 183.89543 354.89542 183.0 356.0 183.0L376.0 183.0C377.10458 183.0 378.0 183.89543 378.0 185.0Z" fill-rule="nonzero"/><path fill="#4285f4" clip-path="url(#id_0)" d="M378.0 292.0L354.0 292.0L354.0 185.0C354.0 183.89543 354.89542 183.0 356.0 183.0L376.0 183.0C377.10458 183.0 378.0 183.89543 378.0 185.0Z" fill-rule="nonzero"/><path stroke="#000000" stroke-width="0.0" stroke-linecap="butt" stroke-opacity="0.0" clip-path="url(#id_0)" d="M414.0 292.0L390.0 292.0L390.0 160.0C390.0 158.89543 390.89542 158.0 392.0 158.0L412.0 158.0C413.10458 158.0 414.0 158.89543 414.0 160.0Z" fill-rule="nonzero"/><path fill="#4285f4" clip-path="url(#id_0)" d="M414.0 292.0L390.0 292.0L390.0 160.0C390.0 158.89543 390.89542 158.0 392.0 158.0L412.0 158.0C413.10458 158.0 414.0 158.89543 414.0 160.0Z" fill-rule="nonzero"/><path stroke="#000000" stroke-width="0.0" stroke-linecap="butt" stroke-opacity="0.0" clip-path="url(#id_0)" d="M451.0 292.0L427.0 292.0L427.0 197.0C427.0 195.89543 427.89542 195.0 429.0 195.0L449.0 195.0C450.10458 195.0 451.0 195.89543 451.0 197.0Z" fill-rule="nonzero"/><path fill="#4285f4" clip-path="url(#id_0)" d="M451.0 292.0L427.0 292.0L427.0 197.0C427.0 195.89543 427.89542 195.0 429.0 195.0L449.0 195.0C450.10458 195.0 451.0 195.89543 451.0 197.0Z" fill-rule="nonzero"/><path stroke="#000000" stroke-width="0.0" stroke-linecap="butt" stroke-opacity="0.0" clip-path="url(#id_0)" d="M487.0 292.0L463.0 292.0L463.0 187.0C463.0 185.89543 463.89542 185.0 465.0 185.0L485.0 185.0C486.10458 185.0 487.0 185.89543 487.0 187.0Z" fill-rule="nonzero"/><path fill="#4285f4" clip-path="url(#id_0)" d="M487.0 292.0L463.0 292.0L463.0 187.0C463.0 185.89543 463.89542 185.0 465.0 185.0L485.0 185.0C486.10458 185.0 487.0 185.89543 487.0 187.0Z" fill-rule="nonzero"/><path stroke="#000000" stroke-width="0.0" stroke-linecap="butt" stroke-opacity="0.0" clip-path="url(#id_0)" d="M523.0 292.0L499.0 292.0L499.0 219.0C499.0 217.89543 499.89542 217.0 501.0 217.0L521.0 217.0C522.10455 217.0 523.0 217.89543 523.0 219.0Z" fill-rule="nonzero"/><path fill="#4285f4" clip-path="url(#id_0)" d="M523.0 292.0L499.0 292.0L499.0 219.0C499.0 217.89543 499.89542 217.0 501.0 217.0L521.0 217.0C522.10455 217.0 523.0 217.89543 523.0 219.0Z" fill-rule="nonzero"/><path stroke="#000000" stroke-width="0.0" stroke-linecap="butt" stroke-opacity="0.0" clip-path="url(#id_0)" d="M559.0 292.0L535.0 292.0L535.0 224.0C535.0 222.89543 535.89545 222.0 537.0 222.0L557.0 222.0C558.10455 222.0 559.0 222.89543 559.0 224.0Z" fill-rule="nonzero"/><path fill="#4285f4" clip-path="url(#id_0)" d="M559.0 292.0L535.0 292.0L535.0 224.0C535.0 222.89543 535.89545 222.0 537.0 222.0L557.0 222.0C558.10455 222.0 559.0 222.89543 559.0 224.0Z" fill-rule="nonzero"/><path fill="#424242" d="M260.26562 340.09686Q260.10938 341.4406 259.26562 342.1906Q258.42188 342.925 257.03125 342.925Q255.51562 342.925 254.60938 341.84686Q253.70312 340.7531 253.70312 338.925L253.70312 338.1125Q253.70312 336.925 254.125 336.01874Q254.54688 335.1125 255.32812 334.6281Q256.10938 334.14374 257.125 334.14374Q258.48438 334.14374 259.29688 334.90936Q260.125 335.675 260.26562 337.0031L259.14062 337.0031Q258.98438 335.9875 258.5 335.53436Q258.01562 335.08124 257.125 335.08124Q256.04688 335.08124 255.4375 335.8781Q254.82812 336.675 254.82812 338.14374L254.82812 338.97186Q254.82812 340.3625 255.40625 341.1906Q255.98438 342.0031 257.03125 342.0031Q257.96875 342.0031 258.46875 341.58124Q258.96875 341.14374 259.14062 340.09686L260.26562 340.09686ZM261.53125 339.5656Q261.53125 338.64374 261.89062 337.89374Q262.26562 337.14374 262.92188 336.7531Q263.57812 336.34686 264.40625 336.34686Q265.70312 336.34686 266.5 337.2375Q267.3125 338.1281 267.3125 339.6281L267.3125 339.70624Q267.3125 340.6281 266.95312 341.3625Q266.59375 342.09686 265.9375 342.51874Q265.28125 342.925 264.42188 342.925Q263.14062 342.925 262.32812 342.03436Q261.53125 341.1281 261.53125 339.64374L261.53125 339.5656ZM262.625 339.70624Q262.625 340.7531 263.10938 341.39374Q263.60938 342.03436 264.42188 342.03436Q265.25 342.03436 265.73438 341.39374Q266.21875 340.7375 266.21875 339.5656Q266.21875 338.53436 265.71875 337.89374Q265.23438 337.2375 264.40625 337.2375Q263.60938 337.2375 263.10938 337.8781Q262.625 338.5031 262.625 339.70624ZM269.84375 336.45624L269.875 337.2531Q270.60938 336.34686 271.78125 336.34686Q273.79688 336.34686 273.8125 338.6125L273.8125 342.8L272.71875 342.8L272.71875 338.59686Q272.71875 337.925 272.40625 337.59686Q272.10938 337.26874 271.45312 337.26874Q270.92188 337.26874 270.51562 337.55Q270.125 337.83124 269.90625 338.28436L269.90625 342.8L268.82812 342.8L268.82812 336.45624L269.84375 336.45624ZM275.5625 339.58124Q275.5625 338.1125 276.25 337.2375Q276.9375 336.34686 278.0625 336.34686Q279.17188 336.34686 279.82812 337.09686L279.82812 333.8L280.90625 333.8L280.90625 342.8L279.90625 342.8L279.85938 342.1125Q279.20312 342.925 278.04688 342.925Q276.95312 342.925 276.25 342.01874Q275.5625 341.1125 275.5625 339.65936L275.5625 339.58124ZM276.64062 339.70624Q276.64062 340.78436 277.07812 341.39374Q277.53125 342.0031 278.3125 342.0031Q279.34375 342.0031 279.82812 341.0656L279.82812 338.15936Q279.34375 337.26874 278.32812 337.26874Q277.53125 337.26874 277.07812 337.8781Q276.64062 338.4875 276.64062 339.70624ZM284.0 342.8L282.92188 342.8L282.92188 336.45624L284.0 336.45624L284.0 342.8ZM282.82812 334.78436Q282.82812 334.51874 282.98438 334.33124Q283.15625 334.14374 283.46875 334.14374Q283.78125 334.14374 283.9375 334.33124Q284.10938 334.51874 284.10938 334.78436Q284.10938 335.03436 283.9375 335.22186Q283.78125 335.39374 283.46875 335.39374Q283.15625 335.39374 282.98438 335.22186Q282.82812 335.03436 282.82812 334.78436ZM287.29688 334.925L287.29688 336.45624L288.46875 336.45624L288.46875 337.3L287.29688 337.3L287.29688 341.22186Q287.29688 341.6125 287.45312 341.8Q287.60938 341.9875 287.98438 341.9875Q288.17188 341.9875 288.5 341.925L288.5 342.8Q288.07812 342.925 287.67188 342.925Q286.95312 342.925 286.57812 342.4875Q286.20312 342.03436 286.20312 341.22186L286.20312 337.3L285.04688 337.3L285.04688 336.45624L286.20312 336.45624L286.20312 334.925L287.29688 334.925ZM291.0 342.8L289.92188 342.8L289.92188 336.45624L291.0 336.45624L291.0 342.8ZM289.82812 334.78436Q289.82812 334.51874 289.98438 334.33124Q290.15625 334.14374 290.46875 334.14374Q290.78125 334.14374 290.9375 334.33124Q291.10938 334.51874 291.10938 334.78436Q291.10938 335.03436 290.9375 335.22186Q290.78125 335.39374 290.46875 335.39374Q290.15625 335.39374 289.98438 335.22186Q289.82812 335.03436 289.82812 334.78436ZM292.53125 339.5656Q292.53125 338.64374 292.89062 337.89374Q293.26562 337.14374 293.92188 336.7531Q294.57812 336.34686 295.40625 336.34686Q296.70312 336.34686 297.5 337.2375Q298.3125 338.1281 298.3125 339.6281L298.3125 339.70624Q298.3125 340.6281 297.95312 341.3625Q297.59375 342.09686 296.9375 342.51874Q296.28125 342.925 295.42188 342.925Q294.14062 342.925 293.32812 342.03436Q292.53125 341.1281 292.53125 339.64374L292.53125 339.5656ZM293.625 339.70624Q293.625 340.7531 294.10938 341.39374Q294.60938 342.03436 295.42188 342.03436Q296.25 342.03436 296.73438 341.39374Q297.21875 340.7375 297.21875 339.5656Q297.21875 338.53436 296.71875 337.89374Q296.23438 337.2375 295.40625 337.2375Q294.60938 337.2375 294.10938 337.8781Q293.625 338.5031 293.625 339.70624ZM300.84375 336.45624L300.875 337.2531Q301.60938 336.34686 302.78125 336.34686Q304.79688 336.34686 304.8125 338.6125L304.8125 342.8L303.71875 342.8L303.71875 338.59686Q303.71875 337.925 303.40625 337.59686Q303.10938 337.26874 302.45312 337.26874Q301.92188 337.26874 301.51562 337.55Q301.125 337.83124 300.90625 338.28436L300.90625 342.8L299.82812 342.8L299.82812 336.45624L300.84375 336.45624ZM308.0 342.8L306.92188 342.8L306.92188 336.45624L308.0 336.45624L308.0 342.8ZM306.82812 334.78436Q306.82812 334.51874 306.98438 334.33124Q307.15625 334.14374 307.46875 334.14374Q307.78125 334.14374 307.9375 334.33124Q308.10938 334.51874 308.10938 334.78436Q308.10938 335.03436 307.9375 335.22186Q307.78125 335.39374 307.46875 335.39374Q307.15625 335.39374 306.98438 335.22186Q306.82812 335.03436 306.82812 334.78436ZM310.84375 336.45624L310.875 337.2531Q311.60938 336.34686 312.78125 336.34686Q314.79688 336.34686 314.8125 338.6125L314.8125 342.8L313.71875 342.8L313.71875 338.59686Q313.71875 337.925 313.40625 337.59686Q313.10938 337.26874 312.45312 337.26874Q311.92188 337.26874 311.51562 337.55Q311.125 337.83124 310.90625 338.28436L310.90625 342.8L309.82812 342.8L309.82812 336.45624L310.84375 336.45624ZM316.5625 339.58124Q316.5625 338.09686 317.25 337.22186Q317.9375 336.34686 319.0625 336.34686Q320.21875 336.34686 320.875 337.15936L320.92188 336.45624L321.92188 336.45624L321.92188 342.64374Q321.92188 343.8781 321.1875 344.58124Q320.45312 345.3 319.23438 345.3Q318.54688 345.3 317.89062 345.0031Q317.23438 344.70624 316.89062 344.20624L317.45312 343.55Q318.14062 344.40936 319.15625 344.40936Q319.9375 344.40936 320.375 343.95624Q320.82812 343.51874 320.82812 342.70624L320.82812 342.15936Q320.17188 342.925 319.04688 342.925Q317.9375 342.925 317.25 342.03436Q316.5625 341.1281 316.5625 339.58124ZM317.65625 339.70624Q317.65625 340.76874 318.09375 341.39374Q318.53125 342.0031 319.32812 342.0031Q320.34375 342.0031 320.82812 341.0656L320.82812 338.175Q320.32812 337.26874 319.32812 337.26874Q318.54688 337.26874 318.09375 337.8781Q317.65625 338.4875 317.65625 339.70624ZM333.26562 340.09686Q333.10938 341.4406 332.26562 342.1906Q331.42188 342.925 330.03125 342.925Q328.51562 342.925 327.60938 341.84686Q326.70312 340.7531 326.70312 338.925L326.70312 338.1125Q326.70312 336.925 327.125 336.01874Q327.54688 335.1125 328.32812 334.6281Q329.10938 334.14374 330.125 334.14374Q331.48438 334.14374 332.29688 334.90936Q333.125 335.675 333.26562 337.0031L332.14062 337.0031Q331.98438 335.9875 331.5 335.53436Q331.01562 335.08124 330.125 335.08124Q329.04688 335.08124 328.4375 335.8781Q327.82812 336.675 327.82812 338.14374L327.82812 338.97186Q327.82812 340.3625 328.40625 341.1906Q328.98438 342.0031 330.03125 342.0031Q330.96875 342.0031 331.46875 341.58124Q331.96875 341.14374 332.14062 340.09686L333.26562 340.09686ZM334.53125 339.5656Q334.53125 338.64374 334.89062 337.89374Q335.26562 337.14374 335.92188 336.7531Q336.57812 336.34686 337.40625 336.34686Q338.70312 336.34686 339.5 337.2375Q340.3125 338.1281 340.3125 339.6281L340.3125 339.70624Q340.3125 340.6281 339.95312 341.3625Q339.59375 342.09686 338.9375 342.51874Q338.28125 342.925 337.42188 342.925Q336.14062 342.925 335.32812 342.03436Q334.53125 341.1281 334.53125 339.64374L334.53125 339.5656ZM335.625 339.70624Q335.625 340.7531 336.10938 341.39374Q336.60938 342.03436 337.42188 342.03436Q338.25 342.03436 338.73438 341.39374Q339.21875 340.7375 339.21875 339.5656Q339.21875 338.53436 338.71875 337.89374Q338.23438 337.2375 337.40625 337.2375Q336.60938 337.2375 336.10938 337.8781Q335.625 338.5031 335.625 339.70624ZM342.84375 336.45624L342.875 337.2531Q343.60938 336.34686 344.78125 336.34686Q346.79688 336.34686 346.8125 338.6125L346.8125 342.8L345.71875 342.8L345.71875 338.59686Q345.71875 337.925 345.40625 337.59686Q345.10938 337.26874 344.45312 337.26874Q343.92188 337.26874 343.51562 337.55Q343.125 337.83124 342.90625 338.28436L342.90625 342.8L341.82812 342.8L341.82812 336.45624L342.84375 336.45624ZM349.35938 342.8L349.35938 337.3L348.35938 337.3L348.35938 336.45624L349.35938 336.45624L349.35938 335.8156Q349.35938 334.78436 349.89062 334.2375Q350.4375 333.675 351.4375 333.675Q351.8125 333.675 352.1875 333.76874L352.125 334.65936Q351.84375 334.59686 351.54688 334.59686Q351.01562 334.59686 350.71875 334.90936Q350.4375 335.22186 350.4375 335.78436L350.4375 336.45624L351.79688 336.45624L351.79688 337.3L350.4375 337.3L350.4375 342.8L349.35938 342.8ZM354.0 342.8L352.92188 342.8L352.92188 336.45624L354.0 336.45624L354.0 342.8ZM352.82812 334.78436Q352.82812 334.51874 352.98438 334.33124Q353.15625 334.14374 353.46875 334.14374Q353.78125 334.14374 353.9375 334.33124Q354.10938 334.51874 354.10938 334.78436Q354.10938 335.03436 353.9375 335.22186Q353.78125 335.39374 353.46875 335.39374Q353.15625 335.39374 352.98438 335.22186Q352.82812 335.03436 352.82812 334.78436ZM355.5625 339.58124Q355.5625 338.09686 356.25 337.22186Q356.9375 336.34686 358.0625 336.34686Q359.21875 336.34686 359.875 337.15936L359.92188 336.45624L360.92188 336.45624L360.92188 342.64374Q360.92188 343.8781 360.1875 344.58124Q359.45312 345.3 358.23438 345.3Q357.54688 345.3 356.89062 345.0031Q356.23438 344.70624 355.89062 344.20624L356.45312 343.55Q357.14062 344.40936 358.15625 344.40936Q358.9375 344.40936 359.375 343.95624Q359.82812 343.51874 359.82812 342.70624L359.82812 342.15936Q359.17188 342.925 358.04688 342.925Q356.9375 342.925 356.25 342.03436Q355.5625 341.1281 355.5625 339.58124ZM356.65625 339.70624Q356.65625 340.76874 357.09375 341.39374Q357.53125 342.0031 358.32812 342.0031Q359.34375 342.0031 359.82812 341.0656L359.82812 338.175Q359.32812 337.26874 358.32812 337.26874Q357.54688 337.26874 357.09375 337.8781Q356.65625 338.4875 356.65625 339.70624ZM366.73438 342.175Q366.10938 342.925 364.875 342.925Q363.85938 342.925 363.32812 342.33124Q362.79688 341.7375 362.79688 340.58124L362.79688 336.45624L363.875 336.45624L363.875 340.55Q363.875 342.0031 365.04688 342.0031Q366.29688 342.0031 366.70312 341.0656L366.70312 336.45624L367.79688 336.45624L367.79688 342.8L366.76562 342.8L366.73438 342.175ZM372.89062 337.425Q372.64062 337.39374 372.35938 337.39374Q371.28125 337.39374 370.90625 338.3L370.90625 342.8L369.82812 342.8L369.82812 336.45624L370.875 336.45624L370.89062 337.1906Q371.42188 336.34686 372.40625 336.34686Q372.71875 336.34686 372.89062 336.425L372.89062 337.425ZM377.73438 342.8Q377.64062 342.6125 377.57812 342.1281Q376.82812 342.925 375.78125 342.925Q374.84375 342.925 374.23438 342.39374Q373.64062 341.8625 373.64062 341.03436Q373.64062 340.05 374.39062 339.5031Q375.14062 338.95624 376.51562 338.95624L377.5625 338.95624L377.5625 338.45624Q377.5625 337.89374 377.21875 337.5656Q376.89062 337.22186 376.21875 337.22186Q375.64062 337.22186 375.25 337.51874Q374.85938 337.8 374.85938 338.22186L373.76562 338.22186Q373.76562 337.7375 374.09375 337.3Q374.4375 336.8625 375.01562 336.6125Q375.59375 336.34686 376.28125 336.34686Q377.39062 336.34686 378.0 336.89374Q378.625 337.4406 378.65625 338.39374L378.65625 341.3156Q378.65625 342.1906 378.875 342.70624L378.875 342.8L377.73438 342.8ZM375.9375 341.97186Q376.45312 341.97186 376.90625 341.70624Q377.35938 341.4406 377.5625 341.01874L377.5625 339.72186L376.71875 339.72186Q374.71875 339.72186 374.71875 340.89374Q374.71875 341.39374 375.0625 341.6906Q375.40625 341.97186 375.9375 341.97186ZM382.29688 334.925L382.29688 336.45624L383.46875 336.45624L383.46875 337.3L382.29688 337.3L382.29688 341.22186Q382.29688 341.6125 382.45312 341.8Q382.60938 341.9875 382.98438 341.9875Q383.17188 341.9875 383.5 341.925L383.5 342.8Q383.07812 342.925 382.67188 342.925Q381.95312 342.925 381.57812 342.4875Q381.20312 342.03436 381.20312 341.22186L381.20312 337.3L380.04688 337.3L380.04688 336.45624L381.20312 336.45624L381.20312 334.925L382.29688 334.925ZM386.0 342.8L384.92188 342.8L384.92188 336.45624L386.0 336.45624L386.0 342.8ZM384.82812 334.78436Q384.82812 334.51874 384.98438 334.33124Q385.15625 334.14374 385.46875 334.14374Q385.78125 334.14374 385.9375 334.33124Q386.10938 334.51874 386.10938 334.78436Q386.10938 335.03436 385.9375 335.22186Q385.78125 335.39374 385.46875 335.39374Q385.15625 335.39374 384.98438 335.22186Q384.82812 335.03436 384.82812 334.78436ZM387.53125 339.5656Q387.53125 338.64374 387.89062 337.89374Q388.26562 337.14374 388.92188 336.7531Q389.57812 336.34686 390.40625 336.34686Q391.70312 336.34686 392.5 337.2375Q393.3125 338.1281 393.3125 339.6281L393.3125 339.70624Q393.3125 340.6281 392.95312 341.3625Q392.59375 342.09686 391.9375 342.51874Q391.28125 342.925 390.42188 342.925Q389.14062 342.925 388.32812 342.03436Q387.53125 341.1281 387.53125 339.64374L387.53125 339.5656ZM388.625 339.70624Q388.625 340.7531 389.10938 341.39374Q389.60938 342.03436 390.42188 342.03436Q391.25 342.03436 391.73438 341.39374Q392.21875 340.7375 392.21875 339.5656Q392.21875 338.53436 391.71875 337.89374Q391.23438 337.2375 390.40625 337.2375Q389.60938 337.2375 389.10938 337.8781Q388.625 338.5031 388.625 339.70624ZM395.84375 336.45624L395.875 337.2531Q396.60938 336.34686 397.78125 336.34686Q399.79688 336.34686 399.8125 338.6125L399.8125 342.8L398.71875 342.8L398.71875 338.59686Q398.71875 337.925 398.40625 337.59686Q398.10938 337.26874 397.45312 337.26874Q396.92188 337.26874 396.51562 337.55Q396.125 337.83124 395.90625 338.28436L395.90625 342.8L394.82812 342.8L394.82812 336.45624L395.84375 336.45624ZM405.51562 341.1125Q405.51562 340.675 405.17188 340.4406Q404.84375 340.1906 404.01562 340.01874Q403.20312 339.84686 402.71875 339.59686Q402.23438 339.34686 402.0 339.01874Q401.78125 338.675 401.78125 338.20624Q401.78125 337.425 402.4375 336.89374Q403.09375 336.34686 404.125 336.34686Q405.20312 336.34686 405.85938 336.90936Q406.53125 337.45624 406.53125 338.3156L405.45312 338.3156Q405.45312 337.8781 405.0625 337.5656Q404.6875 337.2375 404.125 337.2375Q403.53125 337.2375 403.1875 337.5031Q402.85938 337.7531 402.85938 338.15936Q402.85938 338.55 403.17188 338.7531Q403.48438 338.95624 404.29688 339.14374Q405.10938 339.3156 405.60938 339.5656Q406.10938 339.8156 406.34375 340.175Q406.59375 340.53436 406.59375 341.03436Q406.59375 341.89374 405.90625 342.40936Q405.23438 342.925 404.15625 342.925Q403.39062 342.925 402.79688 342.65936Q402.21875 342.3781 401.89062 341.89374Q401.5625 341.40936 401.5625 340.84686L402.64062 340.84686Q402.67188 341.39374 403.07812 341.72186Q403.48438 342.03436 404.15625 342.03436Q404.76562 342.03436 405.14062 341.78436Q405.51562 341.53436 405.51562 341.1125Z" fill-rule="nonzero"/><path fill="#424242" d="M28.699987 219.75417L21.668737 217.31667L21.668737 216.08229L30.199987 219.25417L30.199987 220.23854L21.668737 223.39479L21.668737 222.17604L28.699987 219.75417ZM30.199987 210.83229Q30.012487 210.92604 29.528112 210.98854Q30.324987 211.73854 30.324987 212.78542Q30.324987 213.72292 29.793737 214.33229Q29.262487 214.92604 28.434362 214.92604Q27.449987 214.92604 26.903112 214.17604Q26.356237 213.42604 26.356237 212.05104L26.356237 211.00417L25.856237 211.00417Q25.293737 211.00417 24.965612 211.34792Q24.621862 211.67604 24.621862 212.34792Q24.621862 212.92604 24.918737 213.31667Q25.199987 213.70729 25.621862 213.70729L25.621862 214.80104Q25.137487 214.80104 24.699987 214.47292Q24.262487 214.12917 24.012487 213.55104Q23.746862 212.97292 23.746862 212.28542Q23.746862 211.17604 24.293737 210.56667Q24.840612 209.94167 25.793737 209.91042L28.715612 209.91042Q29.590612 209.91042 30.106237 209.69167L30.199987 209.69167L30.199987 210.83229ZM29.371862 212.62917Q29.371862 212.11354 29.106237 211.66042Q28.840612 211.20729 28.418737 211.00417L27.121862 211.00417L27.121862 211.84792Q27.121862 213.84792 28.293737 213.84792Q28.793737 213.84792 29.090612 213.50417Q29.371862 213.16042 29.371862 212.62917ZM30.199987 206.56667L30.199987 207.64479L21.199987 207.64479L21.199987 206.56667L30.199987 206.56667ZM30.199987 203.56667L30.199987 204.64479L23.856237 204.64479L23.856237 203.56667L30.199987 203.56667ZM22.184362 204.73854Q21.918737 204.73854 21.731237 204.58229Q21.543737 204.41042 21.543737 204.09792Q21.543737 203.78542 21.731237 203.62917Q21.918737 203.45729 22.184362 203.45729Q22.434362 203.45729 22.621862 203.62917Q22.793737 203.78542 22.793737 204.09792Q22.793737 204.41042 22.621862 204.58229Q22.434362 204.73854 22.184362 204.73854ZM26.981237 202.00417Q25.512487 202.00417 24.637487 201.31667Q23.746862 200.62917 23.746862 199.50417Q23.746862 198.39479 24.496862 197.73854L21.199987 197.73854L21.199987 196.66042L30.199987 196.66042L30.199987 197.66042L29.512487 197.70729Q30.324987 198.36354 30.324987 199.51979Q30.324987 200.61354 29.418737 201.31667Q28.512487 202.00417 27.059362 202.00417L26.981237 202.00417ZM27.106237 200.92604Q28.184362 200.92604 28.793737 200.48854Q29.403112 200.03542 29.403112 199.25417Q29.403112 198.22292 28.465612 197.73854L25.559362 197.73854Q24.668737 198.22292 24.668737 199.23854Q24.668737 200.03542 25.278112 200.48854Q25.887487 200.92604 27.106237 200.92604ZM30.199987 190.83229Q30.012487 190.92604 29.528112 190.98854Q30.324987 191.73854 30.324987 192.78542Q30.324987 193.72292 29.793737 194.33229Q29.262487 194.92604 28.434362 194.92604Q27.449987 194.92604 26.903112 194.17604Q26.356237 193.42604 26.356237 192.05104L26.356237 191.00417L25.856237 191.00417Q25.293737 191.00417 24.965612 191.34792Q24.621862 191.67604 24.621862 192.34792Q24.621862 192.92604 24.918737 193.31667Q25.199987 193.70729 25.621862 193.70729L25.621862 194.80104Q25.137487 194.80104 24.699987 194.47292Q24.262487 194.12917 24.012487 193.55104Q23.746862 192.97292 23.746862 192.28542Q23.746862 191.17604 24.293737 190.56667Q24.840612 189.94167 25.793737 189.91042L28.715612 189.91042Q29.590612 189.91042 30.106237 189.69167L30.199987 189.69167L30.199987 190.83229ZM29.371862 192.62917Q29.371862 192.11354 29.106237 191.66042Q28.840612 191.20729 28.418737 191.00417L27.121862 191.00417L27.121862 191.84792Q27.121862 193.84792 28.293737 193.84792Q28.793737 193.84792 29.090612 193.50417Q29.371862 193.16042 29.371862 192.62917ZM22.324987 186.26979L23.856237 186.26979L23.856237 185.09792L24.699987 185.09792L24.699987 186.26979L28.621862 186.26979Q29.012487 186.26979 29.199987 186.11354Q29.387487 185.95729 29.387487 185.58229Q29.387487 185.39479 29.324987 185.06667L30.199987 185.06667Q30.324987 185.48854 30.324987 185.89479Q30.324987 186.61354 29.887487 186.98854Q29.434362 187.36354 28.621862 187.36354L24.699987 187.36354L24.699987 188.51979L23.856237 188.51979L23.856237 187.36354L22.324987 187.36354L22.324987 186.26979ZM30.199987 182.56667L30.199987 183.64479L23.856237 183.64479L23.856237 182.56667L30.199987 182.56667ZM22.184362 183.73854Q21.918737 183.73854 21.731237 183.58229Q21.543737 183.41042 21.543737 183.09792Q21.543737 182.78542 21.731237 182.62917Q21.918737 182.45729 22.184362 182.45729Q22.434362 182.45729 22.621862 182.62917Q22.793737 182.78542 22.793737 183.09792Q22.793737 183.41042 22.621862 183.58229Q22.434362 183.73854 22.184362 183.73854ZM26.965612 181.03542Q26.043737 181.03542 25.293737 180.67604Q24.543737 180.30104 24.153112 179.64479Q23.746862 178.98854 23.746862 178.16042Q23.746862 176.86354 24.637487 176.06667Q25.528112 175.25417 27.028112 175.25417L27.106237 175.25417Q28.028112 175.25417 28.762487 175.61354Q29.496862 175.97292 29.918737 176.62917Q30.324987 177.28542 30.324987 178.14479Q30.324987 179.42604 29.434362 180.23854Q28.528112 181.03542 27.043737 181.03542L26.965612 181.03542ZM27.106237 179.94167Q28.153112 179.94167 28.793737 179.45729Q29.434362 178.95729 29.434362 178.14479Q29.434362 177.31667 28.793737 176.83229Q28.137487 176.34792 26.965612 176.34792Q25.934362 176.34792 25.293737 176.84792Q24.637487 177.33229 24.637487 178.16042Q24.637487 178.95729 25.278112 179.45729Q25.903112 179.94167 27.106237 179.94167ZM23.856237 172.72292L24.653112 172.69167Q23.746862 171.95729 23.746862 170.78542Q23.746862 168.76979 26.012487 168.75417L30.199987 168.75417L30.199987 169.84792L25.996862 169.84792Q25.324987 169.84792 24.996862 170.16042Q24.668737 170.45729 24.668737 171.11354Q24.668737 171.64479 24.949987 172.05104Q25.231237 172.44167 25.684362 172.66042L30.199987 172.66042L30.199987 173.73854L23.856237 173.73854L23.856237 172.72292ZM30.199987 157.01979L30.199987 158.14479L23.621862 162.44167L30.199987 162.44167L30.199987 163.58229L21.668737 163.58229L21.668737 162.44167L28.278112 158.14479L21.668737 158.14479L21.668737 157.01979L30.199987 157.01979ZM29.278112 153.44167L29.278112 149.39479L30.199987 149.39479L30.199987 154.58229L21.668737 154.58229L21.668737 153.44167L29.278112 153.44167ZM29.278112 147.44167L29.278112 143.39479L30.199987 143.39479L30.199987 148.58229L21.668737 148.58229L21.668737 147.44167L29.278112 147.44167Z" fill-rule="nonzero"/><path fill="#757575" d="M57.2625 292.65936Q57.2625 294.5656 56.60625 295.5031Q55.965626 296.425 54.575 296.425Q53.215626 296.425 52.559376 295.51874Q51.903126 294.6125 51.871876 292.8L51.871876 291.3625Q51.871876 289.47186 52.5125 288.5656Q53.16875 287.64374 54.559376 287.64374Q55.934376 287.64374 56.590626 288.53436Q57.246876 289.40936 57.2625 291.2531L57.2625 292.65936ZM56.16875 291.175Q56.16875 289.8 55.778126 289.175Q55.403126 288.53436 54.559376 288.53436Q53.73125 288.53436 53.340626 289.175Q52.965626 289.8 52.965626 291.09686L52.965626 292.83124Q52.965626 294.20624 53.35625 294.8781Q53.7625 295.53436 54.575 295.53436Q55.371876 295.53436 55.7625 294.90936Q56.153126 294.28436 56.16875 292.95624L56.16875 291.175ZM59.04375 295.7375Q59.04375 295.45624 59.2 295.26874Q59.371876 295.08124 59.7 295.08124Q60.04375 295.08124 60.215626 295.26874Q60.3875 295.45624 60.3875 295.7375Q60.3875 296.0031 60.215626 296.1906Q60.04375 296.3625 59.7 296.3625Q59.371876 296.3625 59.2 296.1906Q59.04375 296.0031 59.04375 295.7375ZM65.46562 296.3L64.3875 296.3L64.3875 289.08124L62.2 289.8781L62.2 288.89374L65.30937 287.72186L65.46562 287.72186L65.46562 296.3ZM74.2625 292.65936Q74.2625 294.5656 73.60625 295.5031Q72.96562 296.425 71.575 296.425Q70.21562 296.425 69.55937 295.51874Q68.90312 294.6125 68.87187 292.8L68.87187 291.3625Q68.87187 289.47186 69.5125 288.5656Q70.16875 287.64374 71.55937 287.64374Q72.93437 287.64374 73.59062 288.53436Q74.24687 289.40936 74.2625 291.2531L74.2625 292.65936ZM73.16875 291.175Q73.16875 289.8 72.77812 289.175Q72.40312 288.53436 71.55937 288.53436Q70.73125 288.53436 70.34062 289.175Q69.96562 289.8 69.96562 291.09686L69.96562 292.83124Q69.96562 294.20624 70.35625 294.8781Q70.7625 295.53436 71.575 295.53436Q72.37187 295.53436 72.7625 294.90936Q73.15312 294.28436 73.16875 292.95624L73.16875 291.175ZM81.2625 292.65936Q81.2625 294.5656 80.60625 295.5031Q79.96562 296.425 78.575 296.425Q77.21562 296.425 76.55937 295.51874Q75.90312 294.6125 75.87187 292.8L75.87187 291.3625Q75.87187 289.47186 76.5125 288.5656Q77.16875 287.64374 78.55937 287.64374Q79.93437 287.64374 80.59062 288.53436Q81.24687 289.40936 81.2625 291.2531L81.2625 292.65936ZM80.16875 291.175Q80.16875 289.8 79.77812 289.175Q79.40312 288.53436 78.55937 288.53436Q77.73125 288.53436 77.34062 289.175Q76.96562 289.8 76.96562 291.09686L76.96562 292.83124Q76.96562 294.20624 77.35625 294.8781Q77.7625 295.53436 78.575 295.53436Q79.37187 295.53436 79.7625 294.90936Q80.15312 294.28436 80.16875 292.95624L80.16875 291.175Z" fill-rule="nonzero"/><path fill="#757575" d="M57.2625 216.00381Q57.2625 217.91006 56.60625 218.84756Q55.965626 219.76944 54.575 219.76944Q53.215626 219.76944 52.559376 218.86319Q51.903126 217.95694 51.871876 216.14444L51.871876 214.70694Q51.871876 212.81631 52.5125 211.91006Q53.16875 210.98819 54.559376 210.98819Q55.934376 210.98819 56.590626 211.87881Q57.246876 212.75381 57.2625 214.59756L57.2625 216.00381ZM56.16875 214.51944Q56.16875 213.14444 55.778126 212.51944Q55.403126 211.87881 54.559376 211.87881Q53.73125 211.87881 53.340626 212.51944Q52.965626 213.14444 52.965626 214.44131L52.965626 216.17569Q52.965626 217.55069 53.35625 218.22256Q53.7625 218.87881 54.575 218.87881Q55.371876 218.87881 55.7625 218.25381Q56.153126 217.62881 56.16875 216.30069L56.16875 214.51944ZM59.04375 219.08194Q59.04375 218.80069 59.2 218.61319Q59.371876 218.42569 59.7 218.42569Q60.04375 218.42569 60.215626 218.61319Q60.3875 218.80069 60.3875 219.08194Q60.3875 219.34756 60.215626 219.53506Q60.04375 219.70694 59.7 219.70694Q59.371876 219.70694 59.2 219.53506Q59.04375 219.34756 59.04375 219.08194ZM67.49687 219.64444L61.903126 219.64444L61.903126 218.86319L64.85625 215.58194Q65.5125 214.83194 65.7625 214.37881Q66.0125 213.91006 66.0125 213.41006Q66.0125 212.73819 65.60625 212.31631Q65.21562 211.87881 64.52812 211.87881Q63.73125 211.87881 63.278126 212.34756Q62.825 212.80069 62.825 213.62881L61.746876 213.62881Q61.746876 212.44131 62.496876 211.72256Q63.2625 210.98819 64.52812 210.98819Q65.73125 210.98819 66.41875 211.61319Q67.10625 212.23819 67.10625 213.28506Q67.10625 214.53506 65.49687 216.28506L63.215626 218.75381L67.49687 218.75381L67.49687 219.64444ZM74.2625 216.00381Q74.2625 217.91006 73.60625 218.84756Q72.96562 219.76944 71.575 219.76944Q70.21562 219.76944 69.55937 218.86319Q68.90312 217.95694 68.87187 216.14444L68.87187 214.70694Q68.87187 212.81631 69.5125 211.91006Q70.16875 210.98819 71.55937 210.98819Q72.93437 210.98819 73.59062 211.87881Q74.24687 212.75381 74.2625 214.59756L74.2625 216.00381ZM73.16875 214.51944Q73.16875 213.14444 72.77812 212.51944Q72.40312 211.87881 71.55937 211.87881Q70.73125 211.87881 70.34062 212.51944Q69.96562 213.14444 69.96562 214.44131L69.96562 216.17569Q69.96562 217.55069 70.35625 218.22256Q70.7625 218.87881 71.575 218.87881Q72.37187 218.87881 72.7625 218.25381Q73.15312 217.62881 73.16875 216.30069L73.16875 214.51944ZM81.2625 216.00381Q81.2625 217.91006 80.60625 218.84756Q79.96562 219.76944 78.575 219.76944Q77.21562 219.76944 76.55937 218.86319Q75.90312 217.95694 75.87187 216.14444L75.87187 214.70694Q75.87187 212.81631 76.5125 211.91006Q77.16875 210.98819 78.55937 210.98819Q79.93437 210.98819 80.59062 211.87881Q81.24687 212.75381 81.2625 214.59756L81.2625 216.00381ZM80.16875 214.51944Q80.16875 213.14444 79.77812 212.51944Q79.40312 211.87881 78.55937 211.87881Q77.73125 211.87881 77.34062 212.51944Q76.96562 213.14444 76.96562 214.44131L76.96562 216.17569Q76.96562 217.55069 77.35625 218.22256Q77.7625 218.87881 78.575 218.87881Q79.37187 218.87881 79.7625 218.25381Q80.15312 217.62881 80.16875 216.30069L80.16875 214.51944Z" fill-rule="nonzero"/><path fill="#757575" d="M57.2625 139.34827Q57.2625 141.25452 56.60625 142.19202Q55.965626 143.11389 54.575 143.11389Q53.215626 143.11389 52.559376 142.20764Q51.903126 141.30139 51.871876 139.48889L51.871876 138.05139Q51.871876 136.16077 52.5125 135.25452Q53.16875 134.33264 54.559376 134.33264Q55.934376 134.33264 56.590626 135.22327Q57.246876 136.09827 57.2625 137.94202L57.2625 139.34827ZM56.16875 137.86389Q56.16875 136.48889 55.778126 135.86389Q55.403126 135.22327 54.559376 135.22327Q53.73125 135.22327 53.340626 135.86389Q52.965626 136.48889 52.965626 137.78577L52.965626 139.52014Q52.965626 140.89514 53.35625 141.56702Q53.7625 142.22327 54.575 142.22327Q55.371876 142.22327 55.7625 141.59827Q56.153126 140.97327 56.16875 139.64514L56.16875 137.86389ZM59.04375 142.42639Q59.04375 142.14514 59.2 141.95764Q59.371876 141.77014 59.7 141.77014Q60.04375 141.77014 60.215626 141.95764Q60.3875 142.14514 60.3875 142.42639Q60.3875 142.69202 60.215626 142.87952Q60.04375 143.05139 59.7 143.05139Q59.371876 143.05139 59.2 142.87952Q59.04375 142.69202 59.04375 142.42639ZM63.48125 138.19202L64.29375 138.19202Q65.075 138.17639 65.5125 137.78577Q65.95 137.39514 65.95 136.72327Q65.95 135.22327 64.45 135.22327Q63.746876 135.22327 63.325 135.62952Q62.91875 136.03577 62.91875 136.69202L61.825 136.69202Q61.825 135.67639 62.559376 135.00452Q63.309376 134.33264 64.45 134.33264Q65.65312 134.33264 66.34062 134.97327Q67.02812 135.61389 67.02812 136.75452Q67.02812 137.31702 66.66875 137.83264Q66.30937 138.34827 65.68437 138.61389Q66.3875 138.83264 66.7625 139.34827Q67.15312 139.86389 67.15312 140.61389Q67.15312 141.75452 66.40312 142.44202Q65.65312 143.11389 64.45 143.11389Q63.2625 143.11389 62.496876 142.45764Q61.746876 141.80139 61.746876 140.73889L62.840626 140.73889Q62.840626 141.41077 63.278126 141.81702Q63.715626 142.22327 64.46562 142.22327Q65.24687 142.22327 65.65312 141.81702Q66.075 141.39514 66.075 140.62952Q66.075 139.89514 65.62187 139.50452Q65.16875 139.09827 64.29375 139.08264L63.48125 139.08264L63.48125 138.19202ZM74.2625 139.34827Q74.2625 141.25452 73.60625 142.19202Q72.96562 143.11389 71.575 143.11389Q70.21562 143.11389 69.55937 142.20764Q68.90312 141.30139 68.87187 139.48889L68.87187 138.05139Q68.87187 136.16077 69.5125 135.25452Q70.16875 134.33264 71.55937 134.33264Q72.93437 134.33264 73.59062 135.22327Q74.24687 136.09827 74.2625 137.94202L74.2625 139.34827ZM73.16875 137.86389Q73.16875 136.48889 72.77812 135.86389Q72.40312 135.22327 71.55937 135.22327Q70.73125 135.22327 70.34062 135.86389Q69.96562 136.48889 69.96562 137.78577L69.96562 139.52014Q69.96562 140.89514 70.35625 141.56702Q70.7625 142.22327 71.575 142.22327Q72.37187 142.22327 72.7625 141.59827Q73.15312 140.97327 73.16875 139.64514L73.16875 137.86389ZM81.2625 139.34827Q81.2625 141.25452 80.60625 142.19202Q79.96562 143.11389 78.575 143.11389Q77.21562 143.11389 76.55937 142.20764Q75.90312 141.30139 75.87187 139.48889L75.87187 138.05139Q75.87187 136.16077 76.5125 135.25452Q77.16875 134.33264 78.55937 134.33264Q79.93437 134.33264 80.59062 135.22327Q81.24687 136.09827 81.2625 137.94202L81.2625 139.34827ZM80.16875 137.86389Q80.16875 136.48889 79.77812 135.86389Q79.40312 135.22327 78.55937 135.22327Q77.73125 135.22327 77.34062 135.86389Q76.96562 136.48889 76.96562 137.78577L76.96562 139.52014Q76.96562 140.89514 77.35625 141.56702Q77.7625 142.22327 78.575 142.22327Q79.37187 142.22327 79.7625 141.59827Q80.15312 140.97327 80.16875 139.64514L80.16875 137.86389Z" fill-rule="nonzero"/><path fill="#757575" d="M57.2625 62.69271Q57.2625 64.59896 56.60625 65.53646Q55.965626 66.458336 54.575 66.458336Q53.215626 66.458336 52.559376 65.552086Q51.903126 64.645836 51.871876 62.833336L51.871876 61.395836Q51.871876 59.50521 52.5125 58.59896Q53.16875 57.677086 54.559376 57.677086Q55.934376 57.677086 56.590626 58.56771Q57.246876 59.44271 57.2625 61.28646L57.2625 62.69271ZM56.16875 61.208336Q56.16875 59.833336 55.778126 59.208336Q55.403126 58.56771 54.559376 58.56771Q53.73125 58.56771 53.340626 59.208336Q52.965626 59.833336 52.965626 61.13021L52.965626 62.864586Q52.965626 64.239586 53.35625 64.91146Q53.7625 65.56771 54.575 65.56771Q55.371876 65.56771 55.7625 64.94271Q56.153126 64.31771 56.16875 62.989586L56.16875 61.208336ZM59.04375 65.770836Q59.04375 65.489586 59.2 65.302086Q59.371876 65.114586 59.7 65.114586Q60.04375 65.114586 60.215626 65.302086Q60.3875 65.489586 60.3875 65.770836Q60.3875 66.03646 60.215626 66.22396Q60.04375 66.395836 59.7 66.395836Q59.371876 66.395836 59.2 66.22396Q59.04375 66.03646 59.04375 65.770836ZM66.48125 63.47396L67.66875 63.47396L67.66875 64.34896L66.48125 64.34896L66.48125 66.333336L65.40312 66.333336L65.40312 64.34896L61.5125 64.34896L61.5125 63.708336L65.325 57.802086L66.48125 57.802086L66.48125 63.47396ZM62.746876 63.47396L65.40312 63.47396L65.40312 59.28646L65.2625 59.520836L62.746876 63.47396ZM74.2625 62.69271Q74.2625 64.59896 73.60625 65.53646Q72.96562 66.458336 71.575 66.458336Q70.21562 66.458336 69.55937 65.552086Q68.90312 64.645836 68.87187 62.833336L68.87187 61.395836Q68.87187 59.50521 69.5125 58.59896Q70.16875 57.677086 71.55937 57.677086Q72.93437 57.677086 73.59062 58.56771Q74.24687 59.44271 74.2625 61.28646L74.2625 62.69271ZM73.16875 61.208336Q73.16875 59.833336 72.77812 59.208336Q72.40312 58.56771 71.55937 58.56771Q70.73125 58.56771 70.34062 59.208336Q69.96562 59.833336 69.96562 61.13021L69.96562 62.864586Q69.96562 64.239586 70.35625 64.91146Q70.7625 65.56771 71.575 65.56771Q72.37187 65.56771 72.7625 64.94271Q73.15312 64.31771 73.16875 62.989586L73.16875 61.208336ZM81.2625 62.69271Q81.2625 64.59896 80.60625 65.53646Q79.96562 66.458336 78.575 66.458336Q77.21562 66.458336 76.55937 65.552086Q75.90312 64.645836 75.87187 62.833336L75.87187 61.395836Q75.87187 59.50521 76.5125 58.59896Q77.16875 57.677086 78.55937 57.677086Q79.93437 57.677086 80.59062 58.56771Q81.24687 59.44271 81.2625 61.28646L81.2625 62.69271ZM80.16875 61.208336Q80.16875 59.833336 79.77812 59.208336Q79.40312 58.56771 78.55937 58.56771Q77.73125 58.56771 77.34062 59.208336Q76.96562 59.833336 76.96562 61.13021L76.96562 62.864586Q76.96562 64.239586 77.35625 64.91146Q77.7625 65.56771 78.575 65.56771Q79.37187 65.56771 79.7625 64.94271Q80.15312 64.31771 80.16875 62.989586L80.16875 61.208336Z" fill-rule="nonzero"/><path fill="#757575" d="M96.19856 309.8L95.07356 309.8L90.77669 303.22186L90.77669 309.8L89.63606 309.8L89.63606 301.26874L90.77669 301.26874L95.07356 307.8781L95.07356 301.26874L96.19856 301.26874L96.19856 309.8ZM98.18294 306.5656Q98.18294 305.64374 98.54231 304.89374Q98.91731 304.14374 99.57356 303.7531Q100.22981 303.34686 101.05794 303.34686Q102.35481 303.34686 103.15169 304.2375Q103.96419 305.1281 103.96419 306.6281L103.96419 306.70624Q103.96419 307.6281 103.60481 308.3625Q103.24544 309.09686 102.58919 309.51874Q101.93294 309.925 101.07356 309.925Q99.79231 309.925 98.97981 309.03436Q98.18294 308.1281 98.18294 306.64374L98.18294 306.5656ZM99.27669 306.70624Q99.27669 307.7531 99.76106 308.39374Q100.26106 309.03436 101.07356 309.03436Q101.90169 309.03436 102.38606 308.39374Q102.87044 307.7375 102.87044 306.5656Q102.87044 305.53436 102.37044 304.89374Q101.88606 304.2375 101.05794 304.2375Q100.26106 304.2375 99.76106 304.8781Q99.27669 305.5031 99.27669 306.70624ZM107.72981 306.6125L104.87044 306.6125L104.87044 305.7375L107.72981 305.7375L107.72981 306.6125ZM114.91731 307.09686Q114.76106 308.4406 113.91731 309.1906Q113.07356 309.925 111.68294 309.925Q110.16731 309.925 109.26106 308.84686Q108.35481 307.7531 108.35481 305.925L108.35481 305.1125Q108.35481 303.925 108.77669 303.01874Q109.19856 302.1125 109.97981 301.6281Q110.76106 301.14374 111.77669 301.14374Q113.13606 301.14374 113.94856 301.90936Q114.77669 302.675 114.91731 304.0031L113.79231 304.0031Q113.63606 302.9875 113.15169 302.53436Q112.66731 302.08124 111.77669 302.08124Q110.69856 302.08124 110.08919 302.8781Q109.47981 303.675 109.47981 305.14374L109.47981 305.97186Q109.47981 307.3625 110.05794 308.1906Q110.63606 309.0031 111.68294 309.0031Q112.62044 309.0031 113.12044 308.58124Q113.62044 308.14374 113.79231 307.09686L114.91731 307.09686ZM116.18294 306.5656Q116.18294 305.64374 116.54231 304.89374Q116.91731 304.14374 117.57356 303.7531Q118.22981 303.34686 119.05794 303.34686Q120.35481 303.34686 121.15169 304.2375Q121.96419 305.1281 121.96419 306.6281L121.96419 306.70624Q121.96419 307.6281 121.60481 308.3625Q121.24544 309.09686 120.58919 309.51874Q119.93294 309.925 119.07356 309.925Q117.79231 309.925 116.97981 309.03436Q116.18294 308.1281 116.18294 306.64374L116.18294 306.5656ZM117.27669 306.70624Q117.27669 307.7531 117.76106 308.39374Q118.26106 309.03436 119.07356 309.03436Q119.90169 309.03436 120.38606 308.39374Q120.87044 307.7375 120.87044 306.5656Q120.87044 305.53436 120.37044 304.89374Q119.88606 304.2375 119.05794 304.2375Q118.26106 304.2375 117.76106 304.8781Q117.27669 305.5031 117.27669 306.70624ZM124.49544 303.45624L124.52669 304.2531Q125.26106 303.34686 126.43294 303.34686Q128.44856 303.34686 128.46419 305.6125L128.46419 309.8L127.37044 309.8L127.37044 305.59686Q127.37044 304.925 127.05794 304.59686Q126.76106 304.26874 126.10481 304.26874Q125.57356 304.26874 125.16731 304.55Q124.77669 304.83124 124.55794 305.28436L124.55794 309.8L123.47981 309.8L123.47981 303.45624L124.49544 303.45624ZM130.21419 306.58124Q130.21419 305.1125 130.90169 304.2375Q131.58919 303.34686 132.71419 303.34686Q133.82356 303.34686 134.47981 304.09686L134.47981 300.8L135.55794 300.8L135.55794 309.8L134.55794 309.8L134.51106 309.1125Q133.85481 309.925 132.69856 309.925Q131.60481 309.925 130.90169 309.01874Q130.21419 308.1125 130.21419 306.65936L130.21419 306.58124ZM131.29231 306.70624Q131.29231 307.78436 131.72981 308.39374Q132.18294 309.0031 132.96419 309.0031Q133.99544 309.0031 134.47981 308.0656L134.47981 305.15936Q133.99544 304.26874 132.97981 304.26874Q132.18294 304.26874 131.72981 304.8781Q131.29231 305.4875 131.29231 306.70624Z" fill-rule="nonzero"/><path fill="#757575" d="M149.57953 309.8L148.45453 309.8L148.45453 301.26874L149.57953 301.26874L149.57953 309.8Z" fill-rule="nonzero"/><path fill="#757575" d="M188.36674 307.09686Q188.2105 308.4406 187.36674 309.1906Q186.523 309.925 185.13237 309.925Q183.61674 309.925 182.7105 308.84686Q181.80424 307.7531 181.80424 305.925L181.80424 305.1125Q181.80424 303.925 182.22612 303.01874Q182.648 302.1125 183.42924 301.6281Q184.2105 301.14374 185.22612 301.14374Q186.5855 301.14374 187.398 301.90936Q188.22612 302.675 188.36674 304.0031L187.24174 304.0031Q187.0855 302.9875 186.60112 302.53436Q186.11674 302.08124 185.22612 302.08124Q184.148 302.08124 183.53862 302.8781Q182.92924 303.675 182.92924 305.14374L182.92924 305.97186Q182.92924 307.3625 183.50737 308.1906Q184.0855 309.0031 185.13237 309.0031Q186.06987 309.0031 186.56987 308.58124Q187.06987 308.14374 187.24174 307.09686L188.36674 307.09686Z" fill-rule="nonzero"/><path fill="#757575" d="M224.37271 309.8L223.24771 309.8L218.95084 303.22186L218.95084 309.8L217.81021 309.8L217.81021 301.26874L218.95084 301.26874L223.24771 307.8781L223.24771 301.26874L224.37271 301.26874L224.37271 309.8Z" fill-rule="nonzero"/><path fill="#757575" d="M255.03494 309.8L255.03494 301.26874L257.83182 301.26874Q259.22244 301.26874 259.90994 301.84686Q260.61307 302.40936 260.61307 303.53436Q260.61307 304.14374 260.26932 304.6125Q259.9412 305.0656 259.34744 305.3156Q260.05057 305.5031 260.4412 306.05Q260.84744 306.58124 260.84744 307.33124Q260.84744 308.4875 260.09744 309.14374Q259.36307 309.8 258.0037 309.8L255.03494 309.8ZM256.15994 305.8156L256.15994 308.8781L258.01932 308.8781Q258.8162 308.8781 259.26932 308.47186Q259.72244 308.0656 259.72244 307.34686Q259.72244 305.8156 258.03494 305.8156L256.15994 305.8156ZM256.15994 304.90936L257.86307 304.90936Q258.59744 304.90936 259.03494 304.55Q259.48807 304.175 259.48807 303.53436Q259.48807 302.83124 259.08182 302.51874Q258.67557 302.1906 257.83182 302.1906L256.15994 302.1906L256.15994 304.90936Z" fill-rule="nonzero"/><path fill="#757575" d="M295.5409 307.09686Q295.38464 308.4406 294.5409 309.1906Q293.69714 309.925 292.30652 309.925Q290.7909 309.925 289.88464 308.84686Q288.9784 307.7531 288.9784 305.925L288.9784 305.1125Q288.9784 303.925 289.40027 303.01874Q289.82214 302.1125 290.6034 301.6281Q291.38464 301.14374 292.40027 301.14374Q293.75964 301.14374 294.57214 301.90936Q295.40027 302.675 295.5409 304.0031L294.4159 304.0031Q294.25964 302.9875 293.77527 302.53436Q293.2909 302.08124 292.40027 302.08124Q291.32214 302.08124 290.71277 302.8781Q290.1034 303.675 290.1034 305.14374L290.1034 305.97186Q290.1034 307.3625 290.68152 308.1906Q291.25964 309.0031 292.30652 309.0031Q293.24402 309.0031 293.74402 308.58124Q294.24402 308.14374 294.4159 307.09686L295.5409 307.09686ZM298.4784 309.8L297.3534 309.8L297.3534 301.26874L298.4784 301.26874L298.4784 309.8Z" fill-rule="nonzero"/><path fill="#757575" d="M328.76562 307.09686Q328.60938 308.4406 327.76562 309.1906Q326.92188 309.925 325.53125 309.925Q324.01562 309.925 323.10938 308.84686Q322.20312 307.7531 322.20312 305.925L322.20312 305.1125Q322.20312 303.925 322.625 303.01874Q323.04688 302.1125 323.82812 301.6281Q324.60938 301.14374 325.625 301.14374Q326.98438 301.14374 327.79688 301.90936Q328.625 302.675 328.76562 304.0031L327.64062 304.0031Q327.48438 302.9875 327.0 302.53436Q326.51562 302.08124 325.625 302.08124Q324.54688 302.08124 323.9375 302.8781Q323.32812 303.675 323.32812 305.14374L323.32812 305.97186Q323.32812 307.3625 323.90625 308.1906Q324.48438 309.0031 325.53125 309.0031Q326.46875 309.0031 326.96875 308.58124Q327.46875 308.14374 327.64062 307.09686L328.76562 307.09686ZM337.04688 309.8L335.92188 309.8L331.625 303.22186L331.625 309.8L330.48438 309.8L330.48438 301.26874L331.625 301.26874L335.92188 307.8781L335.92188 301.26874L337.04688 301.26874L337.04688 309.8Z" fill-rule="nonzero"/><path fill="#757575" d="M365.99036 307.09686Q365.8341 308.4406 364.99036 309.1906Q364.1466 309.925 362.75598 309.925Q361.24036 309.925 360.3341 308.84686Q359.42786 307.7531 359.42786 305.925L359.42786 305.1125Q359.42786 303.925 359.84973 303.01874Q360.2716 302.1125 361.05286 301.6281Q361.8341 301.14374 362.84973 301.14374Q364.2091 301.14374 365.0216 301.90936Q365.84973 302.675 365.99036 304.0031L364.86536 304.0031Q364.7091 302.9875 364.22473 302.53436Q363.74036 302.08124 362.84973 302.08124Q361.7716 302.08124 361.16223 302.8781Q360.55286 303.675 360.55286 305.14374L360.55286 305.97186Q360.55286 307.3625 361.13098 308.1906Q361.7091 309.0031 362.75598 309.0031Q363.69348 309.0031 364.19348 308.58124Q364.69348 308.14374 364.86536 307.09686L365.99036 307.09686ZM367.7091 309.8L367.7091 301.26874L370.50598 301.26874Q371.8966 301.26874 372.5841 301.84686Q373.28723 302.40936 373.28723 303.53436Q373.28723 304.14374 372.94348 304.6125Q372.61536 305.0656 372.0216 305.3156Q372.72473 305.5031 373.11536 306.05Q373.5216 306.58124 373.5216 307.33124Q373.5216 308.4875 372.7716 309.14374Q372.03723 309.8 370.67786 309.8L367.7091 309.8ZM368.8341 305.8156L368.8341 308.8781L370.69348 308.8781Q371.49036 308.8781 371.94348 308.47186Q372.3966 308.0656 372.3966 307.34686Q372.3966 305.8156 370.7091 305.8156L368.8341 305.8156ZM368.8341 304.90936L370.53723 304.90936Q371.2716 304.90936 371.7091 304.55Q372.16223 304.175 372.16223 303.53436Q372.16223 302.83124 371.75598 302.51874Q371.34973 302.1906 370.50598 302.1906L368.8341 302.1906L368.8341 304.90936Z" fill-rule="nonzero"/><path fill="#757575" d="M399.65256 309.8L398.52756 309.8L398.52756 301.26874L399.65256 301.26874L399.65256 309.8ZM401.4338 309.8L401.4338 301.26874L404.23068 301.26874Q405.6213 301.26874 406.3088 301.84686Q407.01193 302.40936 407.01193 303.53436Q407.01193 304.14374 406.66818 304.6125Q406.34006 305.0656 405.7463 305.3156Q406.44943 305.5031 406.84006 306.05Q407.2463 306.58124 407.2463 307.33124Q407.2463 308.4875 406.4963 309.14374Q405.76193 309.8 404.40256 309.8L401.4338 309.8ZM402.5588 305.8156L402.5588 308.8781L404.41818 308.8781Q405.21506 308.8781 405.66818 308.47186Q406.1213 308.0656 406.1213 307.34686Q406.1213 305.8156 404.4338 305.8156L402.5588 305.8156ZM402.5588 304.90936L404.26193 304.90936Q404.9963 304.90936 405.4338 304.55Q405.88693 304.175 405.88693 303.53436Q405.88693 302.83124 405.48068 302.51874Q405.07443 302.1906 404.23068 302.1906L402.5588 302.1906L402.5588 304.90936Z" fill-rule="nonzero"/><path fill="#757575" d="M435.9398 307.09686Q435.78354 308.4406 434.9398 309.1906Q434.09604 309.925 432.7054 309.925Q431.1898 309.925 430.28354 308.84686Q429.3773 307.7531 429.3773 305.925L429.3773 305.1125Q429.3773 303.925 429.79916 303.01874Q430.22104 302.1125 431.0023 301.6281Q431.78354 301.14374 432.79916 301.14374Q434.15854 301.14374 434.97104 301.90936Q435.79916 302.675 435.9398 304.0031L434.8148 304.0031Q434.65854 302.9875 434.17416 302.53436Q433.6898 302.08124 432.79916 302.08124Q431.72104 302.08124 431.11166 302.8781Q430.5023 303.675 430.5023 305.14374L430.5023 305.97186Q430.5023 307.3625 431.0804 308.1906Q431.65854 309.0031 432.7054 309.0031Q433.6429 309.0031 434.1429 308.58124Q434.6429 308.14374 434.8148 307.09686L435.9398 307.09686ZM444.22104 309.8L443.09604 309.8L438.79916 303.22186L438.79916 309.8L437.65854 309.8L437.65854 301.26874L438.79916 301.26874L443.09604 307.8781L443.09604 301.26874L444.22104 301.26874L444.22104 309.8ZM447.8773 309.8L446.7523 309.8L446.7523 301.26874L447.8773 301.26874L447.8773 309.8Z" fill-rule="nonzero"/><path fill="#757575" d="M470.1645 307.09686Q470.00824 308.4406 469.1645 309.1906Q468.32074 309.925 466.9301 309.925Q465.4145 309.925 464.50824 308.84686Q463.602 307.7531 463.602 305.925L463.602 305.1125Q463.602 303.925 464.02386 303.01874Q464.44574 302.1125 465.227 301.6281Q466.00824 301.14374 467.02386 301.14374Q468.38324 301.14374 469.19574 301.90936Q470.02386 302.675 470.1645 304.0031L469.0395 304.0031Q468.88324 302.9875 468.39886 302.53436Q467.9145 302.08124 467.02386 302.08124Q465.94574 302.08124 465.33636 302.8781Q464.727 303.675 464.727 305.14374L464.727 305.97186Q464.727 307.3625 465.3051 308.1906Q465.88324 309.0031 466.9301 309.0031Q467.8676 309.0031 468.3676 308.58124Q468.8676 308.14374 469.0395 307.09686L470.1645 307.09686ZM478.44574 309.8L477.32074 309.8L473.02386 303.22186L473.02386 309.8L471.88324 309.8L471.88324 301.26874L473.02386 301.26874L477.32074 307.8781L477.32074 301.26874L478.44574 301.26874L478.44574 309.8ZM480.88324 309.8L480.88324 301.26874L483.6801 301.26874Q485.07074 301.26874 485.75824 301.84686Q486.46136 302.40936 486.46136 303.53436Q486.46136 304.14374 486.1176 304.6125Q485.7895 305.0656 485.19574 305.3156Q485.89886 305.5031 486.2895 306.05Q486.69574 306.58124 486.69574 307.33124Q486.69574 308.4875 485.94574 309.14374Q485.21136 309.8 483.852 309.8L480.88324 309.8ZM482.00824 305.8156L482.00824 308.8781L483.8676 308.8781Q484.6645 308.8781 485.1176 308.47186Q485.57074 308.0656 485.57074 307.34686Q485.57074 305.8156 483.88324 305.8156L482.00824 305.8156ZM482.00824 304.90936L483.71136 304.90936Q484.44574 304.90936 484.88324 304.55Q485.33636 304.175 485.33636 303.53436Q485.33636 302.83124 484.9301 302.51874Q484.52386 302.1906 483.6801 302.1906L482.00824 302.1906L482.00824 304.90936Z" fill-rule="nonzero"/><path fill="#757575" d="M509.38922 307.09686Q509.23297 308.4406 508.38922 309.1906Q507.54547 309.925 506.15485 309.925Q504.63922 309.925 503.73297 308.84686Q502.82672 307.7531 502.82672 305.925L502.82672 305.1125Q502.82672 303.925 503.2486 303.01874Q503.67047 302.1125 504.45172 301.6281Q505.23297 301.14374 506.2486 301.14374Q507.60797 301.14374 508.42047 301.90936Q509.2486 302.675 509.38922 304.0031L508.26422 304.0031Q508.10797 302.9875 507.6236 302.53436Q507.13922 302.08124 506.2486 302.08124Q505.17047 302.08124 504.5611 302.8781Q503.95172 303.675 503.95172 305.14374L503.95172 305.97186Q503.95172 307.3625 504.52985 308.1906Q505.10797 309.0031 506.15485 309.0031Q507.09235 309.0031 507.59235 308.58124Q508.09235 308.14374 508.26422 307.09686L509.38922 307.09686ZM512.3267 309.8L511.20172 309.8L511.20172 301.26874L512.3267 301.26874L512.3267 309.8ZM514.108 309.8L514.108 301.26874L516.90485 301.26874Q518.2955 301.26874 518.983 301.84686Q519.6861 302.40936 519.6861 303.53436Q519.6861 304.14374 519.34235 304.6125Q519.0142 305.0656 518.4205 305.3156Q519.1236 305.5031 519.5142 306.05Q519.9205 306.58124 519.9205 307.33124Q519.9205 308.4875 519.1705 309.14374Q518.4361 309.8 517.0767 309.8L514.108 309.8ZM515.233 305.8156L515.233 308.8781L517.09235 308.8781Q517.8892 308.8781 518.34235 308.47186Q518.7955 308.0656 518.7955 307.34686Q518.7955 305.8156 517.108 305.8156L515.233 305.8156ZM515.233 304.90936L516.9361 304.90936Q517.6705 304.90936 518.108 304.55Q518.5611 304.175 518.5611 303.53436Q518.5611 302.83124 518.15485 302.51874Q517.7486 302.1906 516.90485 302.1906L515.233 302.1906L515.233 304.90936Z" fill-rule="nonzero"/><path fill="#757575" d="M541.11395 307.09686Q540.9577 308.4406 540.11395 309.1906Q539.2702 309.925 537.8796 309.925Q536.36395 309.925 535.4577 308.84686Q534.55145 307.7531 534.55145 305.925L534.55145 305.1125Q534.55145 303.925 534.9733 303.01874Q535.3952 302.1125 536.17645 301.6281Q536.9577 301.14374 537.9733 301.14374Q539.3327 301.14374 540.1452 301.90936Q540.9733 302.675 541.11395 304.0031L539.98895 304.0031Q539.8327 302.9875 539.3483 302.53436Q538.86395 302.08124 537.9733 302.08124Q536.8952 302.08124 536.2858 302.8781Q535.67645 303.675 535.67645 305.14374L535.67645 305.97186Q535.67645 307.3625 536.2546 308.1906Q536.8327 309.0031 537.8796 309.0031Q538.8171 309.0031 539.3171 308.58124Q539.8171 308.14374 539.98895 307.09686L541.11395 307.09686ZM549.3952 309.8L548.2702 309.8L543.9733 303.22186L543.9733 309.8L542.8327 309.8L542.8327 301.26874L543.9733 301.26874L548.2702 307.8781L548.2702 301.26874L549.3952 301.26874L549.3952 309.8ZM553.05145 309.8L551.92645 309.8L551.92645 301.26874L553.05145 301.26874L553.05145 309.8ZM554.8327 309.8L554.8327 301.26874L557.6296 301.26874Q559.0202 301.26874 559.7077 301.84686Q560.4108 302.40936 560.4108 303.53436Q560.4108 304.14374 560.0671 304.6125Q559.73895 305.0656 559.1452 305.3156Q559.8483 305.5031 560.23895 306.05Q560.6452 306.58124 560.6452 307.33124Q560.6452 308.4875 559.8952 309.14374Q559.1608 309.8 557.80145 309.8L554.8327 309.8ZM555.9577 305.8156L555.9577 308.8781L557.8171 308.8781Q558.61395 308.8781 559.0671 308.47186Q559.5202 308.0656 559.5202 307.34686Q559.5202 305.8156 557.8327 305.8156L555.9577 305.8156ZM555.9577 304.90936L557.6608 304.90936Q558.3952 304.90936 558.8327 304.55Q559.2858 304.175 559.2858 303.53436Q559.2858 302.83124 558.8796 302.51874Q558.4733 302.1906 557.6296 302.1906L555.9577 302.1906L555.9577 304.90936Z" fill-rule="nonzero"/><path fill="#757575" d="M25.809376 22.98125L27.7 22.98125L27.7 33.04375Q27.7 35.090626 26.465626 36.246876Q25.246876 37.403126 23.2 37.403126Q21.075 37.403126 19.8875 36.325Q18.715626 35.23125 18.715626 33.278126L20.590626 33.278126Q20.590626 34.496876 21.2625 35.184376Q21.934376 35.85625 23.2 35.85625Q24.35625 35.85625 25.075 35.1375Q25.79375 34.403126 25.809376 33.075L25.809376 22.98125ZM37.090626 37.2Q36.934376 36.8875 36.840626 36.090626Q35.575 37.403126 33.825 37.403126Q32.2625 37.403126 31.2625 36.5125Q30.2625 35.621876 30.2625 34.2625Q30.2625 32.621876 31.5125 31.715626Q32.778126 30.79375 35.04375 30.79375L36.809376 30.79375L36.809376 29.965626Q36.809376 29.0125 36.23125 28.45Q35.66875 27.8875 34.575 27.8875Q33.60625 27.8875 32.95 28.3875Q32.29375 28.871876 32.29375 29.559376L30.48125 29.559376Q30.48125 28.778126 31.04375 28.04375Q31.60625 27.29375 32.559376 26.871876Q33.528126 26.434376 34.684376 26.434376Q36.5125 26.434376 37.54375 27.35625Q38.575 28.2625 38.621876 29.871876L38.621876 34.73125Q38.621876 36.184376 38.98125 37.04375L38.98125 37.2L37.090626 37.2ZM34.090626 35.825Q34.95 35.825 35.7 35.3875Q36.465626 34.95 36.809376 34.246876L36.809376 32.075L35.3875 32.075Q32.075 32.075 32.075 34.0125Q32.075 34.871876 32.6375 35.35625Q33.2 35.825 34.090626 35.825ZM43.2625 35.73125L49.45 35.73125L49.45 37.2L41.059376 37.2L41.059376 35.871876L46.8875 28.121876L41.153126 28.121876L41.153126 26.6375L49.153126 26.6375L49.153126 27.91875L43.2625 35.73125ZM53.2625 35.73125L59.45 35.73125L59.45 37.2L51.059376 37.2L51.059376 35.871876L56.8875 28.121876L51.153126 28.121876L51.153126 26.6375L59.153126 26.6375L59.153126 27.91875L53.2625 35.73125ZM61.934376 38.41875L60.371876 38.41875L66.30937 22.98125L67.85625 22.98125L61.934376 38.41875ZM71.73125 31.6375L71.73125 37.2L69.85625 37.2L69.85625 22.98125L75.09062 22.98125Q77.43437 22.98125 78.74687 24.16875Q80.075 25.35625 80.075 27.325Q80.075 29.403126 78.77812 30.528126Q77.48125 31.6375 75.075 31.6375L71.73125 31.6375ZM71.73125 30.10625L75.09062 30.10625Q76.60625 30.10625 77.40312 29.403126Q78.2 28.684376 78.2 27.340626Q78.2 26.075 77.40312 25.325Q76.60625 24.559376 75.2 24.528126L71.73125 24.528126L71.73125 30.10625ZM84.52812 37.2L82.73125 37.2L82.73125 26.6375L84.52812 26.6375L84.52812 37.2ZM82.575 23.825Q82.575 23.3875 82.84062 23.090626Q83.12187 22.778126 83.6375 22.778126Q84.16875 22.778126 84.43437 23.090626Q84.71562 23.3875 84.71562 23.825Q84.71562 24.2625 84.43437 24.559376Q84.16875 24.85625 83.6375 24.85625Q83.12187 24.85625 82.84062 24.559376Q82.575 24.2625 82.575 23.825ZM90.0125 24.075L90.0125 26.6375L91.99687 26.6375L91.99687 28.028126L90.0125 28.028126L90.0125 34.575Q90.0125 35.215626 90.27812 35.54375Q90.54375 35.85625 91.18437 35.85625Q91.49687 35.85625 92.04375 35.73125L92.04375 37.2Q91.325 37.403126 90.65312 37.403126Q89.45 37.403126 88.825 36.66875Q88.21562 35.934376 88.21562 34.575L88.21562 28.028126L86.29375 28.028126L86.29375 26.6375L88.21562 26.6375L88.21562 24.075L90.0125 24.075ZM98.80937 35.91875Q99.77812 35.91875 100.49687 35.340626Q101.21562 34.746876 101.29375 33.871876L103.0125 33.871876Q102.95 34.778126 102.37187 35.60625Q101.80937 36.41875 100.84062 36.91875Q99.8875 37.403126 98.80937 37.403126Q96.65312 37.403126 95.37187 35.965626Q94.10625 34.5125 94.10625 32.0125L94.10625 31.715626Q94.10625 30.16875 94.66875 28.965626Q95.23125 27.7625 96.29375 27.10625Q97.35625 26.434376 98.79375 26.434376Q100.575 26.434376 101.74687 27.496876Q102.93437 28.559376 103.0125 30.2625L101.29375 30.2625Q101.21562 29.246876 100.5125 28.590626Q99.825 27.91875 98.79375 27.91875Q97.41875 27.91875 96.65312 28.91875Q95.90312 29.903126 95.90312 31.778126L95.90312 32.121876Q95.90312 33.95 96.65312 34.934376Q97.40312 35.91875 98.80937 35.91875ZM106.37187 27.91875Q107.575 26.434376 109.49687 26.434376Q112.85625 26.434376 112.87187 30.215626L112.87187 37.2L111.075 37.2L111.075 30.2Q111.05937 29.059376 110.54375 28.5125Q110.04375 27.965626 108.95 27.965626Q108.075 27.965626 107.40312 28.434376Q106.74687 28.903126 106.37187 29.66875L106.37187 37.2L104.575 37.2L104.575 22.2L106.37187 22.2L106.37187 27.91875Z" fill-rule="nonzero"/></svg>