<svg version="1.1" viewBox="0.0 0.0 554.0 342.0" fill="none" stroke="none" stroke-linecap="square" stroke-miterlimit="10" width="554" height="342" xmlns:xlink="http://www.w3.org/1999/xlink" xmlns="http://www.w3.org/2000/svg"><path fill="#ffffff" d="M0 0L554.0 0L554.0 342.0L0 342.0L0 0Z" fill-rule="nonzero"/><path stroke="#cccccc" stroke-width="1.0" stroke-linecap="butt" d="M87.5 270.5L536.5 270.5" fill-rule="nonzero"/><path stroke="#cccccc" stroke-width="1.0" stroke-linecap="butt" d="M87.5 200.5L536.5 200.5" fill-rule="nonzero"/><path stroke="#cccccc" stroke-width="1.0" stroke-linecap="butt" d="M87.5 130.5L536.5 130.5" fill-rule="nonzero"/><path stroke="#cccccc" stroke-width="1.0" stroke-linecap="butt" d="M87.5 60.5L536.5 60.5" fill-rule="nonzero"/><clipPath id="id_0"><path d="M87.1 60.0L536.9 60.0L536.9 270.9L87.1 270.9L87.1 60.0Z" clip-rule="nonzero"/></clipPath><path stroke="#000000" stroke-width="0.0" stroke-linecap="butt" stroke-opacity="0.0" clip-path="url(#id_0)" d="M121.0 271.0L99.0 271.0L99.0 81.0C99.0 79.89543 99.89543 79.0 101.0 79.0L119.0 79.0C120.10457 79.0 121.0 79.89543 121.0 81.0Z" fill-rule="nonzero"/><path fill="#4285f4" clip-path="url(#id_0)" d="M121.0 271.0L99.0 271.0L99.0 81.0C99.0 79.89543 99.89543 79.0 101.0 79.0L119.0 79.0C120.10457 79.0 121.0 79.89543 121.0 81.0Z" fill-rule="nonzero"/><path stroke="#000000" stroke-width="0.0" stroke-linecap="butt" stroke-opacity="0.0" clip-path="url(#id_0)" d="M155.0 271.0L133.0 271.0L133.0 130.0C133.0 128.89543 133.89543 128.0 135.0 128.0L153.0 128.0C154.10457 128.0 155.0 128.89543 155.0 130.0Z" fill-rule="nonzero"/><path fill="#4285f4" clip-path="url(#id_0)" d="M155.0 271.0L133.0 271.0L133.0 130.0C133.0 128.89543 133.89543 128.0 135.0 128.0L153.0 128.0C154.10457 128.0 155.0 128.89543 155.0 130.0Z" fill-rule="nonzero"/><path stroke="#000000" stroke-width="0.0" stroke-linecap="butt" stroke-opacity="0.0" clip-path="url(#id_0)" d="M188.0 271.0L166.0 271.0L166.0 120.0C166.0 118.89543 166.89543 118.0 168.0 118.0L186.0 118.0C187.10457 118.0 188.0 118.89543 188.0 120.0Z" fill-rule="nonzero"/><path fill="#4285f4" clip-path="url(#id_0)" d="M188.0 271.0L166.0 271.0L166.0 120.0C166.0 118.89543 166.89543 118.0 168.0 118.0L186.0 118.0C187.10457 118.0 188.0 118.89543 188.0 120.0Z" fill-rule="nonzero"/><path stroke="#000000" stroke-width="0.0" stroke-linecap="butt" stroke-opacity="0.0" clip-path="url(#id_0)" d="M222.0 271.0L200.0 271.0L200.0 119.0C200.0 117.89543 200.89543 117.0 202.0 117.0L220.0 117.0C221.10457 117.0 222.0 117.89543 222.0 119.0Z" fill-rule="nonzero"/><path fill="#4285f4" clip-path="url(#id_0)" d="M222.0 271.0L200.0 271.0L200.0 119.0C200.0 117.89543 200.89543 117.0 202.0 117.0L220.0 117.0C221.10457 117.0 222.0 117.89543 222.0 119.0Z" fill-rule="nonzero"/><path stroke="#000000" stroke-width="0.0" stroke-linecap="butt" stroke-opacity="0.0" clip-path="url(#id_0)" d="M256.0 271.0L234.0 271.0L234.0 149.0C234.0 147.89543 234.89543 147.0 236.0 147.0L254.0 147.0C255.10457 147.0 256.0 147.89543 256.0 149.0Z" fill-rule="nonzero"/><path fill="#4285f4" clip-path="url(#id_0)" d="M256.0 271.0L234.0 271.0L234.0 149.0C234.0 147.89543 234.89543 147.0 236.0 147.0L254.0 147.0C255.10457 147.0 256.0 147.89543 256.0 149.0Z" fill-rule="nonzero"/><path stroke="#000000" stroke-width="0.0" stroke-linecap="butt" stroke-opacity="0.0" clip-path="url(#id_0)" d="M289.0 271.0L267.0 271.0L267.0 158.0C267.0 156.89543 267.89542 156.0 269.0 156.0L287.0 156.0C288.10458 156.0 289.0 156.89543 289.0 158.0Z" fill-rule="nonzero"/><path fill="#4285f4" clip-path="url(#id_0)" d="M289.0 271.0L267.0 271.0L267.0 158.0C267.0 156.89543 267.89542 156.0 269.0 156.0L287.0 156.0C288.10458 156.0 289.0 156.89543 289.0 158.0Z" fill-rule="nonzero"/><path stroke="#000000" stroke-width="0.0" stroke-linecap="butt" stroke-opacity="0.0" clip-path="url(#id_0)" d="M323.0 271.0L301.0 271.0L301.0 123.0C301.0 121.89543 301.89542 121.0 303.0 121.0L321.0 121.0C322.10458 121.0 323.0 121.89543 323.0 123.0Z" fill-rule="nonzero"/><path fill="#4285f4" clip-path="url(#id_0)" d="M323.0 271.0L301.0 271.0L301.0 123.0C301.0 121.89543 301.89542 121.0 303.0 121.0L321.0 121.0C322.10458 121.0 323.0 121.89543 323.0 123.0Z" fill-rule="nonzero"/><path stroke="#000000" stroke-width="0.0" stroke-linecap="butt" stroke-opacity="0.0" clip-path="url(#id_0)" d="M357.0 271.0L335.0 271.0L335.0 174.0C335.0 172.89543 335.89542 172.0 337.0 172.0L355.0 172.0C356.10458 172.0 357.0 172.89543 357.0 174.0Z" fill-rule="nonzero"/><path fill="#4285f4" clip-path="url(#id_0)" d="M357.0 271.0L335.0 271.0L335.0 174.0C335.0 172.89543 335.89542 172.0 337.0 172.0L355.0 172.0C356.10458 172.0 357.0 172.89543 357.0 174.0Z" fill-rule="nonzero"/><path stroke="#000000" stroke-width="0.0" stroke-linecap="butt" stroke-opacity="0.0" clip-path="url(#id_0)" d="M390.0 271.0L368.0 271.0L368.0 128.0C368.0 126.89543 368.89542 126.0 370.0 126.0L388.0 126.0C389.10458 126.0 390.0 126.89543 390.0 128.0Z" fill-rule="nonzero"/><path fill="#4285f4" clip-path="url(#id_0)" d="M390.0 271.0L368.0 271.0L368.0 128.0C368.0 126.89543 368.89542 126.0 370.0 126.0L388.0 126.0C389.10458 126.0 390.0 126.89543 390.0 128.0Z" fill-rule="nonzero"/><path stroke="#000000" stroke-width="0.0" stroke-linecap="butt" stroke-opacity="0.0" clip-path="url(#id_0)" d="M424.0 271.0L402.0 271.0L402.0 169.0C402.0 167.89543 402.89542 167.0 404.0 167.0L422.0 167.0C423.10458 167.0 424.0 167.89543 424.0 169.0Z" fill-rule="nonzero"/><path fill="#4285f4" clip-path="url(#id_0)" d="M424.0 271.0L402.0 271.0L402.0 169.0C402.0 167.89543 402.89542 167.0 404.0 167.0L422.0 167.0C423.10458 167.0 424.0 167.89543 424.0 169.0Z" fill-rule="nonzero"/><path stroke="#000000" stroke-width="0.0" stroke-linecap="butt" stroke-opacity="0.0" clip-path="url(#id_0)" d="M458.0 271.0L436.0 271.0L436.0 194.0C436.0 192.89543 436.89542 192.0 438.0 192.0L456.0 192.0C457.10458 192.0 458.0 192.89543 458.0 194.0Z" fill-rule="nonzero"/><path fill="#4285f4" clip-path="url(#id_0)" d="M458.0 271.0L436.0 271.0L436.0 194.0C436.0 192.89543 436.89542 192.0 438.0 192.0L456.0 192.0C457.10458 192.0 458.0 192.89543 458.0 194.0Z" fill-rule="nonzero"/><path stroke="#000000" stroke-width="0.0" stroke-linecap="butt" stroke-opacity="0.0" clip-path="url(#id_0)" d="M491.0 271.0L469.0 271.0L469.0 191.0C469.0 189.89543 469.89542 189.0 471.0 189.0L489.0 189.0C490.10458 189.0 491.0 189.89543 491.0 191.0Z" fill-rule="nonzero"/><path fill="#4285f4" clip-path="url(#id_0)" d="M491.0 271.0L469.0 271.0L469.0 191.0C469.0 189.89543 469.89542 189.0 471.0 189.0L489.0 189.0C490.10458 189.0 491.0 189.89543 491.0 191.0Z" fill-rule="nonzero"/><path stroke="#000000" stroke-width="0.0" stroke-linecap="butt" stroke-opacity="0.0" clip-path="url(#id_0)" d="M525.0 271.0L503.0 271.0L503.0 198.0C503.0 196.89543 503.89542 196.0 505.0 196.0L523.0 196.0C524.10455 196.0 525.0 196.89543 525.0 198.0Z" fill-rule="nonzero"/><path fill="#4285f4" clip-path="url(#id_0)" d="M525.0 271.0L503.0 271.0L503.0 198.0C503.0 196.89543 503.89542 196.0 505.0 196.0L523.0 196.0C524.10455 196.0 525.0 196.89543 525.0 198.0Z" fill-rule="nonzero"/><path fill="#424242" d="M242.26562 319.19687Q242.10938 320.54062 241.26562 321.29062Q240.42188 322.025 239.03125 322.025Q237.51562 322.025 236.60938 320.94687Q235.70312 319.85312 235.70312 318.025L235.70312 317.2125Q235.70312 316.025 236.125 315.11874Q236.54688 314.2125 237.32812 313.72812Q238.10938 313.24374 239.125 313.24374Q240.48438 313.24374 241.29688 314.00937Q242.125 314.775 242.26562 316.10312L241.14062 316.10312Q240.98438 315.0875 240.5 314.63437Q240.01562 314.18124 239.125 314.18124Q238.04688 314.18124 237.4375 314.97812Q236.82812 315.775 236.82812 317.24374L236.82812 318.07187Q236.82812 319.4625 237.40625 320.29062Q237.98438 321.10312 239.03125 321.10312Q239.96875 321.10312 240.46875 320.68124Q240.96875 320.24374 241.14062 319.19687L242.26562 319.19687ZM243.53125 318.66562Q243.53125 317.74374 243.89062 316.99374Q244.26562 316.24374 244.92188 315.85312Q245.57812 315.44687 246.40625 315.44687Q247.70312 315.44687 248.5 316.3375Q249.3125 317.22812 249.3125 318.72812L249.3125 318.80624Q249.3125 319.72812 248.95312 320.4625Q248.59375 321.19687 247.9375 321.61874Q247.28125 322.025 246.42188 322.025Q245.14062 322.025 244.32812 321.13437Q243.53125 320.22812 243.53125 318.74374L243.53125 318.66562ZM244.625 318.80624Q244.625 319.85312 245.10938 320.49374Q245.60938 321.13437 246.42188 321.13437Q247.25 321.13437 247.73438 320.49374Q248.21875 319.8375 248.21875 318.66562Q248.21875 317.63437 247.71875 316.99374Q247.23438 316.3375 246.40625 316.3375Q245.60938 316.3375 245.10938 316.97812Q244.625 317.60312 244.625 318.80624ZM251.84375 315.55624L251.875 316.35312Q252.60938 315.44687 253.78125 315.44687Q255.79688 315.44687 255.8125 317.7125L255.8125 321.9L254.71875 321.9L254.71875 317.69687Q254.71875 317.025 254.40625 316.69687Q254.10938 316.36874 253.45312 316.36874Q252.92188 316.36874 252.51562 316.65Q252.125 316.93124 251.90625 317.38437L251.90625 321.9L250.82812 321.9L250.82812 315.55624L251.84375 315.55624ZM257.5625 318.68124Q257.5625 317.2125 258.25 316.3375Q258.9375 315.44687 260.0625 315.44687Q261.17188 315.44687 261.82812 316.19687L261.82812 312.9L262.90625 312.9L262.90625 321.9L261.90625 321.9L261.85938 321.2125Q261.20312 322.025 260.04688 322.025Q258.95312 322.025 258.25 321.11874Q257.5625 320.2125 257.5625 318.75937L257.5625 318.68124ZM258.64062 318.80624Q258.64062 319.88437 259.07812 320.49374Q259.53125 321.10312 260.3125 321.10312Q261.34375 321.10312 261.82812 320.16562L261.82812 317.25937Q261.34375 316.36874 260.32812 316.36874Q259.53125 316.36874 259.07812 316.97812Q258.64062 317.5875 258.64062 318.80624ZM266.0 321.9L264.92188 321.9L264.92188 315.55624L266.0 315.55624L266.0 321.9ZM264.82812 313.88437Q264.82812 313.61874 264.98438 313.43124Q265.15625 313.24374 265.46875 313.24374Q265.78125 313.24374 265.9375 313.43124Q266.10938 313.61874 266.10938 313.88437Q266.10938 314.13437 265.9375 314.32187Q265.78125 314.49374 265.46875 314.49374Q265.15625 314.49374 264.98438 314.32187Q264.82812 314.13437 264.82812 313.88437ZM269.29688 314.025L269.29688 315.55624L270.46875 315.55624L270.46875 316.4L269.29688 316.4L269.29688 320.32187Q269.29688 320.7125 269.45312 320.9Q269.60938 321.0875 269.98438 321.0875Q270.17188 321.0875 270.5 321.025L270.5 321.9Q270.07812 322.025 269.67188 322.025Q268.95312 322.025 268.57812 321.5875Q268.20312 321.13437 268.20312 320.32187L268.20312 316.4L267.04688 316.4L267.04688 315.55624L268.20312 315.55624L268.20312 314.025L269.29688 314.025ZM273.0 321.9L271.92188 321.9L271.92188 315.55624L273.0 315.55624L273.0 321.9ZM271.82812 313.88437Q271.82812 313.61874 271.98438 313.43124Q272.15625 313.24374 272.46875 313.24374Q272.78125 313.24374 272.9375 313.43124Q273.10938 313.61874 273.10938 313.88437Q273.10938 314.13437 272.9375 314.32187Q272.78125 314.49374 272.46875 314.49374Q272.15625 314.49374 271.98438 314.32187Q271.82812 314.13437 271.82812 313.88437ZM274.53125 318.66562Q274.53125 317.74374 274.89062 316.99374Q275.26562 316.24374 275.92188 315.85312Q276.57812 315.44687 277.40625 315.44687Q278.70312 315.44687 279.5 316.3375Q280.3125 317.22812 280.3125 318.72812L280.3125 318.80624Q280.3125 319.72812 279.95312 320.4625Q279.59375 321.19687 278.9375 321.61874Q278.28125 322.025 277.42188 322.025Q276.14062 322.025 275.32812 321.13437Q274.53125 320.22812 274.53125 318.74374L274.53125 318.66562ZM275.625 318.80624Q275.625 319.85312 276.10938 320.49374Q276.60938 321.13437 277.42188 321.13437Q278.25 321.13437 278.73438 320.49374Q279.21875 319.8375 279.21875 318.66562Q279.21875 317.63437 278.71875 316.99374Q278.23438 316.3375 277.40625 316.3375Q276.60938 316.3375 276.10938 316.97812Q275.625 317.60312 275.625 318.80624ZM282.84375 315.55624L282.875 316.35312Q283.60938 315.44687 284.78125 315.44687Q286.79688 315.44687 286.8125 317.7125L286.8125 321.9L285.71875 321.9L285.71875 317.69687Q285.71875 317.025 285.40625 316.69687Q285.10938 316.36874 284.45312 316.36874Q283.92188 316.36874 283.51562 316.65Q283.125 316.93124 282.90625 317.38437L282.90625 321.9L281.82812 321.9L281.82812 315.55624L282.84375 315.55624ZM290.0 321.9L288.92188 321.9L288.92188 315.55624L290.0 315.55624L290.0 321.9ZM288.82812 313.88437Q288.82812 313.61874 288.98438 313.43124Q289.15625 313.24374 289.46875 313.24374Q289.78125 313.24374 289.9375 313.43124Q290.10938 313.61874 290.10938 313.88437Q290.10938 314.13437 289.9375 314.32187Q289.78125 314.49374 289.46875 314.49374Q289.15625 314.49374 288.98438 314.32187Q288.82812 314.13437 288.82812 313.88437ZM292.84375 315.55624L292.875 316.35312Q293.60938 315.44687 294.78125 315.44687Q296.79688 315.44687 296.8125 317.7125L296.8125 321.9L295.71875 321.9L295.71875 317.69687Q295.71875 317.025 295.40625 316.69687Q295.10938 316.36874 294.45312 316.36874Q293.92188 316.36874 293.51562 316.65Q293.125 316.93124 292.90625 317.38437L292.90625 321.9L291.82812 321.9L291.82812 315.55624L292.84375 315.55624ZM298.5625 318.68124Q298.5625 317.19687 299.25 316.32187Q299.9375 315.44687 301.0625 315.44687Q302.21875 315.44687 302.875 316.25937L302.92188 315.55624L303.92188 315.55624L303.92188 321.74374Q303.92188 322.97812 303.1875 323.68124Q302.45312 324.4 301.23438 324.4Q300.54688 324.4 299.89062 324.10312Q299.23438 323.80624 298.89062 323.30624L299.45312 322.65Q300.14062 323.50937 301.15625 323.50937Q301.9375 323.50937 302.375 323.05624Q302.82812 322.61874 302.82812 321.80624L302.82812 321.25937Q302.17188 322.025 301.04688 322.025Q299.9375 322.025 299.25 321.13437Q298.5625 320.22812 298.5625 318.68124ZM299.65625 318.80624Q299.65625 319.86874 300.09375 320.49374Q300.53125 321.10312 301.32812 321.10312Q302.34375 321.10312 302.82812 320.16562L302.82812 317.275Q302.32812 316.36874 301.32812 316.36874Q300.54688 316.36874 300.09375 316.97812Q299.65625 317.5875 299.65625 318.80624ZM315.26562 319.19687Q315.10938 320.54062 314.26562 321.29062Q313.42188 322.025 312.03125 322.025Q310.51562 322.025 309.60938 320.94687Q308.70312 319.85312 308.70312 318.025L308.70312 317.2125Q308.70312 316.025 309.125 315.11874Q309.54688 314.2125 310.32812 313.72812Q311.10938 313.24374 312.125 313.24374Q313.48438 313.24374 314.29688 314.00937Q315.125 314.775 315.26562 316.10312L314.14062 316.10312Q313.98438 315.0875 313.5 314.63437Q313.01562 314.18124 312.125 314.18124Q311.04688 314.18124 310.4375 314.97812Q309.82812 315.775 309.82812 317.24374L309.82812 318.07187Q309.82812 319.4625 310.40625 320.29062Q310.98438 321.10312 312.03125 321.10312Q312.96875 321.10312 313.46875 320.68124Q313.96875 320.24374 314.14062 319.19687L315.26562 319.19687ZM316.53125 318.66562Q316.53125 317.74374 316.89062 316.99374Q317.26562 316.24374 317.92188 315.85312Q318.57812 315.44687 319.40625 315.44687Q320.70312 315.44687 321.5 316.3375Q322.3125 317.22812 322.3125 318.72812L322.3125 318.80624Q322.3125 319.72812 321.95312 320.4625Q321.59375 321.19687 320.9375 321.61874Q320.28125 322.025 319.42188 322.025Q318.14062 322.025 317.32812 321.13437Q316.53125 320.22812 316.53125 318.74374L316.53125 318.66562ZM317.625 318.80624Q317.625 319.85312 318.10938 320.49374Q318.60938 321.13437 319.42188 321.13437Q320.25 321.13437 320.73438 320.49374Q321.21875 319.8375 321.21875 318.66562Q321.21875 317.63437 320.71875 316.99374Q320.23438 316.3375 319.40625 316.3375Q318.60938 316.3375 318.10938 316.97812Q317.625 317.60312 317.625 318.80624ZM324.84375 315.55624L324.875 316.35312Q325.60938 315.44687 326.78125 315.44687Q328.79688 315.44687 328.8125 317.7125L328.8125 321.9L327.71875 321.9L327.71875 317.69687Q327.71875 317.025 327.40625 316.69687Q327.10938 316.36874 326.45312 316.36874Q325.92188 316.36874 325.51562 316.65Q325.125 316.93124 324.90625 317.38437L324.90625 321.9L323.82812 321.9L323.82812 315.55624L324.84375 315.55624ZM331.35938 321.9L331.35938 316.4L330.35938 316.4L330.35938 315.55624L331.35938 315.55624L331.35938 314.91562Q331.35938 313.88437 331.89062 313.3375Q332.4375 312.775 333.4375 312.775Q333.8125 312.775 334.1875 312.86874L334.125 313.75937Q333.84375 313.69687 333.54688 313.69687Q333.01562 313.69687 332.71875 314.00937Q332.4375 314.32187 332.4375 314.88437L332.4375 315.55624L333.79688 315.55624L333.79688 316.4L332.4375 316.4L332.4375 321.9L331.35938 321.9ZM336.0 321.9L334.92188 321.9L334.92188 315.55624L336.0 315.55624L336.0 321.9ZM334.82812 313.88437Q334.82812 313.61874 334.98438 313.43124Q335.15625 313.24374 335.46875 313.24374Q335.78125 313.24374 335.9375 313.43124Q336.10938 313.61874 336.10938 313.88437Q336.10938 314.13437 335.9375 314.32187Q335.78125 314.49374 335.46875 314.49374Q335.15625 314.49374 334.98438 314.32187Q334.82812 314.13437 334.82812 313.88437ZM337.5625 318.68124Q337.5625 317.19687 338.25 316.32187Q338.9375 315.44687 340.0625 315.44687Q341.21875 315.44687 341.875 316.25937L341.92188 315.55624L342.92188 315.55624L342.92188 321.74374Q342.92188 322.97812 342.1875 323.68124Q341.45312 324.4 340.23438 324.4Q339.54688 324.4 338.89062 324.10312Q338.23438 323.80624 337.89062 323.30624L338.45312 322.65Q339.14062 323.50937 340.15625 323.50937Q340.9375 323.50937 341.375 323.05624Q341.82812 322.61874 341.82812 321.80624L341.82812 321.25937Q341.17188 322.025 340.04688 322.025Q338.9375 322.025 338.25 321.13437Q337.5625 320.22812 337.5625 318.68124ZM338.65625 318.80624Q338.65625 319.86874 339.09375 320.49374Q339.53125 321.10312 340.32812 321.10312Q341.34375 321.10312 341.82812 320.16562L341.82812 317.275Q341.32812 316.36874 340.32812 316.36874Q339.54688 316.36874 339.09375 316.97812Q338.65625 317.5875 338.65625 318.80624ZM348.73438 321.275Q348.10938 322.025 346.875 322.025Q345.85938 322.025 345.32812 321.43124Q344.79688 320.8375 344.79688 319.68124L344.79688 315.55624L345.875 315.55624L345.875 319.65Q345.875 321.10312 347.04688 321.10312Q348.29688 321.10312 348.70312 320.16562L348.70312 315.55624L349.79688 315.55624L349.79688 321.9L348.76562 321.9L348.73438 321.275ZM354.89062 316.525Q354.64062 316.49374 354.35938 316.49374Q353.28125 316.49374 352.90625 317.4L352.90625 321.9L351.82812 321.9L351.82812 315.55624L352.875 315.55624L352.89062 316.29062Q353.42188 315.44687 354.40625 315.44687Q354.71875 315.44687 354.89062 315.525L354.89062 316.525ZM359.73438 321.9Q359.64062 321.7125 359.57812 321.22812Q358.82812 322.025 357.78125 322.025Q356.84375 322.025 356.23438 321.49374Q355.64062 320.9625 355.64062 320.13437Q355.64062 319.15 356.39062 318.60312Q357.14062 318.05624 358.51562 318.05624L359.5625 318.05624L359.5625 317.55624Q359.5625 316.99374 359.21875 316.66562Q358.89062 316.32187 358.21875 316.32187Q357.64062 316.32187 357.25 316.61874Q356.85938 316.9 356.85938 317.32187L355.76562 317.32187Q355.76562 316.8375 356.09375 316.4Q356.4375 315.9625 357.01562 315.7125Q357.59375 315.44687 358.28125 315.44687Q359.39062 315.44687 360.0 315.99374Q360.625 316.54062 360.65625 317.49374L360.65625 320.41562Q360.65625 321.29062 360.875 321.80624L360.875 321.9L359.73438 321.9ZM357.9375 321.07187Q358.45312 321.07187 358.90625 320.80624Q359.35938 320.54062 359.5625 320.11874L359.5625 318.82187L358.71875 318.82187Q356.71875 318.82187 356.71875 319.99374Q356.71875 320.49374 357.0625 320.79062Q357.40625 321.07187 357.9375 321.07187ZM364.29688 314.025L364.29688 315.55624L365.46875 315.55624L365.46875 316.4L364.29688 316.4L364.29688 320.32187Q364.29688 320.7125 364.45312 320.9Q364.60938 321.0875 364.98438 321.0875Q365.17188 321.0875 365.5 321.025L365.5 321.9Q365.07812 322.025 364.67188 322.025Q363.95312 322.025 363.57812 321.5875Q363.20312 321.13437 363.20312 320.32187L363.20312 316.4L362.04688 316.4L362.04688 315.55624L363.20312 315.55624L363.20312 314.025L364.29688 314.025ZM368.0 321.9L366.92188 321.9L366.92188 315.55624L368.0 315.55624L368.0 321.9ZM366.82812 313.88437Q366.82812 313.61874 366.98438 313.43124Q367.15625 313.24374 367.46875 313.24374Q367.78125 313.24374 367.9375 313.43124Q368.10938 313.61874 368.10938 313.88437Q368.10938 314.13437 367.9375 314.32187Q367.78125 314.49374 367.46875 314.49374Q367.15625 314.49374 366.98438 314.32187Q366.82812 314.13437 366.82812 313.88437ZM369.53125 318.66562Q369.53125 317.74374 369.89062 316.99374Q370.26562 316.24374 370.92188 315.85312Q371.57812 315.44687 372.40625 315.44687Q373.70312 315.44687 374.5 316.3375Q375.3125 317.22812 375.3125 318.72812L375.3125 318.80624Q375.3125 319.72812 374.95312 320.4625Q374.59375 321.19687 373.9375 321.61874Q373.28125 322.025 372.42188 322.025Q371.14062 322.025 370.32812 321.13437Q369.53125 320.22812 369.53125 318.74374L369.53125 318.66562ZM370.625 318.80624Q370.625 319.85312 371.10938 320.49374Q371.60938 321.13437 372.42188 321.13437Q373.25 321.13437 373.73438 320.49374Q374.21875 319.8375 374.21875 318.66562Q374.21875 317.63437 373.71875 316.99374Q373.23438 316.3375 372.40625 316.3375Q371.60938 316.3375 371.10938 316.97812Q370.625 317.60312 370.625 318.80624ZM377.84375 315.55624L377.875 316.35312Q378.60938 315.44687 379.78125 315.44687Q381.79688 315.44687 381.8125 317.7125L381.8125 321.9L380.71875 321.9L380.71875 317.69687Q380.71875 317.025 380.40625 316.69687Q380.10938 316.36874 379.45312 316.36874Q378.92188 316.36874 378.51562 316.65Q378.125 316.93124 377.90625 317.38437L377.90625 321.9L376.82812 321.9L376.82812 315.55624L377.84375 315.55624ZM387.51562 320.2125Q387.51562 319.775 387.17188 319.54062Q386.84375 319.29062 386.01562 319.11874Q385.20312 318.94687 384.71875 318.69687Q384.23438 318.44687 384.0 318.11874Q383.78125 317.775 383.78125 317.30624Q383.78125 316.525 384.4375 315.99374Q385.09375 315.44687 386.125 315.44687Q387.20312 315.44687 387.85938 316.00937Q388.53125 316.55624 388.53125 317.41562L387.45312 317.41562Q387.45312 316.97812 387.0625 316.66562Q386.6875 316.3375 386.125 316.3375Q385.53125 316.3375 385.1875 316.60312Q384.85938 316.85312 384.85938 317.25937Q384.85938 317.65 385.17188 317.85312Q385.48438 318.05624 386.29688 318.24374Q387.10938 318.41562 387.60938 318.66562Q388.10938 318.91562 388.34375 319.275Q388.59375 319.63437 388.59375 320.13437Q388.59375 320.99374 387.90625 321.50937Q387.23438 322.025 386.15625 322.025Q385.39062 322.025 384.79688 321.75937Q384.21875 321.47812 383.89062 320.99374Q383.5625 320.50937 383.5625 319.94687L384.64062 319.94687Q384.67188 320.49374 385.07812 320.82187Q385.48438 321.13437 386.15625 321.13437Q386.76562 321.13437 387.14062 320.88437Q387.51562 320.63437 387.51562 320.2125Z" fill-rule="nonzero"/><path fill="#424242" d="M27.599995 208.3875L20.568745 205.95L20.568745 204.71562L29.099995 207.8875L29.099995 208.87187L20.568745 212.02812L20.568745 210.80937L27.599995 208.3875ZM29.099995 199.46562Q28.912495 199.55937 28.42812 199.62187Q29.224995 200.37187 29.224995 201.41875Q29.224995 202.35625 28.693745 202.96562Q28.162495 203.55937 27.33437 203.55937Q26.349995 203.55937 25.80312 202.80937Q25.256245 202.05937 25.256245 200.68437L25.256245 199.6375L24.756245 199.6375Q24.193745 199.6375 23.86562 199.98125Q23.52187 200.30937 23.52187 200.98125Q23.52187 201.55937 23.818745 201.95Q24.099995 202.34062 24.52187 202.34062L24.52187 203.43437Q24.037495 203.43437 23.599995 203.10625Q23.162495 202.7625 22.912495 202.18437Q22.64687 201.60625 22.64687 200.91875Q22.64687 199.80937 23.193745 199.2Q23.74062 198.575 24.693745 198.54375L27.61562 198.54375Q28.49062 198.54375 29.006245 198.325L29.099995 198.325L29.099995 199.46562ZM28.27187 201.2625Q28.27187 200.74687 28.006245 200.29375Q27.74062 199.84062 27.318745 199.6375L26.02187 199.6375L26.02187 200.48125Q26.02187 202.48125 27.193745 202.48125Q27.693745 202.48125 27.99062 202.1375Q28.27187 201.79375 28.27187 201.2625ZM29.099995 195.2L29.099995 196.27812L20.099995 196.27812L20.099995 195.2L29.099995 195.2ZM29.099995 192.2L29.099995 193.27812L22.756245 193.27812L22.756245 192.2L29.099995 192.2ZM21.08437 193.37187Q20.818745 193.37187 20.631245 193.21562Q20.443745 193.04375 20.443745 192.73125Q20.443745 192.41875 20.631245 192.2625Q20.818745 192.09062 21.08437 192.09062Q21.33437 192.09062 21.52187 192.2625Q21.693745 192.41875 21.693745 192.73125Q21.693745 193.04375 21.52187 193.21562Q21.33437 193.37187 21.08437 193.37187ZM25.881245 190.6375Q24.412495 190.6375 23.537495 189.95Q22.64687 189.2625 22.64687 188.1375Q22.64687 187.02812 23.39687 186.37187L20.099995 186.37187L20.099995 185.29375L29.099995 185.29375L29.099995 186.29375L28.412495 186.34062Q29.224995 186.99687 29.224995 188.15312Q29.224995 189.24687 28.318745 189.95Q27.412495 190.6375 25.95937 190.6375L25.881245 190.6375ZM26.006245 189.55937Q27.08437 189.55937 27.693745 189.12187Q28.30312 188.66875 28.30312 187.8875Q28.30312 186.85625 27.36562 186.37187L24.45937 186.37187Q23.568745 186.85625 23.568745 187.87187Q23.568745 188.66875 24.17812 189.12187Q24.787495 189.55937 26.006245 189.55937ZM29.099995 179.46562Q28.912495 179.55937 28.42812 179.62187Q29.224995 180.37187 29.224995 181.41875Q29.224995 182.35625 28.693745 182.96562Q28.162495 183.55937 27.33437 183.55937Q26.349995 183.55937 25.80312 182.80937Q25.256245 182.05937 25.256245 180.68437L25.256245 179.6375L24.756245 179.6375Q24.193745 179.6375 23.86562 179.98125Q23.52187 180.30937 23.52187 180.98125Q23.52187 181.55937 23.818745 181.95Q24.099995 182.34062 24.52187 182.34062L24.52187 183.43437Q24.037495 183.43437 23.599995 183.10625Q23.162495 182.7625 22.912495 182.18437Q22.64687 181.60625 22.64687 180.91875Q22.64687 179.80937 23.193745 179.2Q23.74062 178.575 24.693745 178.54375L27.61562 178.54375Q28.49062 178.54375 29.006245 178.325L29.099995 178.325L29.099995 179.46562ZM28.27187 181.2625Q28.27187 180.74687 28.006245 180.29375Q27.74062 179.84062 27.318745 179.6375L26.02187 179.6375L26.02187 180.48125Q26.02187 182.48125 27.193745 182.48125Q27.693745 182.48125 27.99062 182.1375Q28.27187 181.79375 28.27187 181.2625ZM21.224995 174.90312L22.756245 174.90312L22.756245 173.73125L23.599995 173.73125L23.599995 174.90312L27.52187 174.90312Q27.912495 174.90312 28.099995 174.74687Q28.287495 174.59062 28.287495 174.21562Q28.287495 174.02812 28.224995 173.7L29.099995 173.7Q29.224995 174.12187 29.224995 174.52812Q29.224995 175.24687 28.787495 175.62187Q28.33437 175.99687 27.52187 175.99687L23.599995 175.99687L23.599995 177.15312L22.756245 177.15312L22.756245 175.99687L21.224995 175.99687L21.224995 174.90312ZM29.099995 171.2L29.099995 172.27812L22.756245 172.27812L22.756245 171.2L29.099995 171.2ZM21.08437 172.37187Q20.818745 172.37187 20.631245 172.21562Q20.443745 172.04375 20.443745 171.73125Q20.443745 171.41875 20.631245 171.2625Q20.818745 171.09062 21.08437 171.09062Q21.33437 171.09062 21.52187 171.2625Q21.693745 171.41875 21.693745 171.73125Q21.693745 172.04375 21.52187 172.21562Q21.33437 172.37187 21.08437 172.37187ZM25.86562 169.66875Q24.943745 169.66875 24.193745 169.30937Q23.443745 168.93437 23.05312 168.27812Q22.64687 167.62187 22.64687 166.79375Q22.64687 165.49687 23.537495 164.7Q24.42812 163.8875 25.92812 163.8875L26.006245 163.8875Q26.92812 163.8875 27.662495 164.24687Q28.39687 164.60625 28.818745 165.2625Q29.224995 165.91875 29.224995 166.77812Q29.224995 168.05937 28.33437 168.87187Q27.42812 169.66875 25.943745 169.66875L25.86562 169.66875ZM26.006245 168.575Q27.05312 168.575 27.693745 168.09062Q28.33437 167.59062 28.33437 166.77812Q28.33437 165.95 27.693745 165.46562Q27.037495 164.98125 25.86562 164.98125Q24.83437 164.98125 24.193745 165.48125Q23.537495 165.96562 23.537495 166.79375Q23.537495 167.59062 24.17812 168.09062Q24.80312 168.575 26.006245 168.575ZM22.756245 161.35625L23.55312 161.325Q22.64687 160.59062 22.64687 159.41875Q22.64687 157.40312 24.912495 157.3875L29.099995 157.3875L29.099995 158.48125L24.89687 158.48125Q24.224995 158.48125 23.89687 158.79375Q23.568745 159.09062 23.568745 159.74687Q23.568745 160.27812 23.849995 160.68437Q24.131245 161.075 24.58437 161.29375L29.099995 161.29375L29.099995 162.37187L22.756245 162.37187L22.756245 161.35625ZM29.099995 145.65312L29.099995 146.77812L22.52187 151.075L29.099995 151.075L29.099995 152.21562L20.568745 152.21562L20.568745 151.075L27.17812 146.77812L20.568745 146.77812L20.568745 145.65312L29.099995 145.65312ZM28.17812 142.075L28.17812 138.02812L29.099995 138.02812L29.099995 143.21562L20.568745 143.21562L20.568745 142.075L28.17812 142.075ZM28.17812 136.075L28.17812 132.02812L29.099995 132.02812L29.099995 137.21562L20.568745 137.21562L20.568745 136.075L28.17812 136.075Z" fill-rule="nonzero"/><path fill="#757575" d="M56.1625 271.75937Q56.1625 273.66562 55.50625 274.60312Q54.865623 275.525 53.475 275.525Q52.115623 275.525 51.459373 274.61874Q50.803123 273.7125 50.771873 271.9L50.771873 270.4625Q50.771873 268.57187 51.4125 267.66562Q52.06875 266.74374 53.459373 266.74374Q54.834373 266.74374 55.490623 267.63437Q56.146873 268.50937 56.1625 270.35312L56.1625 271.75937ZM55.06875 270.275Q55.06875 268.9 54.678123 268.275Q54.303123 267.63437 53.459373 267.63437Q52.63125 267.63437 52.240623 268.275Q51.865623 268.9 51.865623 270.19687L51.865623 271.93124Q51.865623 273.30624 52.25625 273.97812Q52.6625 274.63437 53.475 274.63437Q54.271873 274.63437 54.6625 274.00937Q55.053123 273.38437 55.06875 272.05624L55.06875 270.275ZM57.94375 274.8375Q57.94375 274.55624 58.1 274.36874Q58.271873 274.18124 58.6 274.18124Q58.94375 274.18124 59.115623 274.36874Q59.2875 274.55624 59.2875 274.8375Q59.2875 275.10312 59.115623 275.29062Q58.94375 275.4625 58.6 275.4625Q58.271873 275.4625 58.1 275.29062Q57.94375 275.10312 57.94375 274.8375ZM64.36562 275.4L63.2875 275.4L63.2875 268.18124L61.1 268.97812L61.1 267.99374L64.20937 266.82187L64.36562 266.82187L64.36562 275.4ZM73.1625 271.75937Q73.1625 273.66562 72.50625 274.60312Q71.86562 275.525 70.475 275.525Q69.11562 275.525 68.45937 274.61874Q67.80312 273.7125 67.77187 271.9L67.77187 270.4625Q67.77187 268.57187 68.4125 267.66562Q69.06875 266.74374 70.45937 266.74374Q71.83437 266.74374 72.49062 267.63437Q73.14687 268.50937 73.1625 270.35312L73.1625 271.75937ZM72.06875 270.275Q72.06875 268.9 71.67812 268.275Q71.30312 267.63437 70.45937 267.63437Q69.63125 267.63437 69.24062 268.275Q68.86562 268.9 68.86562 270.19687L68.86562 271.93124Q68.86562 273.30624 69.25625 273.97812Q69.6625 274.63437 70.475 274.63437Q71.27187 274.63437 71.6625 274.00937Q72.05312 273.38437 72.06875 272.05624L72.06875 270.275ZM80.1625 271.75937Q80.1625 273.66562 79.50625 274.60312Q78.86562 275.525 77.475 275.525Q76.11562 275.525 75.45937 274.61874Q74.80312 273.7125 74.77187 271.9L74.77187 270.4625Q74.77187 268.57187 75.4125 267.66562Q76.06875 266.74374 77.45937 266.74374Q78.83437 266.74374 79.49062 267.63437Q80.14687 268.50937 80.1625 270.35312L80.1625 271.75937ZM79.06875 270.275Q79.06875 268.9 78.67812 268.275Q78.30312 267.63437 77.45937 267.63437Q76.63125 267.63437 76.24062 268.275Q75.86562 268.9 75.86562 270.19687L75.86562 271.93124Q75.86562 273.30624 76.25625 273.97812Q76.6625 274.63437 77.475 274.63437Q78.27187 274.63437 78.6625 274.00937Q79.05312 273.38437 79.06875 272.05624L79.06875 270.275Z" fill-rule="nonzero"/><path fill="#757575" d="M56.1625 201.45938Q56.1625 203.36563 55.50625 204.30313Q54.865623 205.225 53.475 205.225Q52.115623 205.225 51.459373 204.31876Q50.803123 203.4125 50.771873 201.6L50.771873 200.1625Q50.771873 198.27188 51.4125 197.36563Q52.06875 196.44376 53.459373 196.44376Q54.834373 196.44376 55.490623 197.33438Q56.146873 198.20938 56.1625 200.05313L56.1625 201.45938ZM55.06875 199.975Q55.06875 198.6 54.678123 197.975Q54.303123 197.33438 53.459373 197.33438Q52.63125 197.33438 52.240623 197.975Q51.865623 198.6 51.865623 199.89688L51.865623 201.63126Q51.865623 203.00626 52.25625 203.67813Q52.6625 204.33438 53.475 204.33438Q54.271873 204.33438 54.6625 203.70938Q55.053123 203.08438 55.06875 201.75626L55.06875 199.975ZM57.94375 204.5375Q57.94375 204.25626 58.1 204.06876Q58.271873 203.88126 58.6 203.88126Q58.94375 203.88126 59.115623 204.06876Q59.2875 204.25626 59.2875 204.5375Q59.2875 204.80313 59.115623 204.99063Q58.94375 205.1625 58.6 205.1625Q58.271873 205.1625 58.1 204.99063Q57.94375 204.80313 57.94375 204.5375ZM66.39687 205.1L60.803123 205.1L60.803123 204.31876L63.75625 201.0375Q64.4125 200.2875 64.6625 199.83438Q64.9125 199.36563 64.9125 198.86563Q64.9125 198.19376 64.50625 197.77188Q64.11562 197.33438 63.428123 197.33438Q62.63125 197.33438 62.178123 197.80313Q61.725 198.25626 61.725 199.08438L60.646873 199.08438Q60.646873 197.89688 61.396873 197.17813Q62.1625 196.44376 63.428123 196.44376Q64.63125 196.44376 65.31875 197.06876Q66.00625 197.69376 66.00625 198.74063Q66.00625 199.99063 64.39687 201.74063L62.115623 204.20938L66.39687 204.20938L66.39687 205.1ZM73.1625 201.45938Q73.1625 203.36563 72.50625 204.30313Q71.86562 205.225 70.475 205.225Q69.11562 205.225 68.45937 204.31876Q67.80312 203.4125 67.77187 201.6L67.77187 200.1625Q67.77187 198.27188 68.4125 197.36563Q69.06875 196.44376 70.45937 196.44376Q71.83437 196.44376 72.49062 197.33438Q73.14687 198.20938 73.1625 200.05313L73.1625 201.45938ZM72.06875 199.975Q72.06875 198.6 71.67812 197.975Q71.30312 197.33438 70.45937 197.33438Q69.63125 197.33438 69.24062 197.975Q68.86562 198.6 68.86562 199.89688L68.86562 201.63126Q68.86562 203.00626 69.25625 203.67813Q69.6625 204.33438 70.475 204.33438Q71.27187 204.33438 71.6625 203.70938Q72.05312 203.08438 72.06875 201.75626L72.06875 199.975ZM80.1625 201.45938Q80.1625 203.36563 79.50625 204.30313Q78.86562 205.225 77.475 205.225Q76.11562 205.225 75.45937 204.31876Q74.80312 203.4125 74.77187 201.6L74.77187 200.1625Q74.77187 198.27188 75.4125 197.36563Q76.06875 196.44376 77.45937 196.44376Q78.83437 196.44376 79.49062 197.33438Q80.14687 198.20938 80.1625 200.05313L80.1625 201.45938ZM79.06875 199.975Q79.06875 198.6 78.67812 197.975Q78.30312 197.33438 77.45937 197.33438Q76.63125 197.33438 76.24062 197.975Q75.86562 198.6 75.86562 199.89688L75.86562 201.63126Q75.86562 203.00626 76.25625 203.67813Q76.6625 204.33438 77.475 204.33438Q78.27187 204.33438 78.6625 203.70938Q79.05312 203.08438 79.06875 201.75626L79.06875 199.975Z" fill-rule="nonzero"/><path fill="#757575" d="M56.1625 131.15938Q56.1625 133.06563 55.50625 134.00313Q54.865623 134.925 53.475 134.925Q52.115623 134.925 51.459373 134.01875Q50.803123 133.1125 50.771873 131.3L50.771873 129.8625Q50.771873 127.97188 51.4125 127.06563Q52.06875 126.14375 53.459373 126.14375Q54.834373 126.14375 55.490623 127.03438Q56.146873 127.90938 56.1625 129.75313L56.1625 131.15938ZM55.06875 129.675Q55.06875 128.3 54.678123 127.675Q54.303123 127.03438 53.459373 127.03438Q52.63125 127.03438 52.240623 127.675Q51.865623 128.3 51.865623 129.59688L51.865623 131.33125Q51.865623 132.70625 52.25625 133.37813Q52.6625 134.03438 53.475 134.03438Q54.271873 134.03438 54.6625 133.40938Q55.053123 132.78438 55.06875 131.45625L55.06875 129.675ZM57.94375 134.2375Q57.94375 133.95625 58.1 133.76875Q58.271873 133.58125 58.6 133.58125Q58.94375 133.58125 59.115623 133.76875Q59.2875 133.95625 59.2875 134.2375Q59.2875 134.50313 59.115623 134.69063Q58.94375 134.8625 58.6 134.8625Q58.271873 134.8625 58.1 134.69063Q57.94375 134.50313 57.94375 134.2375ZM62.38125 130.00313L63.19375 130.00313Q63.975 129.9875 64.4125 129.59688Q64.85 129.20625 64.85 128.53438Q64.85 127.03438 63.35 127.03438Q62.646873 127.03438 62.225 127.44063Q61.81875 127.84688 61.81875 128.50313L60.725 128.50313Q60.725 127.4875 61.459373 126.81563Q62.209373 126.14375 63.35 126.14375Q64.55312 126.14375 65.24062 126.78438Q65.92812 127.425 65.92812 128.56563Q65.92812 129.12813 65.56875 129.64375Q65.20937 130.15938 64.58437 130.425Q65.2875 130.64375 65.6625 131.15938Q66.05312 131.675 66.05312 132.425Q66.05312 133.56563 65.30312 134.25313Q64.55312 134.925 63.35 134.925Q62.1625 134.925 61.396873 134.26875Q60.646873 133.6125 60.646873 132.55L61.740623 132.55Q61.740623 133.22188 62.178123 133.62813Q62.615623 134.03438 63.365623 134.03438Q64.14687 134.03438 64.55312 133.62813Q64.975 133.20625 64.975 132.44063Q64.975 131.70625 64.52187 131.31563Q64.06875 130.90938 63.19375 130.89375L62.38125 130.89375L62.38125 130.00313ZM73.1625 131.15938Q73.1625 133.06563 72.50625 134.00313Q71.86562 134.925 70.475 134.925Q69.11562 134.925 68.45937 134.01875Q67.80312 133.1125 67.77187 131.3L67.77187 129.8625Q67.77187 127.97188 68.4125 127.06563Q69.06875 126.14375 70.45937 126.14375Q71.83437 126.14375 72.49062 127.03438Q73.14687 127.90938 73.1625 129.75313L73.1625 131.15938ZM72.06875 129.675Q72.06875 128.3 71.67812 127.675Q71.30312 127.03438 70.45937 127.03438Q69.63125 127.03438 69.24062 127.675Q68.86562 128.3 68.86562 129.59688L68.86562 131.33125Q68.86562 132.70625 69.25625 133.37813Q69.6625 134.03438 70.475 134.03438Q71.27187 134.03438 71.6625 133.40938Q72.05312 132.78438 72.06875 131.45625L72.06875 129.675ZM80.1625 131.15938Q80.1625 133.06563 79.50625 134.00313Q78.86562 134.925 77.475 134.925Q76.11562 134.925 75.45937 134.01875Q74.80312 133.1125 74.77187 131.3L74.77187 129.8625Q74.77187 127.97188 75.4125 127.06563Q76.06875 126.14375 77.45937 126.14375Q78.83437 126.14375 79.49062 127.03438Q80.14687 127.90938 80.1625 129.75313L80.1625 131.15938ZM79.06875 129.675Q79.06875 128.3 78.67812 127.675Q78.30312 127.03438 77.45937 127.03438Q76.63125 127.03438 76.24062 127.675Q75.86562 128.3 75.86562 129.59688L75.86562 131.33125Q75.86562 132.70625 76.25625 133.37813Q76.6625 134.03438 77.475 134.03438Q78.27187 134.03438 78.6625 133.40938Q79.05312 132.78438 79.06875 131.45625L79.06875 129.675Z" fill-rule="nonzero"/><path fill="#757575" d="M56.1625 60.859375Q56.1625 62.765625 55.50625 63.703125Q54.865623 64.625 53.475 64.625Q52.115623 64.625 51.459373 63.71875Q50.803123 62.8125 50.771873 61.0L50.771873 59.5625Q50.771873 57.671875 51.4125 56.765625Q52.06875 55.84375 53.459373 55.84375Q54.834373 55.84375 55.490623 56.734375Q56.146873 57.609375 56.1625 59.453125L56.1625 60.859375ZM55.06875 59.375Q55.06875 58.0 54.678123 57.375Q54.303123 56.734375 53.459373 56.734375Q52.63125 56.734375 52.240623 57.375Q51.865623 58.0 51.865623 59.296875L51.865623 61.03125Q51.865623 62.40625 52.25625 63.078125Q52.6625 63.734375 53.475 63.734375Q54.271873 63.734375 54.6625 63.109375Q55.053123 62.484375 55.06875 61.15625L55.06875 59.375ZM57.94375 63.9375Q57.94375 63.65625 58.1 63.46875Q58.271873 63.28125 58.6 63.28125Q58.94375 63.28125 59.115623 63.46875Q59.2875 63.65625 59.2875 63.9375Q59.2875 64.203125 59.115623 64.390625Q58.94375 64.5625 58.6 64.5625Q58.271873 64.5625 58.1 64.390625Q57.94375 64.203125 57.94375 63.9375ZM65.38125 61.640625L66.56875 61.640625L66.56875 62.515625L65.38125 62.515625L65.38125 64.5L64.30312 64.5L64.30312 62.515625L60.4125 62.515625L60.4125 61.875L64.225 55.96875L65.38125 55.96875L65.38125 61.640625ZM61.646873 61.640625L64.30312 61.640625L64.30312 57.453125L64.1625 57.6875L61.646873 61.640625ZM73.1625 60.859375Q73.1625 62.765625 72.50625 63.703125Q71.86562 64.625 70.475 64.625Q69.11562 64.625 68.45937 63.71875Q67.80312 62.8125 67.77187 61.0L67.77187 59.5625Q67.77187 57.671875 68.4125 56.765625Q69.06875 55.84375 70.45937 55.84375Q71.83437 55.84375 72.49062 56.734375Q73.14687 57.609375 73.1625 59.453125L73.1625 60.859375ZM72.06875 59.375Q72.06875 58.0 71.67812 57.375Q71.30312 56.734375 70.45937 56.734375Q69.63125 56.734375 69.24062 57.375Q68.86562 58.0 68.86562 59.296875L68.86562 61.03125Q68.86562 62.40625 69.25625 63.078125Q69.6625 63.734375 70.475 63.734375Q71.27187 63.734375 71.6625 63.109375Q72.05312 62.484375 72.06875 61.15625L72.06875 59.375ZM80.1625 60.859375Q80.1625 62.765625 79.50625 63.703125Q78.86562 64.625 77.475 64.625Q76.11562 64.625 75.45937 63.71875Q74.80312 62.8125 74.77187 61.0L74.77187 59.5625Q74.77187 57.671875 75.4125 56.765625Q76.06875 55.84375 77.45937 55.84375Q78.83437 55.84375 79.49062 56.734375Q80.14687 57.609375 80.1625 59.453125L80.1625 60.859375ZM79.06875 59.375Q79.06875 58.0 78.67812 57.375Q78.30312 56.734375 77.45937 56.734375Q76.63125 56.734375 76.24062 57.375Q75.86562 58.0 75.86562 59.296875L75.86562 61.03125Q75.86562 62.40625 76.25625 63.078125Q76.6625 63.734375 77.475 63.734375Q78.27187 63.734375 78.6625 63.109375Q79.05312 62.484375 79.06875 61.15625L79.06875 59.375Z" fill-rule="nonzero"/><path fill="#757575" d="M93.38957 288.9L92.26457 288.9L87.9677 282.32187L87.9677 288.9L86.82707 288.9L86.82707 280.36874L87.9677 280.36874L92.26457 286.97812L92.26457 280.36874L93.38957 280.36874L93.38957 288.9ZM95.37395 285.66562Q95.37395 284.74374 95.73332 283.99374Q96.10832 283.24374 96.76457 282.85312Q97.42082 282.44687 98.24895 282.44687Q99.54582 282.44687 100.3427 283.3375Q101.1552 284.22812 101.1552 285.72812L101.1552 285.80624Q101.1552 286.72812 100.79582 287.4625Q100.43645 288.19687 99.7802 288.61874Q99.12395 289.025 98.26457 289.025Q96.98332 289.025 96.17082 288.13437Q95.37395 287.22812 95.37395 285.74374L95.37395 285.66562ZM96.4677 285.80624Q96.4677 286.85312 96.95207 287.49374Q97.45207 288.13437 98.26457 288.13437Q99.0927 288.13437 99.57707 287.49374Q100.06145 286.8375 100.06145 285.66562Q100.06145 284.63437 99.56145 283.99374Q99.07707 283.3375 98.24895 283.3375Q97.45207 283.3375 96.95207 283.97812Q96.4677 284.60312 96.4677 285.80624ZM104.92082 285.7125L102.06145 285.7125L102.06145 284.8375L104.92082 284.8375L104.92082 285.7125ZM112.10832 286.19687Q111.95207 287.54062 111.10832 288.29062Q110.26457 289.025 108.87395 289.025Q107.35832 289.025 106.45207 287.94687Q105.54582 286.85312 105.54582 285.025L105.54582 284.2125Q105.54582 283.025 105.9677 282.11874Q106.38957 281.2125 107.17082 280.72812Q107.95207 280.24374 108.9677 280.24374Q110.32707 280.24374 111.13957 281.00937Q111.9677 281.775 112.10832 283.10312L110.98332 283.10312Q110.82707 282.0875 110.3427 281.63437Q109.85832 281.18124 108.9677 281.18124Q107.88957 281.18124 107.2802 281.97812Q106.67082 282.775 106.67082 284.24374L106.67082 285.07187Q106.67082 286.4625 107.24895 287.29062Q107.82707 288.10312 108.87395 288.10312Q109.81145 288.10312 110.31145 287.68124Q110.81145 287.24374 110.98332 286.19687L112.10832 286.19687ZM113.37395 285.66562Q113.37395 284.74374 113.73332 283.99374Q114.10832 283.24374 114.76457 282.85312Q115.42082 282.44687 116.24895 282.44687Q117.54582 282.44687 118.3427 283.3375Q119.1552 284.22812 119.1552 285.72812L119.1552 285.80624Q119.1552 286.72812 118.79582 287.4625Q118.43645 288.19687 117.7802 288.61874Q117.12395 289.025 116.26457 289.025Q114.98332 289.025 114.17082 288.13437Q113.37395 287.22812 113.37395 285.74374L113.37395 285.66562ZM114.4677 285.80624Q114.4677 286.85312 114.95207 287.49374Q115.45207 288.13437 116.26457 288.13437Q117.0927 288.13437 117.57707 287.49374Q118.06145 286.8375 118.06145 285.66562Q118.06145 284.63437 117.56145 283.99374Q117.07707 283.3375 116.24895 283.3375Q115.45207 283.3375 114.95207 283.97812Q114.4677 284.60312 114.4677 285.80624ZM121.68645 282.55624L121.7177 283.35312Q122.45207 282.44687 123.62395 282.44687Q125.63957 282.44687 125.6552 284.7125L125.6552 288.9L124.56145 288.9L124.56145 284.69687Q124.56145 284.025 124.24895 283.69687Q123.95207 283.36874 123.29582 283.36874Q122.76457 283.36874 122.35832 283.65Q121.9677 283.93124 121.74895 284.38437L121.74895 288.9L120.67082 288.9L120.67082 282.55624L121.68645 282.55624ZM127.4052 285.68124Q127.4052 284.2125 128.0927 283.3375Q128.7802 282.44687 129.9052 282.44687Q131.01457 282.44687 131.67082 283.19687L131.67082 279.9L132.74895 279.9L132.74895 288.9L131.74895 288.9L131.70207 288.2125Q131.04582 289.025 129.88957 289.025Q128.79582 289.025 128.0927 288.11874Q127.4052 287.2125 127.4052 285.75937L127.4052 285.68124ZM128.48332 285.80624Q128.48332 286.88437 128.92082 287.49374Q129.37395 288.10312 130.1552 288.10312Q131.18645 288.10312 131.67082 287.16562L131.67082 284.25937Q131.18645 283.36874 130.17082 283.36874Q129.37395 283.36874 128.92082 283.97812Q128.48332 284.5875 128.48332 285.80624Z" fill-rule="nonzero"/><path fill="#757575" d="M144.23871 288.9L143.11371 288.9L143.11371 280.36874L144.23871 280.36874L144.23871 288.9Z" fill-rule="nonzero"/><path fill="#757575" d="M180.4941 286.19687Q180.33784 287.54062 179.4941 288.29062Q178.65034 289.025 177.25972 289.025Q175.7441 289.025 174.83784 287.94687Q173.9316 286.85312 173.9316 285.025L173.9316 284.2125Q173.9316 283.025 174.35347 282.11874Q174.77534 281.2125 175.5566 280.72812Q176.33784 280.24374 177.35347 280.24374Q178.71284 280.24374 179.52534 281.00937Q180.35347 281.775 180.4941 283.10312L179.3691 283.10312Q179.21284 282.0875 178.72847 281.63437Q178.2441 281.18124 177.35347 281.18124Q176.27534 281.18124 175.66597 281.97812Q175.0566 282.775 175.0566 284.24374L175.0566 285.07187Q175.0566 286.4625 175.63472 287.29062Q176.21284 288.10312 177.25972 288.10312Q178.19722 288.10312 178.69722 287.68124Q179.19722 287.24374 179.3691 286.19687L180.4941 286.19687Z" fill-rule="nonzero"/><path fill="#757575" d="M213.96822 288.9L212.84322 288.9L208.54634 282.32187L208.54634 288.9L207.40572 288.9L207.40572 280.36874L208.54634 280.36874L212.84322 286.97812L212.84322 280.36874L213.96822 280.36874L213.96822 288.9Z" fill-rule="nonzero"/><path fill="#757575" d="M242.0986 288.9L242.0986 280.36874L244.89548 280.36874Q246.2861 280.36874 246.9736 280.94687Q247.67673 281.50937 247.67673 282.63437Q247.67673 283.24374 247.33298 283.7125Q247.00485 284.16562 246.4111 284.41562Q247.11423 284.60312 247.50485 285.15Q247.9111 285.68124 247.9111 286.43124Q247.9111 287.5875 247.1611 288.24374Q246.42673 288.9 245.06735 288.9L242.0986 288.9ZM243.2236 284.91562L243.2236 287.97812L245.08298 287.97812Q245.87985 287.97812 246.33298 287.57187Q246.7861 287.16562 246.7861 286.44687Q246.7861 284.91562 245.0986 284.91562L243.2236 284.91562ZM243.2236 284.00937L244.92673 284.00937Q245.6611 284.00937 246.0986 283.65Q246.55173 283.275 246.55173 282.63437Q246.55173 281.93124 246.14548 281.61874Q245.73923 281.29062 244.89548 281.29062L243.2236 281.29062L243.2236 284.00937Z" fill-rule="nonzero"/><path fill="#757575" d="M280.07275 286.19687Q279.9165 287.54062 279.07275 288.29062Q278.229 289.025 276.83838 289.025Q275.32275 289.025 274.4165 287.94687Q273.51025 286.85312 273.51025 285.025L273.51025 284.2125Q273.51025 283.025 273.93213 282.11874Q274.354 281.2125 275.13525 280.72812Q275.9165 280.24374 276.93213 280.24374Q278.2915 280.24374 279.104 281.00937Q279.93213 281.775 280.07275 283.10312L278.94775 283.10312Q278.7915 282.0875 278.30713 281.63437Q277.82275 281.18124 276.93213 281.18124Q275.854 281.18124 275.24463 281.97812Q274.63525 282.775 274.63525 284.24374L274.63525 285.07187Q274.63525 286.4625 275.21338 287.29062Q275.7915 288.10312 276.83838 288.10312Q277.77588 288.10312 278.27588 287.68124Q278.77588 287.24374 278.94775 286.19687L280.07275 286.19687ZM283.01025 288.9L281.88525 288.9L281.88525 280.36874L283.01025 280.36874L283.01025 288.9Z" fill-rule="nonzero"/><path fill="#757575" d="M310.76562 286.19687Q310.60938 287.54062 309.76562 288.29062Q308.92188 289.025 307.53125 289.025Q306.01562 289.025 305.10938 287.94687Q304.20312 286.85312 304.20312 285.025L304.20312 284.2125Q304.20312 283.025 304.625 282.11874Q305.04688 281.2125 305.82812 280.72812Q306.60938 280.24374 307.625 280.24374Q308.98438 280.24374 309.79688 281.00937Q310.625 281.775 310.76562 283.10312L309.64062 283.10312Q309.48438 282.0875 309.0 281.63437Q308.51562 281.18124 307.625 281.18124Q306.54688 281.18124 305.9375 281.97812Q305.32812 282.775 305.32812 284.24374L305.32812 285.07187Q305.32812 286.4625 305.90625 287.29062Q306.48438 288.10312 307.53125 288.10312Q308.46875 288.10312 308.96875 287.68124Q309.46875 287.24374 309.64062 286.19687L310.76562 286.19687ZM319.04688 288.9L317.92188 288.9L313.625 282.32187L313.625 288.9L312.48438 288.9L312.48438 280.36874L313.625 280.36874L317.92188 286.97812L317.92188 280.36874L319.04688 280.36874L319.04688 288.9Z" fill-rule="nonzero"/><path fill="#757575" d="M345.4585 286.19687Q345.30225 287.54062 344.4585 288.29062Q343.61475 289.025 342.22412 289.025Q340.7085 289.025 339.80225 287.94687Q338.896 286.85312 338.896 285.025L338.896 284.2125Q338.896 283.025 339.31787 282.11874Q339.73975 281.2125 340.521 280.72812Q341.30225 280.24374 342.31787 280.24374Q343.67725 280.24374 344.48975 281.00937Q345.31787 281.775 345.4585 283.10312L344.3335 283.10312Q344.17725 282.0875 343.69287 281.63437Q343.2085 281.18124 342.31787 281.18124Q341.23975 281.18124 340.63037 281.97812Q340.021 282.775 340.021 284.24374L340.021 285.07187Q340.021 286.4625 340.59912 287.29062Q341.17725 288.10312 342.22412 288.10312Q343.16162 288.10312 343.66162 287.68124Q344.16162 287.24374 344.3335 286.19687L345.4585 286.19687ZM347.17725 288.9L347.17725 280.36874L349.97412 280.36874Q351.36475 280.36874 352.05225 280.94687Q352.75537 281.50937 352.75537 282.63437Q352.75537 283.24374 352.41162 283.7125Q352.0835 284.16562 351.48975 284.41562Q352.19287 284.60312 352.5835 285.15Q352.98975 285.68124 352.98975 286.43124Q352.98975 287.5875 352.23975 288.24374Q351.50537 288.9 350.146 288.9L347.17725 288.9ZM348.30225 284.91562L348.30225 287.97812L350.16162 287.97812Q350.9585 287.97812 351.41162 287.57187Q351.86475 287.16562 351.86475 286.44687Q351.86475 284.91562 350.17725 284.91562L348.30225 284.91562ZM348.30225 284.00937L350.00537 284.00937Q350.73975 284.00937 351.17725 283.65Q351.63037 283.275 351.63037 282.63437Q351.63037 281.93124 351.22412 281.61874Q350.81787 281.29062 349.97412 281.29062L348.30225 281.29062L348.30225 284.00937Z" fill-rule="nonzero"/><path fill="#757575" d="M376.5889 288.9L375.4639 288.9L375.4639 280.36874L376.5889 280.36874L376.5889 288.9ZM378.37015 288.9L378.37015 280.36874L381.16702 280.36874Q382.55765 280.36874 383.24515 280.94687Q383.94827 281.50937 383.94827 282.63437Q383.94827 283.24374 383.60452 283.7125Q383.2764 284.16562 382.68265 284.41562Q383.38577 284.60312 383.7764 285.15Q384.18265 285.68124 384.18265 286.43124Q384.18265 287.5875 383.43265 288.24374Q382.69827 288.9 381.3389 288.9L378.37015 288.9ZM379.49515 284.91562L379.49515 287.97812L381.35452 287.97812Q382.1514 287.97812 382.60452 287.57187Q383.05765 287.16562 383.05765 286.44687Q383.05765 284.91562 381.37015 284.91562L379.49515 284.91562ZM379.49515 284.00937L381.19827 284.00937Q381.93265 284.00937 382.37015 283.65Q382.82327 283.275 382.82327 282.63437Q382.82327 281.93124 382.41702 281.61874Q382.01077 281.29062 381.16702 281.29062L379.49515 281.29062L379.49515 284.00937Z" fill-rule="nonzero"/><path fill="#757575" d="M410.34427 286.19687Q410.18802 287.54062 409.34427 288.29062Q408.50052 289.025 407.1099 289.025Q405.59427 289.025 404.68802 287.94687Q403.78177 286.85312 403.78177 285.025L403.78177 284.2125Q403.78177 283.025 404.20364 282.11874Q404.62552 281.2125 405.40677 280.72812Q406.18802 280.24374 407.20364 280.24374Q408.56302 280.24374 409.37552 281.00937Q410.20364 281.775 410.34427 283.10312L409.21927 283.10312Q409.06302 282.0875 408.57864 281.63437Q408.09427 281.18124 407.20364 281.18124Q406.12552 281.18124 405.51614 281.97812Q404.90677 282.775 404.90677 284.24374L404.90677 285.07187Q404.90677 286.4625 405.4849 287.29062Q406.06302 288.10312 407.1099 288.10312Q408.0474 288.10312 408.5474 287.68124Q409.0474 287.24374 409.21927 286.19687L410.34427 286.19687ZM418.62552 288.9L417.50052 288.9L413.20364 282.32187L413.20364 288.9L412.06302 288.9L412.06302 280.36874L413.20364 280.36874L417.50052 286.97812L417.50052 280.36874L418.62552 280.36874L418.62552 288.9ZM422.28177 288.9L421.15677 288.9L421.15677 280.36874L422.28177 280.36874L422.28177 288.9Z" fill-rule="nonzero"/><path fill="#757575" d="M442.03717 286.19687Q441.88092 287.54062 441.03717 288.29062Q440.19342 289.025 438.8028 289.025Q437.28717 289.025 436.38092 287.94687Q435.47467 286.85312 435.47467 285.025L435.47467 284.2125Q435.47467 283.025 435.89655 282.11874Q436.31842 281.2125 437.09967 280.72812Q437.88092 280.24374 438.89655 280.24374Q440.25592 280.24374 441.06842 281.00937Q441.89655 281.775 442.03717 283.10312L440.91217 283.10312Q440.75592 282.0875 440.27155 281.63437Q439.78717 281.18124 438.89655 281.18124Q437.81842 281.18124 437.20905 281.97812Q436.59967 282.775 436.59967 284.24374L436.59967 285.07187Q436.59967 286.4625 437.1778 287.29062Q437.75592 288.10312 438.8028 288.10312Q439.7403 288.10312 440.2403 287.68124Q440.7403 287.24374 440.91217 286.19687L442.03717 286.19687ZM450.31842 288.9L449.19342 288.9L444.89655 282.32187L444.89655 288.9L443.75592 288.9L443.75592 280.36874L444.89655 280.36874L449.19342 286.97812L449.19342 280.36874L450.31842 280.36874L450.31842 288.9ZM452.75592 288.9L452.75592 280.36874L455.5528 280.36874Q456.94342 280.36874 457.63092 280.94687Q458.33405 281.50937 458.33405 282.63437Q458.33405 283.24374 457.9903 283.7125Q457.66217 284.16562 457.06842 284.41562Q457.77155 284.60312 458.16217 285.15Q458.56842 285.68124 458.56842 286.43124Q458.56842 287.5875 457.81842 288.24374Q457.08405 288.9 455.72467 288.9L452.75592 288.9ZM453.88092 284.91562L453.88092 287.97812L455.7403 287.97812Q456.53717 287.97812 456.9903 287.57187Q457.44342 287.16562 457.44342 286.44687Q457.44342 284.91562 455.75592 284.91562L453.88092 284.91562ZM453.88092 284.00937L455.58405 284.00937Q456.31842 284.00937 456.75592 283.65Q457.20905 283.275 457.20905 282.63437Q457.20905 281.93124 456.8028 281.61874Q456.39655 281.29062 455.5528 281.29062L453.88092 281.29062L453.88092 284.00937Z" fill-rule="nonzero"/><path fill="#757575" d="M478.73004 286.19687Q478.5738 287.54062 477.73004 288.29062Q476.8863 289.025 475.49567 289.025Q473.98004 289.025 473.0738 287.94687Q472.16754 286.85312 472.16754 285.025L472.16754 284.2125Q472.16754 283.025 472.58942 282.11874Q473.0113 281.2125 473.79254 280.72812Q474.5738 280.24374 475.58942 280.24374Q476.9488 280.24374 477.7613 281.00937Q478.58942 281.775 478.73004 283.10312L477.60504 283.10312Q477.4488 282.0875 476.96442 281.63437Q476.48004 281.18124 475.58942 281.18124Q474.5113 281.18124 473.90192 281.97812Q473.29254 282.775 473.29254 284.24374L473.29254 285.07187Q473.29254 286.4625 473.87067 287.29062Q474.4488 288.10312 475.49567 288.10312Q476.43317 288.10312 476.93317 287.68124Q477.43317 287.24374 477.60504 286.19687L478.73004 286.19687ZM481.66754 288.9L480.54254 288.9L480.54254 280.36874L481.66754 280.36874L481.66754 288.9ZM483.4488 288.9L483.4488 280.36874L486.24567 280.36874Q487.6363 280.36874 488.3238 280.94687Q489.02692 281.50937 489.02692 282.63437Q489.02692 283.24374 488.68317 283.7125Q488.35504 284.16562 487.7613 284.41562Q488.46442 284.60312 488.85504 285.15Q489.2613 285.68124 489.2613 286.43124Q489.2613 287.5875 488.5113 288.24374Q487.77692 288.9 486.41754 288.9L483.4488 288.9ZM484.5738 284.91562L484.5738 287.97812L486.43317 287.97812Q487.23004 287.97812 487.68317 287.57187Q488.1363 287.16562 488.1363 286.44687Q488.1363 284.91562 486.4488 284.91562L484.5738 284.91562ZM484.5738 284.00937L486.27692 284.00937Q487.0113 284.00937 487.4488 283.65Q487.90192 283.275 487.90192 282.63437Q487.90192 281.93124 487.49567 281.61874Q487.08942 281.29062 486.24567 281.29062L484.5738 281.29062L484.5738 284.00937Z" fill-rule="nonzero"/><path fill="#757575" d="M507.92294 286.19687Q507.7667 287.54062 506.92294 288.29062Q506.0792 289.025 504.68857 289.025Q503.17294 289.025 502.2667 287.94687Q501.36044 286.85312 501.36044 285.025L501.36044 284.2125Q501.36044 283.025 501.78232 282.11874Q502.2042 281.2125 502.98544 280.72812Q503.7667 280.24374 504.78232 280.24374Q506.1417 280.24374 506.9542 281.00937Q507.78232 281.775 507.92294 283.10312L506.79794 283.10312Q506.6417 282.0875 506.15732 281.63437Q505.67294 281.18124 504.78232 281.18124Q503.7042 281.18124 503.09482 281.97812Q502.48544 282.775 502.48544 284.24374L502.48544 285.07187Q502.48544 286.4625 503.06357 287.29062Q503.6417 288.10312 504.68857 288.10312Q505.62607 288.10312 506.12607 287.68124Q506.62607 287.24374 506.79794 286.19687L507.92294 286.19687ZM516.2042 288.9L515.0792 288.9L510.78232 282.32187L510.78232 288.9L509.6417 288.9L509.6417 280.36874L510.78232 280.36874L515.0792 286.97812L515.0792 280.36874L516.2042 280.36874L516.2042 288.9ZM519.8605 288.9L518.7355 288.9L518.7355 280.36874L519.8605 280.36874L519.8605 288.9ZM521.6417 288.9L521.6417 280.36874L524.4386 280.36874Q525.8292 280.36874 526.5167 280.94687Q527.21985 281.50937 527.21985 282.63437Q527.21985 283.24374 526.8761 283.7125Q526.548 284.16562 525.9542 284.41562Q526.65735 284.60312 527.048 285.15Q527.4542 285.68124 527.4542 286.43124Q527.4542 287.5875 526.7042 288.24374Q525.96985 288.9 524.6105 288.9L521.6417 288.9ZM522.7667 284.91562L522.7667 287.97812L524.6261 287.97812Q525.423 287.97812 525.8761 287.57187Q526.3292 287.16562 526.3292 286.44687Q526.3292 284.91562 524.6417 284.91562L522.7667 284.91562ZM522.7667 284.00937L524.46985 284.00937Q525.2042 284.00937 525.6417 283.65Q526.09485 283.275 526.09485 282.63437Q526.09485 281.93124 525.6886 281.61874Q525.28235 281.29062 524.4386 281.29062L522.7667 281.29062L522.7667 284.00937Z" fill-rule="nonzero"/><path fill="#757575" d="M26.6 29.818748L20.63125 29.818748L20.63125 36.1L18.75625 36.1L18.75625 21.881248L27.553125 21.881248L27.553125 23.428123L20.63125 23.428123L20.63125 28.287498L26.6 28.287498L26.6 29.818748ZM28.990625 30.724998Q28.990625 29.162498 29.6 27.928123Q30.209375 26.678123 31.2875 26.006248Q32.38125 25.334373 33.7875 25.334373Q35.94375 25.334373 37.271873 26.834373Q38.615623 28.318748 38.615623 30.803123L38.615623 30.928123Q38.615623 32.475 38.021873 33.709373Q37.428123 34.928123 36.31875 35.615623Q35.225 36.303123 33.803123 36.303123Q31.6625 36.303123 30.31875 34.803123Q28.990625 33.303123 28.990625 30.849998L28.990625 30.724998ZM30.803125 30.928123Q30.803125 32.69375 31.615625 33.75625Q32.44375 34.81875 33.803123 34.81875Q35.178123 34.81875 35.990623 33.740623Q36.803123 32.6625 36.803123 30.724998Q36.803123 28.974998 35.975 27.896873Q35.146873 26.818748 33.7875 26.818748Q32.44375 26.818748 31.615625 27.881248Q30.803125 28.943748 30.803125 30.928123ZM42.428123 36.1L40.63125 36.1L40.63125 21.099998L42.428123 21.099998L42.428123 36.1ZM48.4125 31.209373L47.2875 32.38125L47.2875 36.1L45.475 36.1L45.475 21.099998L47.2875 21.099998L47.2875 30.178123L48.25625 29.006248L51.5375 25.537498L53.740623 25.537498L49.63125 29.943748L54.225 36.1L52.1 36.1L48.4125 31.209373ZM55.834373 37.31875L54.271873 37.31875L60.209373 21.881248L61.75625 21.881248L55.834373 37.31875ZM65.63125 30.537498L65.63125 36.1L63.75625 36.1L63.75625 21.881248L68.99062 21.881248Q71.33437 21.881248 72.64687 23.068748Q73.975 24.256248 73.975 26.224998Q73.975 28.303123 72.67812 29.428123Q71.38125 30.537498 68.975 30.537498L65.63125 30.537498ZM65.63125 29.006248L68.99062 29.006248Q70.50625 29.006248 71.30312 28.303123Q72.1 27.584373 72.1 26.240623Q72.1 24.974998 71.30312 24.224998Q70.50625 23.459373 69.1 23.428123L65.63125 23.428123L65.63125 29.006248ZM78.42812 36.1L76.63125 36.1L76.63125 25.537498L78.42812 25.537498L78.42812 36.1ZM76.475 22.724998Q76.475 22.287498 76.74062 21.990623Q77.02187 21.678123 77.5375 21.678123Q78.06875 21.678123 78.33437 21.990623Q78.61562 22.287498 78.61562 22.724998Q78.61562 23.162498 78.33437 23.459373Q78.06875 23.756248 77.5375 23.756248Q77.02187 23.756248 76.74062 23.459373Q76.475 23.162498 76.475 22.724998ZM83.9125 22.974998L83.9125 25.537498L85.89687 25.537498L85.89687 26.928123L83.9125 26.928123L83.9125 33.475Q83.9125 34.115623 84.17812 34.44375Q84.44375 34.75625 85.08437 34.75625Q85.39687 34.75625 85.94375 34.63125L85.94375 36.1Q85.225 36.303123 84.55312 36.303123Q83.35 36.303123 82.725 35.56875Q82.11562 34.834373 82.11562 33.475L82.11562 26.928123L80.19375 26.928123L80.19375 25.537498L82.11562 25.537498L82.11562 22.974998L83.9125 22.974998ZM92.70937 34.81875Q93.67812 34.81875 94.39687 34.240623Q95.11562 33.646873 95.19375 32.771873L96.9125 32.771873Q96.85 33.678123 96.27187 34.50625Q95.70937 35.31875 94.74062 35.81875Q93.7875 36.303123 92.70937 36.303123Q90.55312 36.303123 89.27187 34.865623Q88.00625 33.4125 88.00625 30.912498L88.00625 30.615623Q88.00625 29.068748 88.56875 27.865623Q89.13125 26.662498 90.19375 26.006248Q91.25625 25.334373 92.69375 25.334373Q94.475 25.334373 95.64687 26.396873Q96.83437 27.459373 96.9125 29.162498L95.19375 29.162498Q95.11562 28.146873 94.4125 27.490623Q93.725 26.818748 92.69375 26.818748Q91.31875 26.818748 90.55312 27.818748Q89.80312 28.803123 89.80312 30.678123L89.80312 31.021873Q89.80312 32.85 90.55312 33.834373Q91.30312 34.81875 92.70937 34.81875ZM100.27187 26.818748Q101.475 25.334373 103.39687 25.334373Q106.75625 25.334373 106.77187 29.115623L106.77187 36.1L104.975 36.1L104.975 29.099998Q104.95937 27.959373 104.44375 27.412498Q103.94375 26.865623 102.85 26.865623Q101.975 26.865623 101.30312 27.334373Q100.64687 27.803123 100.27187 28.568748L100.27187 36.1L98.475 36.1L98.475 21.099998L100.27187 21.099998L100.27187 26.818748Z" fill-rule="nonzero"/></svg>