<svg version="1.1" viewBox="0.0 0.0 572.0 353.0" fill="none" stroke="none" stroke-linecap="square" stroke-miterlimit="10" width="572" height="353" xmlns:xlink="http://www.w3.org/1999/xlink" xmlns="http://www.w3.org/2000/svg"><path fill="#ffffff" d="M0 0L572.0 0L572.0 353.0L0 353.0L0 0Z" fill-rule="nonzero"/><path stroke="#cccccc" stroke-width="1.0" stroke-linecap="butt" d="M87.5 281.5L554.5 281.5" fill-rule="nonzero"/><path stroke="#cccccc" stroke-width="1.0" stroke-linecap="butt" d="M87.5 207.5L554.5 207.5" fill-rule="nonzero"/><path stroke="#cccccc" stroke-width="1.0" stroke-linecap="butt" d="M87.5 134.5L554.5 134.5" fill-rule="nonzero"/><path stroke="#cccccc" stroke-width="1.0" stroke-linecap="butt" d="M87.5 60.5L554.5 60.5" fill-rule="nonzero"/><clipPath id="id_0"><path d="M87.65 60.916668L554.35 60.916668L554.35 281.35L87.65 281.35L87.65 60.916668Z" clip-rule="nonzero"/></clipPath><path stroke="#000000" stroke-width="0.0" stroke-linecap="butt" stroke-opacity="0.0" clip-path="url(#id_0)" d="M123.0 281.0L100.0 281.0L100.0 89.0C100.0 87.89543 100.89543 87.0 102.0 87.0L121.0 87.0C122.10457 87.0 123.0 87.89543 123.0 89.0Z" fill-rule="nonzero"/><path fill="#4285f4" clip-path="url(#id_0)" d="M123.0 281.0L100.0 281.0L100.0 89.0C100.0 87.89543 100.89543 87.0 102.0 87.0L121.0 87.0C122.10457 87.0 123.0 87.89543 123.0 89.0Z" fill-rule="nonzero"/><path stroke="#000000" stroke-width="0.0" stroke-linecap="butt" stroke-opacity="0.0" clip-path="url(#id_0)" d="M158.0 281.0L135.0 281.0L135.0 220.0C135.0 218.89543 135.89543 218.0 137.0 218.0L156.0 218.0C157.10457 218.0 158.0 218.89543 158.0 220.0Z" fill-rule="nonzero"/><path fill="#4285f4" clip-path="url(#id_0)" d="M158.0 281.0L135.0 281.0L135.0 220.0C135.0 218.89543 135.89543 218.0 137.0 218.0L156.0 218.0C157.10457 218.0 158.0 218.89543 158.0 220.0Z" fill-rule="nonzero"/><path stroke="#000000" stroke-width="0.0" stroke-linecap="butt" stroke-opacity="0.0" clip-path="url(#id_0)" d="M193.0 281.0L170.0 281.0L170.0 182.0C170.0 180.89543 170.89543 180.0 172.0 180.0L191.0 180.0C192.10457 180.0 193.0 180.89543 193.0 182.0Z" fill-rule="nonzero"/><path fill="#4285f4" clip-path="url(#id_0)" d="M193.0 281.0L170.0 281.0L170.0 182.0C170.0 180.89543 170.89543 180.0 172.0 180.0L191.0 180.0C192.10457 180.0 193.0 180.89543 193.0 182.0Z" fill-rule="nonzero"/><path stroke="#000000" stroke-width="0.0" stroke-linecap="butt" stroke-opacity="0.0" clip-path="url(#id_0)" d="M228.0 281.0L205.0 281.0L205.0 201.0C205.0 199.89543 205.89543 199.0 207.0 199.0L226.0 199.0C227.10457 199.0 228.0 199.89543 228.0 201.0Z" fill-rule="nonzero"/><path fill="#4285f4" clip-path="url(#id_0)" d="M228.0 281.0L205.0 281.0L205.0 201.0C205.0 199.89543 205.89543 199.0 207.0 199.0L226.0 199.0C227.10457 199.0 228.0 199.89543 228.0 201.0Z" fill-rule="nonzero"/><path stroke="#000000" stroke-width="0.0" stroke-linecap="butt" stroke-opacity="0.0" clip-path="url(#id_0)" d="M263.0 281.0L240.0 281.0L240.0 133.0C240.0 131.89543 240.89543 131.0 242.0 131.0L261.0 131.0C262.10458 131.0 263.0 131.89543 263.0 133.0Z" fill-rule="nonzero"/><path fill="#4285f4" clip-path="url(#id_0)" d="M263.0 281.0L240.0 281.0L240.0 133.0C240.0 131.89543 240.89543 131.0 242.0 131.0L261.0 131.0C262.10458 131.0 263.0 131.89543 263.0 133.0Z" fill-rule="nonzero"/><path stroke="#000000" stroke-width="0.0" stroke-linecap="butt" stroke-opacity="0.0" clip-path="url(#id_0)" d="M298.0 281.0L275.0 281.0L275.0 236.0C275.0 234.89543 275.89542 234.0 277.0 234.0L296.0 234.0C297.10458 234.0 298.0 234.89543 298.0 236.0Z" fill-rule="nonzero"/><path fill="#4285f4" clip-path="url(#id_0)" d="M298.0 281.0L275.0 281.0L275.0 236.0C275.0 234.89543 275.89542 234.0 277.0 234.0L296.0 234.0C297.10458 234.0 298.0 234.89543 298.0 236.0Z" fill-rule="nonzero"/><path stroke="#000000" stroke-width="0.0" stroke-linecap="butt" stroke-opacity="0.0" clip-path="url(#id_0)" d="M333.0 281.0L310.0 281.0L310.0 202.0C310.0 200.89543 310.89542 200.0 312.0 200.0L331.0 200.0C332.10458 200.0 333.0 200.89543 333.0 202.0Z" fill-rule="nonzero"/><path fill="#4285f4" clip-path="url(#id_0)" d="M333.0 281.0L310.0 281.0L310.0 202.0C310.0 200.89543 310.89542 200.0 312.0 200.0L331.0 200.0C332.10458 200.0 333.0 200.89543 333.0 202.0Z" fill-rule="nonzero"/><path stroke="#000000" stroke-width="0.0" stroke-linecap="butt" stroke-opacity="0.0" clip-path="url(#id_0)" d="M368.0 281.0L345.0 281.0L345.0 205.0C345.0 203.89543 345.89542 203.0 347.0 203.0L366.0 203.0C367.10458 203.0 368.0 203.89543 368.0 205.0Z" fill-rule="nonzero"/><path fill="#4285f4" clip-path="url(#id_0)" d="M368.0 281.0L345.0 281.0L345.0 205.0C345.0 203.89543 345.89542 203.0 347.0 203.0L366.0 203.0C367.10458 203.0 368.0 203.89543 368.0 205.0Z" fill-rule="nonzero"/><path stroke="#000000" stroke-width="0.0" stroke-linecap="butt" stroke-opacity="0.0" clip-path="url(#id_0)" d="M403.0 281.0L380.0 281.0L380.0 233.0C380.0 231.89543 380.89542 231.0 382.0 231.0L401.0 231.0C402.10458 231.0 403.0 231.89543 403.0 233.0Z" fill-rule="nonzero"/><path fill="#4285f4" clip-path="url(#id_0)" d="M403.0 281.0L380.0 281.0L380.0 233.0C380.0 231.89543 380.89542 231.0 382.0 231.0L401.0 231.0C402.10458 231.0 403.0 231.89543 403.0 233.0Z" fill-rule="nonzero"/><path stroke="#000000" stroke-width="0.0" stroke-linecap="butt" stroke-opacity="0.0" clip-path="url(#id_0)" d="M438.0 281.0L415.0 281.0L415.0 247.0C415.0 245.89543 415.89542 245.0 417.0 245.0L436.0 245.0C437.10458 245.0 438.0 245.89543 438.0 247.0Z" fill-rule="nonzero"/><path fill="#4285f4" clip-path="url(#id_0)" d="M438.0 281.0L415.0 281.0L415.0 247.0C415.0 245.89543 415.89542 245.0 417.0 245.0L436.0 245.0C437.10458 245.0 438.0 245.89543 438.0 247.0Z" fill-rule="nonzero"/><path stroke="#000000" stroke-width="0.0" stroke-linecap="butt" stroke-opacity="0.0" clip-path="url(#id_0)" d="M473.0 281.0L450.0 281.0L450.0 220.0C450.0 218.89543 450.89542 218.0 452.0 218.0L471.0 218.0C472.10458 218.0 473.0 218.89543 473.0 220.0Z" fill-rule="nonzero"/><path fill="#4285f4" clip-path="url(#id_0)" d="M473.0 281.0L450.0 281.0L450.0 220.0C450.0 218.89543 450.89542 218.0 452.0 218.0L471.0 218.0C472.10458 218.0 473.0 218.89543 473.0 220.0Z" fill-rule="nonzero"/><path stroke="#000000" stroke-width="0.0" stroke-linecap="butt" stroke-opacity="0.0" clip-path="url(#id_0)" d="M508.0 281.0L485.0 281.0L485.0 251.0C485.0 249.89543 485.89542 249.0 487.0 249.0L506.0 249.0C507.10458 249.0 508.0 249.89543 508.0 251.0Z" fill-rule="nonzero"/><path fill="#4285f4" clip-path="url(#id_0)" d="M508.0 281.0L485.0 281.0L485.0 251.0C485.0 249.89543 485.89542 249.0 487.0 249.0L506.0 249.0C507.10458 249.0 508.0 249.89543 508.0 251.0Z" fill-rule="nonzero"/><path stroke="#000000" stroke-width="0.0" stroke-linecap="butt" stroke-opacity="0.0" clip-path="url(#id_0)" d="M543.0 281.0L520.0 281.0L520.0 255.0C520.0 253.89543 520.89545 253.0 522.0 253.0L541.0 253.0C542.10455 253.0 543.0 253.89543 543.0 255.0Z" fill-rule="nonzero"/><path fill="#4285f4" clip-path="url(#id_0)" d="M543.0 281.0L520.0 281.0L520.0 255.0C520.0 253.89543 520.89545 253.0 522.0 253.0L541.0 253.0C542.10455 253.0 543.0 253.89543 543.0 255.0Z" fill-rule="nonzero"/><path fill="#424242" d="M251.26562 329.64688Q251.10938 330.99063 250.26562 331.74063Q249.42188 332.475 248.03125 332.475Q246.51562 332.475 245.60938 331.39688Q244.70312 330.30313 244.70312 328.475L244.70312 327.6625Q244.70312 326.475 245.125 325.56876Q245.54688 324.6625 246.32812 324.17813Q247.10938 323.69376 248.125 323.69376Q249.48438 323.69376 250.29688 324.45938Q251.125 325.225 251.26562 326.55313L250.14062 326.55313Q249.98438 325.5375 249.5 325.08438Q249.01562 324.63126 248.125 324.63126Q247.04688 324.63126 246.4375 325.42813Q245.82812 326.225 245.82812 327.69376L245.82812 328.52188Q245.82812 329.9125 246.40625 330.74063Q246.98438 331.55313 248.03125 331.55313Q248.96875 331.55313 249.46875 331.13126Q249.96875 330.69376 250.14062 329.64688L251.26562 329.64688ZM252.53125 329.11563Q252.53125 328.19376 252.89062 327.44376Q253.26562 326.69376 253.92188 326.30313Q254.57812 325.89688 255.40625 325.89688Q256.70312 325.89688 257.5 326.7875Q258.3125 327.67813 258.3125 329.17813L258.3125 329.25626Q258.3125 330.17813 257.95312 330.9125Q257.59375 331.64688 256.9375 332.06876Q256.28125 332.475 255.42188 332.475Q254.14062 332.475 253.32812 331.58438Q252.53125 330.67813 252.53125 329.19376L252.53125 329.11563ZM253.625 329.25626Q253.625 330.30313 254.10938 330.94376Q254.60938 331.58438 255.42188 331.58438Q256.25 331.58438 256.73438 330.94376Q257.21875 330.2875 257.21875 329.11563Q257.21875 328.08438 256.71875 327.44376Q256.23438 326.7875 255.40625 326.7875Q254.60938 326.7875 254.10938 327.42813Q253.625 328.05313 253.625 329.25626ZM260.84375 326.00626L260.875 326.80313Q261.60938 325.89688 262.78125 325.89688Q264.79688 325.89688 264.8125 328.1625L264.8125 332.35L263.71875 332.35L263.71875 328.14688Q263.71875 327.475 263.40625 327.14688Q263.10938 326.81876 262.45312 326.81876Q261.92188 326.81876 261.51562 327.1Q261.125 327.38126 260.90625 327.83438L260.90625 332.35L259.82812 332.35L259.82812 326.00626L260.84375 326.00626ZM266.5625 329.13126Q266.5625 327.6625 267.25 326.7875Q267.9375 325.89688 269.0625 325.89688Q270.17188 325.89688 270.82812 326.64688L270.82812 323.35L271.90625 323.35L271.90625 332.35L270.90625 332.35L270.85938 331.6625Q270.20312 332.475 269.04688 332.475Q267.95312 332.475 267.25 331.56876Q266.5625 330.6625 266.5625 329.20938L266.5625 329.13126ZM267.64062 329.25626Q267.64062 330.33438 268.07812 330.94376Q268.53125 331.55313 269.3125 331.55313Q270.34375 331.55313 270.82812 330.61563L270.82812 327.70938Q270.34375 326.81876 269.32812 326.81876Q268.53125 326.81876 268.07812 327.42813Q267.64062 328.0375 267.64062 329.25626ZM275.0 332.35L273.92188 332.35L273.92188 326.00626L275.0 326.00626L275.0 332.35ZM273.82812 324.33438Q273.82812 324.06876 273.98438 323.88126Q274.15625 323.69376 274.46875 323.69376Q274.78125 323.69376 274.9375 323.88126Q275.10938 324.06876 275.10938 324.33438Q275.10938 324.58438 274.9375 324.77188Q274.78125 324.94376 274.46875 324.94376Q274.15625 324.94376 273.98438 324.77188Q273.82812 324.58438 273.82812 324.33438ZM278.29688 324.475L278.29688 326.00626L279.46875 326.00626L279.46875 326.85L278.29688 326.85L278.29688 330.77188Q278.29688 331.1625 278.45312 331.35Q278.60938 331.5375 278.98438 331.5375Q279.17188 331.5375 279.5 331.475L279.5 332.35Q279.07812 332.475 278.67188 332.475Q277.95312 332.475 277.57812 332.0375Q277.20312 331.58438 277.20312 330.77188L277.20312 326.85L276.04688 326.85L276.04688 326.00626L277.20312 326.00626L277.20312 324.475L278.29688 324.475ZM282.0 332.35L280.92188 332.35L280.92188 326.00626L282.0 326.00626L282.0 332.35ZM280.82812 324.33438Q280.82812 324.06876 280.98438 323.88126Q281.15625 323.69376 281.46875 323.69376Q281.78125 323.69376 281.9375 323.88126Q282.10938 324.06876 282.10938 324.33438Q282.10938 324.58438 281.9375 324.77188Q281.78125 324.94376 281.46875 324.94376Q281.15625 324.94376 280.98438 324.77188Q280.82812 324.58438 280.82812 324.33438ZM283.53125 329.11563Q283.53125 328.19376 283.89062 327.44376Q284.26562 326.69376 284.92188 326.30313Q285.57812 325.89688 286.40625 325.89688Q287.70312 325.89688 288.5 326.7875Q289.3125 327.67813 289.3125 329.17813L289.3125 329.25626Q289.3125 330.17813 288.95312 330.9125Q288.59375 331.64688 287.9375 332.06876Q287.28125 332.475 286.42188 332.475Q285.14062 332.475 284.32812 331.58438Q283.53125 330.67813 283.53125 329.19376L283.53125 329.11563ZM284.625 329.25626Q284.625 330.30313 285.10938 330.94376Q285.60938 331.58438 286.42188 331.58438Q287.25 331.58438 287.73438 330.94376Q288.21875 330.2875 288.21875 329.11563Q288.21875 328.08438 287.71875 327.44376Q287.23438 326.7875 286.40625 326.7875Q285.60938 326.7875 285.10938 327.42813Q284.625 328.05313 284.625 329.25626ZM291.84375 326.00626L291.875 326.80313Q292.60938 325.89688 293.78125 325.89688Q295.79688 325.89688 295.8125 328.1625L295.8125 332.35L294.71875 332.35L294.71875 328.14688Q294.71875 327.475 294.40625 327.14688Q294.10938 326.81876 293.45312 326.81876Q292.92188 326.81876 292.51562 327.1Q292.125 327.38126 291.90625 327.83438L291.90625 332.35L290.82812 332.35L290.82812 326.00626L291.84375 326.00626ZM299.0 332.35L297.92188 332.35L297.92188 326.00626L299.0 326.00626L299.0 332.35ZM297.82812 324.33438Q297.82812 324.06876 297.98438 323.88126Q298.15625 323.69376 298.46875 323.69376Q298.78125 323.69376 298.9375 323.88126Q299.10938 324.06876 299.10938 324.33438Q299.10938 324.58438 298.9375 324.77188Q298.78125 324.94376 298.46875 324.94376Q298.15625 324.94376 297.98438 324.77188Q297.82812 324.58438 297.82812 324.33438ZM301.84375 326.00626L301.875 326.80313Q302.60938 325.89688 303.78125 325.89688Q305.79688 325.89688 305.8125 328.1625L305.8125 332.35L304.71875 332.35L304.71875 328.14688Q304.71875 327.475 304.40625 327.14688Q304.10938 326.81876 303.45312 326.81876Q302.92188 326.81876 302.51562 327.1Q302.125 327.38126 301.90625 327.83438L301.90625 332.35L300.82812 332.35L300.82812 326.00626L301.84375 326.00626ZM307.5625 329.13126Q307.5625 327.64688 308.25 326.77188Q308.9375 325.89688 310.0625 325.89688Q311.21875 325.89688 311.875 326.70938L311.92188 326.00626L312.92188 326.00626L312.92188 332.19376Q312.92188 333.42813 312.1875 334.13126Q311.45312 334.85 310.23438 334.85Q309.54688 334.85 308.89062 334.55313Q308.23438 334.25626 307.89062 333.75626L308.45312 333.1Q309.14062 333.95938 310.15625 333.95938Q310.9375 333.95938 311.375 333.50626Q311.82812 333.06876 311.82812 332.25626L311.82812 331.70938Q311.17188 332.475 310.04688 332.475Q308.9375 332.475 308.25 331.58438Q307.5625 330.67813 307.5625 329.13126ZM308.65625 329.25626Q308.65625 330.31876 309.09375 330.94376Q309.53125 331.55313 310.32812 331.55313Q311.34375 331.55313 311.82812 330.61563L311.82812 327.725Q311.32812 326.81876 310.32812 326.81876Q309.54688 326.81876 309.09375 327.42813Q308.65625 328.0375 308.65625 329.25626ZM324.26562 329.64688Q324.10938 330.99063 323.26562 331.74063Q322.42188 332.475 321.03125 332.475Q319.51562 332.475 318.60938 331.39688Q317.70312 330.30313 317.70312 328.475L317.70312 327.6625Q317.70312 326.475 318.125 325.56876Q318.54688 324.6625 319.32812 324.17813Q320.10938 323.69376 321.125 323.69376Q322.48438 323.69376 323.29688 324.45938Q324.125 325.225 324.26562 326.55313L323.14062 326.55313Q322.98438 325.5375 322.5 325.08438Q322.01562 324.63126 321.125 324.63126Q320.04688 324.63126 319.4375 325.42813Q318.82812 326.225 318.82812 327.69376L318.82812 328.52188Q318.82812 329.9125 319.40625 330.74063Q319.98438 331.55313 321.03125 331.55313Q321.96875 331.55313 322.46875 331.13126Q322.96875 330.69376 323.14062 329.64688L324.26562 329.64688ZM325.53125 329.11563Q325.53125 328.19376 325.89062 327.44376Q326.26562 326.69376 326.92188 326.30313Q327.57812 325.89688 328.40625 325.89688Q329.70312 325.89688 330.5 326.7875Q331.3125 327.67813 331.3125 329.17813L331.3125 329.25626Q331.3125 330.17813 330.95312 330.9125Q330.59375 331.64688 329.9375 332.06876Q329.28125 332.475 328.42188 332.475Q327.14062 332.475 326.32812 331.58438Q325.53125 330.67813 325.53125 329.19376L325.53125 329.11563ZM326.625 329.25626Q326.625 330.30313 327.10938 330.94376Q327.60938 331.58438 328.42188 331.58438Q329.25 331.58438 329.73438 330.94376Q330.21875 330.2875 330.21875 329.11563Q330.21875 328.08438 329.71875 327.44376Q329.23438 326.7875 328.40625 326.7875Q327.60938 326.7875 327.10938 327.42813Q326.625 328.05313 326.625 329.25626ZM333.84375 326.00626L333.875 326.80313Q334.60938 325.89688 335.78125 325.89688Q337.79688 325.89688 337.8125 328.1625L337.8125 332.35L336.71875 332.35L336.71875 328.14688Q336.71875 327.475 336.40625 327.14688Q336.10938 326.81876 335.45312 326.81876Q334.92188 326.81876 334.51562 327.1Q334.125 327.38126 333.90625 327.83438L333.90625 332.35L332.82812 332.35L332.82812 326.00626L333.84375 326.00626ZM340.35938 332.35L340.35938 326.85L339.35938 326.85L339.35938 326.00626L340.35938 326.00626L340.35938 325.36563Q340.35938 324.33438 340.89062 323.7875Q341.4375 323.225 342.4375 323.225Q342.8125 323.225 343.1875 323.31876L343.125 324.20938Q342.84375 324.14688 342.54688 324.14688Q342.01562 324.14688 341.71875 324.45938Q341.4375 324.77188 341.4375 325.33438L341.4375 326.00626L342.79688 326.00626L342.79688 326.85L341.4375 326.85L341.4375 332.35L340.35938 332.35ZM345.0 332.35L343.92188 332.35L343.92188 326.00626L345.0 326.00626L345.0 332.35ZM343.82812 324.33438Q343.82812 324.06876 343.98438 323.88126Q344.15625 323.69376 344.46875 323.69376Q344.78125 323.69376 344.9375 323.88126Q345.10938 324.06876 345.10938 324.33438Q345.10938 324.58438 344.9375 324.77188Q344.78125 324.94376 344.46875 324.94376Q344.15625 324.94376 343.98438 324.77188Q343.82812 324.58438 343.82812 324.33438ZM346.5625 329.13126Q346.5625 327.64688 347.25 326.77188Q347.9375 325.89688 349.0625 325.89688Q350.21875 325.89688 350.875 326.70938L350.92188 326.00626L351.92188 326.00626L351.92188 332.19376Q351.92188 333.42813 351.1875 334.13126Q350.45312 334.85 349.23438 334.85Q348.54688 334.85 347.89062 334.55313Q347.23438 334.25626 346.89062 333.75626L347.45312 333.1Q348.14062 333.95938 349.15625 333.95938Q349.9375 333.95938 350.375 333.50626Q350.82812 333.06876 350.82812 332.25626L350.82812 331.70938Q350.17188 332.475 349.04688 332.475Q347.9375 332.475 347.25 331.58438Q346.5625 330.67813 346.5625 329.13126ZM347.65625 329.25626Q347.65625 330.31876 348.09375 330.94376Q348.53125 331.55313 349.32812 331.55313Q350.34375 331.55313 350.82812 330.61563L350.82812 327.725Q350.32812 326.81876 349.32812 326.81876Q348.54688 326.81876 348.09375 327.42813Q347.65625 328.0375 347.65625 329.25626ZM357.73438 331.725Q357.10938 332.475 355.875 332.475Q354.85938 332.475 354.32812 331.88126Q353.79688 331.2875 353.79688 330.13126L353.79688 326.00626L354.875 326.00626L354.875 330.1Q354.875 331.55313 356.04688 331.55313Q357.29688 331.55313 357.70312 330.61563L357.70312 326.00626L358.79688 326.00626L358.79688 332.35L357.76562 332.35L357.73438 331.725ZM363.89062 326.975Q363.64062 326.94376 363.35938 326.94376Q362.28125 326.94376 361.90625 327.85L361.90625 332.35L360.82812 332.35L360.82812 326.00626L361.875 326.00626L361.89062 326.74063Q362.42188 325.89688 363.40625 325.89688Q363.71875 325.89688 363.89062 325.975L363.89062 326.975ZM368.73438 332.35Q368.64062 332.1625 368.57812 331.67813Q367.82812 332.475 366.78125 332.475Q365.84375 332.475 365.23438 331.94376Q364.64062 331.4125 364.64062 330.58438Q364.64062 329.6 365.39062 329.05313Q366.14062 328.50626 367.51562 328.50626L368.5625 328.50626L368.5625 328.00626Q368.5625 327.44376 368.21875 327.11563Q367.89062 326.77188 367.21875 326.77188Q366.64062 326.77188 366.25 327.06876Q365.85938 327.35 365.85938 327.77188L364.76562 327.77188Q364.76562 327.2875 365.09375 326.85Q365.4375 326.4125 366.01562 326.1625Q366.59375 325.89688 367.28125 325.89688Q368.39062 325.89688 369.0 326.44376Q369.625 326.99063 369.65625 327.94376L369.65625 330.86563Q369.65625 331.74063 369.875 332.25626L369.875 332.35L368.73438 332.35ZM366.9375 331.52188Q367.45312 331.52188 367.90625 331.25626Q368.35938 330.99063 368.5625 330.56876L368.5625 329.27188L367.71875 329.27188Q365.71875 329.27188 365.71875 330.44376Q365.71875 330.94376 366.0625 331.24063Q366.40625 331.52188 366.9375 331.52188ZM373.29688 324.475L373.29688 326.00626L374.46875 326.00626L374.46875 326.85L373.29688 326.85L373.29688 330.77188Q373.29688 331.1625 373.45312 331.35Q373.60938 331.5375 373.98438 331.5375Q374.17188 331.5375 374.5 331.475L374.5 332.35Q374.07812 332.475 373.67188 332.475Q372.95312 332.475 372.57812 332.0375Q372.20312 331.58438 372.20312 330.77188L372.20312 326.85L371.04688 326.85L371.04688 326.00626L372.20312 326.00626L372.20312 324.475L373.29688 324.475ZM377.0 332.35L375.92188 332.35L375.92188 326.00626L377.0 326.00626L377.0 332.35ZM375.82812 324.33438Q375.82812 324.06876 375.98438 323.88126Q376.15625 323.69376 376.46875 323.69376Q376.78125 323.69376 376.9375 323.88126Q377.10938 324.06876 377.10938 324.33438Q377.10938 324.58438 376.9375 324.77188Q376.78125 324.94376 376.46875 324.94376Q376.15625 324.94376 375.98438 324.77188Q375.82812 324.58438 375.82812 324.33438ZM378.53125 329.11563Q378.53125 328.19376 378.89062 327.44376Q379.26562 326.69376 379.92188 326.30313Q380.57812 325.89688 381.40625 325.89688Q382.70312 325.89688 383.5 326.7875Q384.3125 327.67813 384.3125 329.17813L384.3125 329.25626Q384.3125 330.17813 383.95312 330.9125Q383.59375 331.64688 382.9375 332.06876Q382.28125 332.475 381.42188 332.475Q380.14062 332.475 379.32812 331.58438Q378.53125 330.67813 378.53125 329.19376L378.53125 329.11563ZM379.625 329.25626Q379.625 330.30313 380.10938 330.94376Q380.60938 331.58438 381.42188 331.58438Q382.25 331.58438 382.73438 330.94376Q383.21875 330.2875 383.21875 329.11563Q383.21875 328.08438 382.71875 327.44376Q382.23438 326.7875 381.40625 326.7875Q380.60938 326.7875 380.10938 327.42813Q379.625 328.05313 379.625 329.25626ZM386.84375 326.00626L386.875 326.80313Q387.60938 325.89688 388.78125 325.89688Q390.79688 325.89688 390.8125 328.1625L390.8125 332.35L389.71875 332.35L389.71875 328.14688Q389.71875 327.475 389.40625 327.14688Q389.10938 326.81876 388.45312 326.81876Q387.92188 326.81876 387.51562 327.1Q387.125 327.38126 386.90625 327.83438L386.90625 332.35L385.82812 332.35L385.82812 326.00626L386.84375 326.00626ZM396.51562 330.6625Q396.51562 330.225 396.17188 329.99063Q395.84375 329.74063 395.01562 329.56876Q394.20312 329.39688 393.71875 329.14688Q393.23438 328.89688 393.0 328.56876Q392.78125 328.225 392.78125 327.75626Q392.78125 326.975 393.4375 326.44376Q394.09375 325.89688 395.125 325.89688Q396.20312 325.89688 396.85938 326.45938Q397.53125 327.00626 397.53125 327.86563L396.45312 327.86563Q396.45312 327.42813 396.0625 327.11563Q395.6875 326.7875 395.125 326.7875Q394.53125 326.7875 394.1875 327.05313Q393.85938 327.30313 393.85938 327.70938Q393.85938 328.1 394.17188 328.30313Q394.48438 328.50626 395.29688 328.69376Q396.10938 328.86563 396.60938 329.11563Q397.10938 329.36563 397.34375 329.725Q397.59375 330.08438 397.59375 330.58438Q397.59375 331.44376 396.90625 331.95938Q396.23438 332.475 395.15625 332.475Q394.39062 332.475 393.79688 332.20938Q393.21875 331.92813 392.89062 331.44376Q392.5625 330.95938 392.5625 330.39688L393.64062 330.39688Q393.67188 330.94376 394.07812 331.27188Q394.48438 331.58438 395.15625 331.58438Q395.76562 331.58438 396.14062 331.33438Q396.51562 331.08438 396.51562 330.6625Z" fill-rule="nonzero"/><path fill="#424242" d="M28.150005 214.07083L21.118755 211.63333L21.118755 210.39896L29.650005 213.57083L29.650005 214.5552L21.118755 217.71146L21.118755 216.4927L28.150005 214.07083ZM29.650005 205.14896Q29.462505 205.2427 28.97813 205.3052Q29.775005 206.0552 29.775005 207.10208Q29.775005 208.03958 29.243755 208.64896Q28.712505 209.2427 27.88438 209.2427Q26.900005 209.2427 26.35313 208.4927Q25.806255 207.7427 25.806255 206.3677L25.806255 205.32083L25.306255 205.32083Q24.743755 205.32083 24.41563 205.66458Q24.07188 205.9927 24.07188 206.66458Q24.07188 207.2427 24.368755 207.63333Q24.650005 208.02396 25.07188 208.02396L25.07188 209.1177Q24.587505 209.1177 24.150005 208.78958Q23.712505 208.44583 23.462505 207.8677Q23.19688 207.28958 23.19688 206.60208Q23.19688 205.4927 23.743755 204.88333Q24.29063 204.25833 25.243755 204.22708L28.16563 204.22708Q29.04063 204.22708 29.556255 204.00833L29.650005 204.00833L29.650005 205.14896ZM28.82188 206.94583Q28.82188 206.4302 28.556255 205.97708Q28.29063 205.52396 27.868755 205.32083L26.57188 205.32083L26.57188 206.16458Q26.57188 208.16458 27.743755 208.16458Q28.243755 208.16458 28.54063 207.82083Q28.82188 207.47708 28.82188 206.94583ZM29.650005 200.88333L29.650005 201.96146L20.650005 201.96146L20.650005 200.88333L29.650005 200.88333ZM29.650005 197.88333L29.650005 198.96146L23.306255 198.96146L23.306255 197.88333L29.650005 197.88333ZM21.63438 199.0552Q21.368755 199.0552 21.181255 198.89896Q20.993755 198.72708 20.993755 198.41458Q20.993755 198.10208 21.181255 197.94583Q21.368755 197.77396 21.63438 197.77396Q21.88438 197.77396 22.07188 197.94583Q22.243755 198.10208 22.243755 198.41458Q22.243755 198.72708 22.07188 198.89896Q21.88438 199.0552 21.63438 199.0552ZM26.431255 196.32083Q24.962505 196.32083 24.087505 195.63333Q23.19688 194.94583 23.19688 193.82083Q23.19688 192.71146 23.94688 192.0552L20.650005 192.0552L20.650005 190.97708L29.650005 190.97708L29.650005 191.97708L28.962505 192.02396Q29.775005 192.6802 29.775005 193.83646Q29.775005 194.9302 28.868755 195.63333Q27.962505 196.32083 26.50938 196.32083L26.431255 196.32083ZM26.556255 195.2427Q27.63438 195.2427 28.243755 194.8052Q28.85313 194.35208 28.85313 193.57083Q28.85313 192.53958 27.91563 192.0552L25.00938 192.0552Q24.118755 192.53958 24.118755 193.5552Q24.118755 194.35208 24.72813 194.8052Q25.337505 195.2427 26.556255 195.2427ZM29.650005 185.14896Q29.462505 185.2427 28.97813 185.3052Q29.775005 186.0552 29.775005 187.10208Q29.775005 188.03958 29.243755 188.64896Q28.712505 189.2427 27.88438 189.2427Q26.900005 189.2427 26.35313 188.4927Q25.806255 187.7427 25.806255 186.3677L25.806255 185.32083L25.306255 185.32083Q24.743755 185.32083 24.41563 185.66458Q24.07188 185.9927 24.07188 186.66458Q24.07188 187.2427 24.368755 187.63333Q24.650005 188.02396 25.07188 188.02396L25.07188 189.1177Q24.587505 189.1177 24.150005 188.78958Q23.712505 188.44583 23.462505 187.8677Q23.19688 187.28958 23.19688 186.60208Q23.19688 185.4927 23.743755 184.88333Q24.29063 184.25833 25.243755 184.22708L28.16563 184.22708Q29.04063 184.22708 29.556255 184.00833L29.650005 184.00833L29.650005 185.14896ZM28.82188 186.94583Q28.82188 186.4302 28.556255 185.97708Q28.29063 185.52396 27.868755 185.32083L26.57188 185.32083L26.57188 186.16458Q26.57188 188.16458 27.743755 188.16458Q28.243755 188.16458 28.54063 187.82083Q28.82188 187.47708 28.82188 186.94583ZM21.775005 180.58646L23.306255 180.58646L23.306255 179.41458L24.150005 179.41458L24.150005 180.58646L28.07188 180.58646Q28.462505 180.58646 28.650005 180.4302Q28.837505 180.27396 28.837505 179.89896Q28.837505 179.71146 28.775005 179.38333L29.650005 179.38333Q29.775005 179.8052 29.775005 180.21146Q29.775005 180.9302 29.337505 181.3052Q28.88438 181.6802 28.07188 181.6802L24.150005 181.6802L24.150005 182.83646L23.306255 182.83646L23.306255 181.6802L21.775005 181.6802L21.775005 180.58646ZM29.650005 176.88333L29.650005 177.96146L23.306255 177.96146L23.306255 176.88333L29.650005 176.88333ZM21.63438 178.0552Q21.368755 178.0552 21.181255 177.89896Q20.993755 177.72708 20.993755 177.41458Q20.993755 177.10208 21.181255 176.94583Q21.368755 176.77396 21.63438 176.77396Q21.88438 176.77396 22.07188 176.94583Q22.243755 177.10208 22.243755 177.41458Q22.243755 177.72708 22.07188 177.89896Q21.88438 178.0552 21.63438 178.0552ZM26.41563 175.35208Q25.493755 175.35208 24.743755 174.9927Q23.993755 174.6177 23.60313 173.96146Q23.19688 173.3052 23.19688 172.47708Q23.19688 171.1802 24.087505 170.38333Q24.97813 169.57083 26.47813 169.57083L26.556255 169.57083Q27.47813 169.57083 28.212505 169.9302Q28.94688 170.28958 29.368755 170.94583Q29.775005 171.60208 29.775005 172.46146Q29.775005 173.7427 28.88438 174.5552Q27.97813 175.35208 26.493755 175.35208L26.41563 175.35208ZM26.556255 174.25833Q27.60313 174.25833 28.243755 173.77396Q28.88438 173.27396 28.88438 172.46146Q28.88438 171.63333 28.243755 171.14896Q27.587505 170.66458 26.41563 170.66458Q25.38438 170.66458 24.743755 171.16458Q24.087505 171.64896 24.087505 172.47708Q24.087505 173.27396 24.72813 173.77396Q25.35313 174.25833 26.556255 174.25833ZM23.306255 167.03958L24.10313 167.00833Q23.19688 166.27396 23.19688 165.10208Q23.19688 163.08646 25.462505 163.07083L29.650005 163.07083L29.650005 164.16458L25.44688 164.16458Q24.775005 164.16458 24.44688 164.47708Q24.118755 164.77396 24.118755 165.4302Q24.118755 165.96146 24.400005 166.3677Q24.681255 166.75833 25.13438 166.97708L29.650005 166.97708L29.650005 168.0552L23.306255 168.0552L23.306255 167.03958ZM29.650005 151.33646L29.650005 152.46146L23.07188 156.75833L29.650005 156.75833L29.650005 157.89896L21.118755 157.89896L21.118755 156.75833L27.72813 152.46146L21.118755 152.46146L21.118755 151.33646L29.650005 151.33646ZM28.72813 147.75833L28.72813 143.71146L29.650005 143.71146L29.650005 148.89896L21.118755 148.89896L21.118755 147.75833L28.72813 147.75833ZM28.72813 141.75833L28.72813 137.71146L29.650005 137.71146L29.650005 142.89896L21.118755 142.89896L21.118755 141.75833L28.72813 141.75833Z" fill-rule="nonzero"/><path fill="#757575" d="M56.7125 282.20938Q56.7125 284.11563 56.05625 285.05313Q55.415627 285.975 54.025 285.975Q52.665627 285.975 52.009377 285.06876Q51.353127 284.1625 51.321877 282.35L51.321877 280.9125Q51.321877 279.02188 51.9625 278.11563Q52.61875 277.19376 54.009377 277.19376Q55.384377 277.19376 56.040627 278.08438Q56.696877 278.95938 56.7125 280.80313L56.7125 282.20938ZM55.61875 280.725Q55.61875 279.35 55.228127 278.725Q54.853127 278.08438 54.009377 278.08438Q53.18125 278.08438 52.790627 278.725Q52.415627 279.35 52.415627 280.64688L52.415627 282.38126Q52.415627 283.75626 52.80625 284.42813Q53.2125 285.08438 54.025 285.08438Q54.821877 285.08438 55.2125 284.45938Q55.603127 283.83438 55.61875 282.50626L55.61875 280.725ZM58.49375 285.2875Q58.49375 285.00626 58.65 284.81876Q58.821877 284.63126 59.15 284.63126Q59.49375 284.63126 59.665627 284.81876Q59.8375 285.00626 59.8375 285.2875Q59.8375 285.55313 59.665627 285.74063Q59.49375 285.9125 59.15 285.9125Q58.821877 285.9125 58.65 285.74063Q58.49375 285.55313 58.49375 285.2875ZM66.7125 282.20938Q66.7125 284.11563 66.05625 285.05313Q65.41563 285.975 64.025 285.975Q62.665627 285.975 62.009377 285.06876Q61.353127 284.1625 61.321877 282.35L61.321877 280.9125Q61.321877 279.02188 61.9625 278.11563Q62.61875 277.19376 64.00938 277.19376Q65.38438 277.19376 66.04063 278.08438Q66.69688 278.95938 66.7125 280.80313L66.7125 282.20938ZM65.61875 280.725Q65.61875 279.35 65.22813 278.725Q64.85313 278.08438 64.00938 278.08438Q63.18125 278.08438 62.790627 278.725Q62.415627 279.35 62.415627 280.64688L62.415627 282.38126Q62.415627 283.75626 62.80625 284.42813Q63.2125 285.08438 64.025 285.08438Q64.82188 285.08438 65.2125 284.45938Q65.60313 283.83438 65.61875 282.50626L65.61875 280.725ZM69.93125 281.05313L70.74375 281.05313Q71.525 281.0375 71.9625 280.64688Q72.4 280.25626 72.4 279.58438Q72.4 278.08438 70.9 278.08438Q70.19688 278.08438 69.775 278.49063Q69.36875 278.89688 69.36875 279.55313L68.275 279.55313Q68.275 278.5375 69.00938 277.86563Q69.75938 277.19376 70.9 277.19376Q72.10313 277.19376 72.79063 277.83438Q73.47813 278.475 73.47813 279.61563Q73.47813 280.17813 73.11875 280.69376Q72.75938 281.20938 72.13438 281.475Q72.8375 281.69376 73.2125 282.20938Q73.60313 282.725 73.60313 283.475Q73.60313 284.61563 72.85313 285.30313Q72.10313 285.975 70.9 285.975Q69.7125 285.975 68.94688 285.31876Q68.19688 284.6625 68.19688 283.6L69.29063 283.6Q69.29063 284.27188 69.72813 284.67813Q70.16563 285.08438 70.91563 285.08438Q71.69688 285.08438 72.10313 284.67813Q72.525 284.25626 72.525 283.49063Q72.525 282.75626 72.07188 282.36563Q71.61875 281.95938 70.74375 281.94376L69.93125 281.94376L69.93125 281.05313ZM80.7125 282.20938Q80.7125 284.11563 80.05625 285.05313Q79.41563 285.975 78.025 285.975Q76.66563 285.975 76.00938 285.06876Q75.35313 284.1625 75.32188 282.35L75.32188 280.9125Q75.32188 279.02188 75.9625 278.11563Q76.61875 277.19376 78.00938 277.19376Q79.38438 277.19376 80.04063 278.08438Q80.69688 278.95938 80.7125 280.80313L80.7125 282.20938ZM79.61875 280.725Q79.61875 279.35 79.22813 278.725Q78.85313 278.08438 78.00938 278.08438Q77.18125 278.08438 76.79063 278.725Q76.41563 279.35 76.41563 280.64688L76.41563 282.38126Q76.41563 283.75626 76.80625 284.42813Q77.2125 285.08438 78.025 285.08438Q78.82188 285.08438 79.2125 284.45938Q79.60313 283.83438 79.61875 282.50626L79.61875 280.725Z" fill-rule="nonzero"/><path fill="#757575" d="M56.7125 208.7316Q56.7125 210.63785 56.05625 211.57535Q55.415627 212.49722 54.025 212.49722Q52.665627 212.49722 52.009377 211.59097Q51.353127 210.68472 51.321877 208.87222L51.321877 207.43472Q51.321877 205.5441 51.9625 204.63785Q52.61875 203.71597 54.009377 203.71597Q55.384377 203.71597 56.040627 204.6066Q56.696877 205.4816 56.7125 207.32535L56.7125 208.7316ZM55.61875 207.24722Q55.61875 205.87222 55.228127 205.24722Q54.853127 204.6066 54.009377 204.6066Q53.18125 204.6066 52.790627 205.24722Q52.415627 205.87222 52.415627 207.1691L52.415627 208.90347Q52.415627 210.27847 52.80625 210.95035Q53.2125 211.6066 54.025 211.6066Q54.821877 211.6066 55.2125 210.9816Q55.603127 210.3566 55.61875 209.02847L55.61875 207.24722ZM58.49375 211.80972Q58.49375 211.52847 58.65 211.34097Q58.821877 211.15347 59.15 211.15347Q59.49375 211.15347 59.665627 211.34097Q59.8375 211.52847 59.8375 211.80972Q59.8375 212.07535 59.665627 212.26285Q59.49375 212.43472 59.15 212.43472Q58.821877 212.43472 58.65 212.26285Q58.49375 212.07535 58.49375 211.80972ZM66.7125 208.7316Q66.7125 210.63785 66.05625 211.57535Q65.41563 212.49722 64.025 212.49722Q62.665627 212.49722 62.009377 211.59097Q61.353127 210.68472 61.321877 208.87222L61.321877 207.43472Q61.321877 205.5441 61.9625 204.63785Q62.61875 203.71597 64.00938 203.71597Q65.38438 203.71597 66.04063 204.6066Q66.69688 205.4816 66.7125 207.32535L66.7125 208.7316ZM65.61875 207.24722Q65.61875 205.87222 65.22813 205.24722Q64.85313 204.6066 64.00938 204.6066Q63.18125 204.6066 62.790627 205.24722Q62.415627 205.87222 62.415627 207.1691L62.415627 208.90347Q62.415627 210.27847 62.80625 210.95035Q63.2125 211.6066 64.025 211.6066Q64.82188 211.6066 65.2125 210.9816Q65.60313 210.3566 65.61875 209.02847L65.61875 207.24722ZM73.86875 204.45035L70.3375 212.37222L69.19688 212.37222L72.7125 204.7316L68.10313 204.7316L68.10313 203.84097L73.86875 203.84097L73.86875 204.45035ZM80.7125 208.7316Q80.7125 210.63785 80.05625 211.57535Q79.41563 212.49722 78.025 212.49722Q76.66563 212.49722 76.00938 211.59097Q75.35313 210.68472 75.32188 208.87222L75.32188 207.43472Q75.32188 205.5441 75.9625 204.63785Q76.61875 203.71597 78.00938 203.71597Q79.38438 203.71597 80.04063 204.6066Q80.69688 205.4816 80.7125 207.32535L80.7125 208.7316ZM79.61875 207.24722Q79.61875 205.87222 79.22813 205.24722Q78.85313 204.6066 78.00938 204.6066Q77.18125 204.6066 76.79063 205.24722Q76.41563 205.87222 76.41563 207.1691L76.41563 208.90347Q76.41563 210.27847 76.80625 210.95035Q77.2125 211.6066 78.025 211.6066Q78.82188 211.6066 79.2125 210.9816Q79.60313 210.3566 79.61875 209.02847L79.61875 207.24722Z" fill-rule="nonzero"/><path fill="#757575" d="M56.7125 135.25381Q56.7125 137.16006 56.05625 138.09756Q55.415627 139.01944 54.025 139.01944Q52.665627 139.01944 52.009377 138.11319Q51.353127 137.20694 51.321877 135.39444L51.321877 133.95694Q51.321877 132.06631 51.9625 131.16006Q52.61875 130.23819 54.009377 130.23819Q55.384377 130.23819 56.040627 131.12881Q56.696877 132.00381 56.7125 133.84756L56.7125 135.25381ZM55.61875 133.76944Q55.61875 132.39444 55.228127 131.76944Q54.853127 131.12881 54.009377 131.12881Q53.18125 131.12881 52.790627 131.76944Q52.415627 132.39444 52.415627 133.69131L52.415627 135.42569Q52.415627 136.80069 52.80625 137.47256Q53.2125 138.12881 54.025 138.12881Q54.821877 138.12881 55.2125 137.50381Q55.603127 136.87881 55.61875 135.55069L55.61875 133.76944ZM58.49375 138.33194Q58.49375 138.05069 58.65 137.86319Q58.821877 137.67569 59.15 137.67569Q59.49375 137.67569 59.665627 137.86319Q59.8375 138.05069 59.8375 138.33194Q59.8375 138.59756 59.665627 138.78506Q59.49375 138.95694 59.15 138.95694Q58.821877 138.95694 58.65 138.78506Q58.49375 138.59756 58.49375 138.33194ZM64.91563 138.89444L63.8375 138.89444L63.8375 131.67569L61.65 132.47256L61.65 131.48819L64.75938 130.31631L64.91563 130.31631L64.91563 138.89444ZM71.91563 138.89444L70.8375 138.89444L70.8375 131.67569L68.65 132.47256L68.65 131.48819L71.75938 130.31631L71.91563 130.31631L71.91563 138.89444ZM80.7125 135.25381Q80.7125 137.16006 80.05625 138.09756Q79.41563 139.01944 78.025 139.01944Q76.66563 139.01944 76.00938 138.11319Q75.35313 137.20694 75.32188 135.39444L75.32188 133.95694Q75.32188 132.06631 75.9625 131.16006Q76.61875 130.23819 78.00938 130.23819Q79.38438 130.23819 80.04063 131.12881Q80.69688 132.00381 80.7125 133.84756L80.7125 135.25381ZM79.61875 133.76944Q79.61875 132.39444 79.22813 131.76944Q78.85313 131.12881 78.00938 131.12881Q77.18125 131.12881 76.79063 131.76944Q76.41563 132.39444 76.41563 133.69131L76.41563 135.42569Q76.41563 136.80069 76.80625 137.47256Q77.2125 138.12881 78.025 138.12881Q78.82188 138.12881 79.2125 137.50381Q79.60313 136.87881 79.61875 135.55069L79.61875 133.76944Z" fill-rule="nonzero"/><path fill="#757575" d="M56.7125 61.77604Q56.7125 63.68229 56.05625 64.61979Q55.415627 65.541664 54.025 65.541664Q52.665627 65.541664 52.009377 64.635414Q51.353127 63.729164 51.321877 61.916664L51.321877 60.479164Q51.321877 58.58854 51.9625 57.68229Q52.61875 56.760414 54.009377 56.760414Q55.384377 56.760414 56.040627 57.65104Q56.696877 58.52604 56.7125 60.36979L56.7125 61.77604ZM55.61875 60.291664Q55.61875 58.916664 55.228127 58.291664Q54.853127 57.65104 54.009377 57.65104Q53.18125 57.65104 52.790627 58.291664Q52.415627 58.916664 52.415627 60.21354L52.415627 61.947914Q52.415627 63.322914 52.80625 63.99479Q53.2125 64.65104 54.025 64.65104Q54.821877 64.65104 55.2125 64.02604Q55.603127 63.40104 55.61875 62.072914L55.61875 60.291664ZM58.49375 64.854164Q58.49375 64.572914 58.65 64.385414Q58.821877 64.197914 59.15 64.197914Q59.49375 64.197914 59.665627 64.385414Q59.8375 64.572914 59.8375 64.854164Q59.8375 65.11979 59.665627 65.30729Q59.49375 65.479164 59.15 65.479164Q58.821877 65.479164 58.65 65.30729Q58.49375 65.11979 58.49375 64.854164ZM64.91563 65.416664L63.8375 65.416664L63.8375 58.197914L61.65 58.99479L61.65 58.010414L64.75938 56.83854L64.91563 56.83854L64.91563 65.416664ZM68.85313 61.135414L69.29063 56.885414L73.66563 56.885414L73.66563 57.885414L70.2125 57.885414L69.94688 60.21354Q70.5875 59.83854 71.38438 59.83854Q72.54063 59.83854 73.22813 60.61979Q73.91563 61.385414 73.91563 62.697914Q73.91563 64.010414 73.19688 64.77604Q72.49375 65.541664 71.2125 65.541664Q70.0875 65.541664 69.36875 64.916664Q68.65 64.27604 68.55625 63.166664L69.57188 63.166664Q69.68125 63.90104 70.10313 64.27604Q70.525 64.65104 71.2125 64.65104Q71.9625 64.65104 72.4 64.135414Q72.8375 63.61979 72.8375 62.71354Q72.8375 61.854164 72.36875 61.33854Q71.9 60.822914 71.11875 60.822914Q70.41563 60.822914 70.00938 61.11979L69.72813 61.354164L68.85313 61.135414ZM80.7125 61.77604Q80.7125 63.68229 80.05625 64.61979Q79.41563 65.541664 78.025 65.541664Q76.66563 65.541664 76.00938 64.635414Q75.35313 63.729164 75.32188 61.916664L75.32188 60.479164Q75.32188 58.58854 75.9625 57.68229Q76.61875 56.760414 78.00938 56.760414Q79.38438 56.760414 80.04063 57.65104Q80.69688 58.52604 80.7125 60.36979L80.7125 61.77604ZM79.61875 60.291664Q79.61875 58.916664 79.22813 58.291664Q78.85313 57.65104 78.00938 57.65104Q77.18125 57.65104 76.79063 58.291664Q76.41563 58.916664 76.41563 60.21354L76.41563 61.947914Q76.41563 63.322914 76.80625 63.99479Q77.2125 64.65104 78.025 64.65104Q78.82188 64.65104 79.2125 64.02604Q79.60313 63.40104 79.61875 62.072914L79.61875 60.291664Z" fill-rule="nonzero"/><path fill="#757575" d="M94.79407 299.35L93.66907 299.35L89.37219 292.77188L89.37219 299.35L88.23157 299.35L88.23157 290.81876L89.37219 290.81876L93.66907 297.42813L93.66907 290.81876L94.79407 290.81876L94.79407 299.35ZM96.77844 296.11563Q96.77844 295.19376 97.13782 294.44376Q97.51282 293.69376 98.16907 293.30313Q98.82532 292.89688 99.65344 292.89688Q100.95032 292.89688 101.74719 293.7875Q102.55969 294.67813 102.55969 296.17813L102.55969 296.25626Q102.55969 297.17813 102.20032 297.9125Q101.84094 298.64688 101.18469 299.06876Q100.52844 299.475 99.66907 299.475Q98.38782 299.475 97.57532 298.58438Q96.77844 297.67813 96.77844 296.19376L96.77844 296.11563ZM97.87219 296.25626Q97.87219 297.30313 98.35657 297.94376Q98.85657 298.58438 99.66907 298.58438Q100.49719 298.58438 100.98157 297.94376Q101.46594 297.2875 101.46594 296.11563Q101.46594 295.08438 100.96594 294.44376Q100.48157 293.7875 99.65344 293.7875Q98.85657 293.7875 98.35657 294.42813Q97.87219 295.05313 97.87219 296.25626ZM106.32532 296.1625L103.46594 296.1625L103.46594 295.2875L106.32532 295.2875L106.32532 296.1625ZM113.51282 296.64688Q113.35657 297.99063 112.51282 298.74063Q111.66907 299.475 110.27844 299.475Q108.76282 299.475 107.85657 298.39688Q106.95032 297.30313 106.95032 295.475L106.95032 294.6625Q106.95032 293.475 107.37219 292.56876Q107.79407 291.6625 108.57532 291.17813Q109.35657 290.69376 110.37219 290.69376Q111.73157 290.69376 112.54407 291.45938Q113.37219 292.225 113.51282 293.55313L112.38782 293.55313Q112.23157 292.5375 111.74719 292.08438Q111.26282 291.63126 110.37219 291.63126Q109.29407 291.63126 108.68469 292.42813Q108.07532 293.225 108.07532 294.69376L108.07532 295.52188Q108.07532 296.9125 108.65344 297.74063Q109.23157 298.55313 110.27844 298.55313Q111.21594 298.55313 111.71594 298.13126Q112.21594 297.69376 112.38782 296.64688L113.51282 296.64688ZM114.77844 296.11563Q114.77844 295.19376 115.13782 294.44376Q115.51282 293.69376 116.16907 293.30313Q116.82532 292.89688 117.65344 292.89688Q118.95032 292.89688 119.74719 293.7875Q120.55969 294.67813 120.55969 296.17813L120.55969 296.25626Q120.55969 297.17813 120.20032 297.9125Q119.84094 298.64688 119.18469 299.06876Q118.52844 299.475 117.66907 299.475Q116.38782 299.475 115.57532 298.58438Q114.77844 297.67813 114.77844 296.19376L114.77844 296.11563ZM115.87219 296.25626Q115.87219 297.30313 116.35657 297.94376Q116.85657 298.58438 117.66907 298.58438Q118.49719 298.58438 118.98157 297.94376Q119.46594 297.2875 119.46594 296.11563Q119.46594 295.08438 118.96594 294.44376Q118.48157 293.7875 117.65344 293.7875Q116.85657 293.7875 116.35657 294.42813Q115.87219 295.05313 115.87219 296.25626ZM123.09094 293.00626L123.12219 293.80313Q123.85657 292.89688 125.02844 292.89688Q127.04407 292.89688 127.05969 295.1625L127.05969 299.35L125.96594 299.35L125.96594 295.14688Q125.96594 294.475 125.65344 294.14688Q125.35657 293.81876 124.70032 293.81876Q124.16907 293.81876 123.76282 294.1Q123.37219 294.38126 123.15344 294.83438L123.15344 299.35L122.07532 299.35L122.07532 293.00626L123.09094 293.00626ZM128.8097 296.13126Q128.8097 294.6625 129.4972 293.7875Q130.1847 292.89688 131.3097 292.89688Q132.41907 292.89688 133.07532 293.64688L133.07532 290.35L134.15344 290.35L134.15344 299.35L133.15344 299.35L133.10657 298.6625Q132.45032 299.475 131.29407 299.475Q130.20032 299.475 129.4972 298.56876Q128.8097 297.6625 128.8097 296.20938L128.8097 296.13126ZM129.88782 296.25626Q129.88782 297.33438 130.32532 297.94376Q130.77844 298.55313 131.5597 298.55313Q132.59094 298.55313 133.07532 297.61563L133.07532 294.70938Q132.59094 293.81876 131.57532 293.81876Q130.77844 293.81876 130.32532 294.42813Q129.88782 295.0375 129.88782 296.25626Z" fill-rule="nonzero"/><path fill="#757575" d="M146.90912 299.35L145.78412 299.35L145.78412 290.81876L146.90912 290.81876L146.90912 299.35Z" fill-rule="nonzero"/><path fill="#757575" d="M184.43042 296.64688Q184.27417 297.99063 183.43042 298.74063Q182.58667 299.475 181.19604 299.475Q179.68042 299.475 178.77417 298.39688Q177.86792 297.30313 177.86792 295.475L177.86792 294.6625Q177.86792 293.475 178.2898 292.56876Q178.71167 291.6625 179.49292 291.17813Q180.27417 290.69376 181.2898 290.69376Q182.64917 290.69376 183.46167 291.45938Q184.2898 292.225 184.43042 293.55313L183.30542 293.55313Q183.14917 292.5375 182.6648 292.08438Q182.18042 291.63126 181.2898 291.63126Q180.21167 291.63126 179.6023 292.42813Q178.99292 293.225 178.99292 294.69376L178.99292 295.52188Q178.99292 296.9125 179.57104 297.74063Q180.14917 298.55313 181.19604 298.55313Q182.13354 298.55313 182.63354 298.13126Q183.13354 297.69376 183.30542 296.64688L184.43042 296.64688Z" fill-rule="nonzero"/><path fill="#757575" d="M219.17047 299.35L218.04547 299.35L213.7486 292.77188L213.7486 299.35L212.60797 299.35L212.60797 290.81876L213.7486 290.81876L218.04547 297.42813L218.04547 290.81876L219.17047 290.81876L219.17047 299.35Z" fill-rule="nonzero"/><path fill="#757575" d="M248.56677 299.35L248.56677 290.81876L251.36365 290.81876Q252.75427 290.81876 253.44177 291.39688Q254.1449 291.95938 254.1449 293.08438Q254.1449 293.69376 253.80115 294.1625Q253.47302 294.61563 252.87927 294.86563Q253.5824 295.05313 253.97302 295.6Q254.37927 296.13126 254.37927 296.88126Q254.37927 298.0375 253.62927 298.69376Q252.8949 299.35 251.53552 299.35L248.56677 299.35ZM249.69177 295.36563L249.69177 298.42813L251.55115 298.42813Q252.34802 298.42813 252.80115 298.02188Q253.25427 297.61563 253.25427 296.89688Q253.25427 295.36563 251.56677 295.36563L249.69177 295.36563ZM249.69177 294.45938L251.3949 294.45938Q252.12927 294.45938 252.56677 294.1Q253.0199 293.725 253.0199 293.08438Q253.0199 292.38126 252.61365 292.06876Q252.2074 291.74063 251.36365 291.74063L249.69177 291.74063L249.69177 294.45938Z" fill-rule="nonzero"/><path fill="#757575" d="M287.80682 296.64688Q287.65057 297.99063 286.80682 298.74063Q285.96307 299.475 284.57245 299.475Q283.05682 299.475 282.15057 298.39688Q281.24432 297.30313 281.24432 295.475L281.24432 294.6625Q281.24432 293.475 281.6662 292.56876Q282.08807 291.6625 282.86932 291.17813Q283.65057 290.69376 284.6662 290.69376Q286.02557 290.69376 286.83807 291.45938Q287.6662 292.225 287.80682 293.55313L286.68182 293.55313Q286.52557 292.5375 286.0412 292.08438Q285.55682 291.63126 284.6662 291.63126Q283.58807 291.63126 282.9787 292.42813Q282.36932 293.225 282.36932 294.69376L282.36932 295.52188Q282.36932 296.9125 282.94745 297.74063Q283.52557 298.55313 284.57245 298.55313Q285.50995 298.55313 286.00995 298.13126Q286.50995 297.69376 286.68182 296.64688L287.80682 296.64688ZM290.74432 299.35L289.61932 299.35L289.61932 290.81876L290.74432 290.81876L290.74432 299.35Z" fill-rule="nonzero"/><path fill="#757575" d="M319.76562 296.64688Q319.60938 297.99063 318.76562 298.74063Q317.92188 299.475 316.53125 299.475Q315.01562 299.475 314.10938 298.39688Q313.20312 297.30313 313.20312 295.475L313.20312 294.6625Q313.20312 293.475 313.625 292.56876Q314.04688 291.6625 314.82812 291.17813Q315.60938 290.69376 316.625 290.69376Q317.98438 290.69376 318.79688 291.45938Q319.625 292.225 319.76562 293.55313L318.64062 293.55313Q318.48438 292.5375 318.0 292.08438Q317.51562 291.63126 316.625 291.63126Q315.54688 291.63126 314.9375 292.42813Q314.32812 293.225 314.32812 294.69376L314.32812 295.52188Q314.32812 296.9125 314.90625 297.74063Q315.48438 298.55313 316.53125 298.55313Q317.46875 298.55313 317.96875 298.13126Q318.46875 297.69376 318.64062 296.64688L319.76562 296.64688ZM328.04688 299.35L326.92188 299.35L322.625 292.77188L322.625 299.35L321.48438 299.35L321.48438 290.81876L322.625 290.81876L326.92188 297.42813L326.92188 290.81876L328.04688 290.81876L328.04688 299.35Z" fill-rule="nonzero"/><path fill="#757575" d="M355.72443 296.64688Q355.56818 297.99063 354.72443 298.74063Q353.88068 299.475 352.49005 299.475Q350.97443 299.475 350.06818 298.39688Q349.16193 297.30313 349.16193 295.475L349.16193 294.6625Q349.16193 293.475 349.5838 292.56876Q350.00568 291.6625 350.78693 291.17813Q351.56818 290.69376 352.5838 290.69376Q353.94318 290.69376 354.75568 291.45938Q355.5838 292.225 355.72443 293.55313L354.59943 293.55313Q354.44318 292.5375 353.9588 292.08438Q353.47443 291.63126 352.5838 291.63126Q351.50568 291.63126 350.8963 292.42813Q350.28693 293.225 350.28693 294.69376L350.28693 295.52188Q350.28693 296.9125 350.86505 297.74063Q351.44318 298.55313 352.49005 298.55313Q353.42755 298.55313 353.92755 298.13126Q354.42755 297.69376 354.59943 296.64688L355.72443 296.64688ZM357.44318 299.35L357.44318 290.81876L360.24005 290.81876Q361.63068 290.81876 362.31818 291.39688Q363.0213 291.95938 363.0213 293.08438Q363.0213 293.69376 362.67755 294.1625Q362.34943 294.61563 361.75568 294.86563Q362.4588 295.05313 362.84943 295.6Q363.25568 296.13126 363.25568 296.88126Q363.25568 298.0375 362.50568 298.69376Q361.7713 299.35 360.41193 299.35L357.44318 299.35ZM358.56818 295.36563L358.56818 298.42813L360.42755 298.42813Q361.22443 298.42813 361.67755 298.02188Q362.13068 297.61563 362.13068 296.89688Q362.13068 295.36563 360.44318 295.36563L358.56818 295.36563ZM358.56818 294.45938L360.2713 294.45938Q361.00568 294.45938 361.44318 294.1Q361.8963 293.725 361.8963 293.08438Q361.8963 292.38126 361.49005 292.06876Q361.0838 291.74063 360.24005 291.74063L358.56818 291.74063L358.56818 294.45938Z" fill-rule="nonzero"/><path fill="#757575" d="M388.12073 299.35L386.99573 299.35L386.99573 290.81876L388.12073 290.81876L388.12073 299.35ZM389.90198 299.35L389.90198 290.81876L392.69885 290.81876Q394.08948 290.81876 394.77698 291.39688Q395.4801 291.95938 395.4801 293.08438Q395.4801 293.69376 395.13635 294.1625Q394.80823 294.61563 394.21448 294.86563Q394.9176 295.05313 395.30823 295.6Q395.71448 296.13126 395.71448 296.88126Q395.71448 298.0375 394.96448 298.69376Q394.2301 299.35 392.87073 299.35L389.90198 299.35ZM391.02698 295.36563L391.02698 298.42813L392.88635 298.42813Q393.68323 298.42813 394.13635 298.02188Q394.58948 297.61563 394.58948 296.89688Q394.58948 295.36563 392.90198 295.36563L391.02698 295.36563ZM391.02698 294.45938L392.7301 294.45938Q393.46448 294.45938 393.90198 294.1Q394.3551 293.725 394.3551 293.08438Q394.3551 292.38126 393.94885 292.06876Q393.5426 291.74063 392.69885 291.74063L391.02698 291.74063L391.02698 294.45938Z" fill-rule="nonzero"/><path fill="#757575" d="M423.14203 296.64688Q422.98578 297.99063 422.14203 298.74063Q421.29828 299.475 419.90765 299.475Q418.39203 299.475 417.48578 298.39688Q416.57953 297.30313 416.57953 295.475L416.57953 294.6625Q416.57953 293.475 417.0014 292.56876Q417.42328 291.6625 418.20453 291.17813Q418.98578 290.69376 420.0014 290.69376Q421.36078 290.69376 422.17328 291.45938Q423.0014 292.225 423.14203 293.55313L422.01703 293.55313Q421.86078 292.5375 421.3764 292.08438Q420.89203 291.63126 420.0014 291.63126Q418.92328 291.63126 418.3139 292.42813Q417.70453 293.225 417.70453 294.69376L417.70453 295.52188Q417.70453 296.9125 418.28265 297.74063Q418.86078 298.55313 419.90765 298.55313Q420.84515 298.55313 421.34515 298.13126Q421.84515 297.69376 422.01703 296.64688L423.14203 296.64688ZM431.42328 299.35L430.29828 299.35L426.0014 292.77188L426.0014 299.35L424.86078 299.35L424.86078 290.81876L426.0014 290.81876L430.29828 297.42813L430.29828 290.81876L431.42328 290.81876L431.42328 299.35ZM435.07953 299.35L433.95453 299.35L433.95453 290.81876L435.07953 290.81876L435.07953 299.35Z" fill-rule="nonzero"/><path fill="#757575" d="M456.10083 296.64688Q455.94458 297.99063 455.10083 298.74063Q454.25708 299.475 452.86646 299.475Q451.35083 299.475 450.44458 298.39688Q449.53833 297.30313 449.53833 295.475L449.53833 294.6625Q449.53833 293.475 449.9602 292.56876Q450.38208 291.6625 451.16333 291.17813Q451.94458 290.69376 452.9602 290.69376Q454.31958 290.69376 455.13208 291.45938Q455.9602 292.225 456.10083 293.55313L454.97583 293.55313Q454.81958 292.5375 454.3352 292.08438Q453.85083 291.63126 452.9602 291.63126Q451.88208 291.63126 451.2727 292.42813Q450.66333 293.225 450.66333 294.69376L450.66333 295.52188Q450.66333 296.9125 451.24146 297.74063Q451.81958 298.55313 452.86646 298.55313Q453.80396 298.55313 454.30396 298.13126Q454.80396 297.69376 454.97583 296.64688L456.10083 296.64688ZM464.38208 299.35L463.25708 299.35L458.9602 292.77188L458.9602 299.35L457.81958 299.35L457.81958 290.81876L458.9602 290.81876L463.25708 297.42813L463.25708 290.81876L464.38208 290.81876L464.38208 299.35ZM466.81958 299.35L466.81958 290.81876L469.61646 290.81876Q471.00708 290.81876 471.69458 291.39688Q472.3977 291.95938 472.3977 293.08438Q472.3977 293.69376 472.05396 294.1625Q471.72583 294.61563 471.13208 294.86563Q471.8352 295.05313 472.22583 295.6Q472.63208 296.13126 472.63208 296.88126Q472.63208 298.0375 471.88208 298.69376Q471.1477 299.35 469.78833 299.35L466.81958 299.35ZM467.94458 295.36563L467.94458 298.42813L469.80396 298.42813Q470.60083 298.42813 471.05396 298.02188Q471.50708 297.61563 471.50708 296.89688Q471.50708 295.36563 469.81958 295.36563L467.94458 295.36563ZM467.94458 294.45938L469.6477 294.45938Q470.38208 294.45938 470.81958 294.1Q471.2727 293.725 471.2727 293.08438Q471.2727 292.38126 470.86646 292.06876Q470.4602 291.74063 469.61646 291.74063L467.94458 291.74063L467.94458 294.45938Z" fill-rule="nonzero"/><path fill="#757575" d="M494.05963 296.64688Q493.90338 297.99063 493.05963 298.74063Q492.21588 299.475 490.82526 299.475Q489.30963 299.475 488.40338 298.39688Q487.49713 297.30313 487.49713 295.475L487.49713 294.6625Q487.49713 293.475 487.919 292.56876Q488.34088 291.6625 489.12213 291.17813Q489.90338 290.69376 490.919 290.69376Q492.27838 290.69376 493.09088 291.45938Q493.919 292.225 494.05963 293.55313L492.93463 293.55313Q492.77838 292.5375 492.294 292.08438Q491.80963 291.63126 490.919 291.63126Q489.84088 291.63126 489.2315 292.42813Q488.62213 293.225 488.62213 294.69376L488.62213 295.52188Q488.62213 296.9125 489.20026 297.74063Q489.77838 298.55313 490.82526 298.55313Q491.76276 298.55313 492.26276 298.13126Q492.76276 297.69376 492.93463 296.64688L494.05963 296.64688ZM496.99713 299.35L495.87213 299.35L495.87213 290.81876L496.99713 290.81876L496.99713 299.35ZM498.77838 299.35L498.77838 290.81876L501.57526 290.81876Q502.96588 290.81876 503.65338 291.39688Q504.3565 291.95938 504.3565 293.08438Q504.3565 293.69376 504.01276 294.1625Q503.68463 294.61563 503.09088 294.86563Q503.794 295.05313 504.18463 295.6Q504.59088 296.13126 504.59088 296.88126Q504.59088 298.0375 503.84088 298.69376Q503.1065 299.35 501.74713 299.35L498.77838 299.35ZM499.90338 295.36563L499.90338 298.42813L501.76276 298.42813Q502.55963 298.42813 503.01276 298.02188Q503.46588 297.61563 503.46588 296.89688Q503.46588 295.36563 501.77838 295.36563L499.90338 295.36563ZM499.90338 294.45938L501.6065 294.45938Q502.34088 294.45938 502.77838 294.1Q503.2315 293.725 503.2315 293.08438Q503.2315 292.38126 502.82526 292.06876Q502.419 291.74063 501.57526 291.74063L499.90338 291.74063L499.90338 294.45938Z" fill-rule="nonzero"/><path fill="#757575" d="M524.51843 296.64688Q524.3622 297.99063 523.51843 298.74063Q522.6747 299.475 521.28406 299.475Q519.76843 299.475 518.8622 298.39688Q517.95593 297.30313 517.95593 295.475L517.95593 294.6625Q517.95593 293.475 518.3778 292.56876Q518.7997 291.6625 519.58093 291.17813Q520.3622 290.69376 521.3778 290.69376Q522.7372 290.69376 523.5497 291.45938Q524.3778 292.225 524.51843 293.55313L523.39343 293.55313Q523.2372 292.5375 522.7528 292.08438Q522.26843 291.63126 521.3778 291.63126Q520.2997 291.63126 519.6903 292.42813Q519.08093 293.225 519.08093 294.69376L519.08093 295.52188Q519.08093 296.9125 519.65906 297.74063Q520.2372 298.55313 521.28406 298.55313Q522.22156 298.55313 522.72156 298.13126Q523.22156 297.69376 523.39343 296.64688L524.51843 296.64688ZM532.7997 299.35L531.6747 299.35L527.3778 292.77188L527.3778 299.35L526.2372 299.35L526.2372 290.81876L527.3778 290.81876L531.6747 297.42813L531.6747 290.81876L532.7997 290.81876L532.7997 299.35ZM536.45593 299.35L535.33093 299.35L535.33093 290.81876L536.45593 290.81876L536.45593 299.35ZM538.2372 299.35L538.2372 290.81876L541.03406 290.81876Q542.4247 290.81876 543.1122 291.39688Q543.8153 291.95938 543.8153 293.08438Q543.8153 293.69376 543.47156 294.1625Q543.14343 294.61563 542.5497 294.86563Q543.2528 295.05313 543.64343 295.6Q544.0497 296.13126 544.0497 296.88126Q544.0497 298.0375 543.2997 298.69376Q542.5653 299.35 541.20593 299.35L538.2372 299.35ZM539.3622 295.36563L539.3622 298.42813L541.22156 298.42813Q542.01843 298.42813 542.47156 298.02188Q542.9247 297.61563 542.9247 296.89688Q542.9247 295.36563 541.2372 295.36563L539.3622 295.36563ZM539.3622 294.45938L541.0653 294.45938Q541.7997 294.45938 542.2372 294.1Q542.6903 293.725 542.6903 293.08438Q542.6903 292.38126 542.28406 292.06876Q541.8778 291.74063 541.03406 291.74063L539.3622 291.74063L539.3622 294.45938Z" fill-rule="nonzero"/><path fill="#757575" d="M25.259375 22.431252L27.15 22.431252L27.15 32.49375Q27.15 34.540627 25.915625 35.696877Q24.696875 36.853127 22.65 36.853127Q20.525 36.853127 19.3375 35.775Q18.165625 34.68125 18.165625 32.728127L20.040625 32.728127Q20.040625 33.946877 20.7125 34.634377Q21.384375 35.30625 22.65 35.30625Q23.80625 35.30625 24.525 34.5875Q25.24375 33.853127 25.259375 32.525L25.259375 22.431252ZM36.540627 36.65Q36.384377 36.3375 36.290627 35.540627Q35.025 36.853127 33.275 36.853127Q31.7125 36.853127 30.7125 35.9625Q29.7125 35.071877 29.7125 33.7125Q29.7125 32.071877 30.9625 31.165627Q32.228127 30.243752 34.49375 30.243752L36.259377 30.243752L36.259377 29.415627Q36.259377 28.462502 35.68125 27.900002Q35.11875 27.337502 34.025 27.337502Q33.05625 27.337502 32.4 27.837502Q31.74375 28.321877 31.74375 29.009377L29.93125 29.009377Q29.93125 28.228127 30.49375 27.493752Q31.05625 26.743752 32.009377 26.321877Q32.978127 25.884377 34.134377 25.884377Q35.9625 25.884377 36.99375 26.806252Q38.025 27.712502 38.071877 29.321877L38.071877 34.18125Q38.071877 35.634377 38.43125 36.49375L38.43125 36.65L36.540627 36.65ZM33.540627 35.275Q34.4 35.275 35.15 34.8375Q35.915627 34.4 36.259377 33.696877L36.259377 31.525002L34.8375 31.525002Q31.525 31.525002 31.525 33.4625Q31.525 34.321877 32.0875 34.80625Q32.65 35.275 33.540627 35.275ZM42.7125 35.18125L48.9 35.18125L48.9 36.65L40.509377 36.65L40.509377 35.321877L46.3375 27.571877L40.603127 27.571877L40.603127 26.087502L48.603127 26.087502L48.603127 27.368752L42.7125 35.18125ZM52.7125 35.18125L58.9 35.18125L58.9 36.65L50.509377 36.65L50.509377 35.321877L56.3375 27.571877L50.603127 27.571877L50.603127 26.087502L58.603127 26.087502L58.603127 27.368752L52.7125 35.18125ZM61.384377 37.86875L59.821877 37.86875L65.75938 22.431252L67.30625 22.431252L61.384377 37.86875ZM69.30625 36.65L69.30625 22.431252L73.32188 22.431252Q75.16563 22.431252 76.5875 23.259377Q78.025 24.071877 78.79063 25.587502Q79.57188 27.103127 79.5875 29.056252L79.5875 29.962502Q79.5875 31.978127 78.80625 33.49375Q78.025 35.009377 76.5875 35.821877Q75.15 36.634377 73.24375 36.65L69.30625 36.65ZM71.18125 23.978127L71.18125 35.11875L73.15 35.11875Q75.32188 35.11875 76.525 33.775Q77.72813 32.415627 77.72813 29.931252L77.72813 29.103127Q77.72813 26.681252 76.5875 25.337502Q75.44688 23.993752 73.36875 23.978127L71.18125 23.978127ZM88.54063 35.603127Q87.49375 36.853127 85.44688 36.853127Q83.75938 36.853127 82.86875 35.86875Q81.99375 34.884377 81.97813 32.9625L81.97813 26.087502L83.79063 26.087502L83.79063 32.915627Q83.79063 35.30625 85.74375 35.30625Q87.80625 35.30625 88.49375 33.775L88.49375 26.087502L90.30625 26.087502L90.30625 36.65L88.5875 36.65L88.54063 35.603127ZM98.11875 27.696877Q97.7125 27.634377 97.24375 27.634377Q95.4625 27.634377 94.82188 29.150002L94.82188 36.65L93.025 36.65L93.025 26.087502L94.775 26.087502L94.80625 27.306252Q95.69688 25.884377 97.32188 25.884377Q97.85313 25.884377 98.11875 26.025002L98.11875 27.696877ZM106.54063 36.65Q106.38438 36.3375 106.29063 35.540627Q105.025 36.853127 103.275 36.853127Q101.7125 36.853127 100.7125 35.9625Q99.7125 35.071877 99.7125 33.7125Q99.7125 32.071877 100.9625 31.165627Q102.22813 30.243752 104.49375 30.243752L106.25938 30.243752L106.25938 29.415627Q106.25938 28.462502 105.68125 27.900002Q105.11875 27.337502 104.025 27.337502Q103.05625 27.337502 102.4 27.837502Q101.74375 28.321877 101.74375 29.009377L99.93125 29.009377Q99.93125 28.228127 100.49375 27.493752Q101.05625 26.743752 102.00938 26.321877Q102.97813 25.884377 104.13438 25.884377Q105.9625 25.884377 106.99375 26.806252Q108.025 27.712502 108.07188 29.321877L108.07188 34.18125Q108.07188 35.634377 108.43125 36.49375L108.43125 36.65L106.54063 36.65ZM103.54063 35.275Q104.4 35.275 105.15 34.8375Q105.91563 34.4 106.25938 33.696877L106.25938 31.525002L104.8375 31.525002Q101.525 31.525002 101.525 33.4625Q101.525 34.321877 102.0875 34.80625Q102.65 35.275 103.54063 35.275ZM113.4625 23.525002L113.4625 26.087502L115.44688 26.087502L115.44688 27.478127L113.4625 27.478127L113.4625 34.025Q113.4625 34.665627 113.72813 34.99375Q113.99375 35.30625 114.63438 35.30625Q114.94688 35.30625 115.49375 35.18125L115.49375 36.65Q114.775 36.853127 114.10313 36.853127Q112.9 36.853127 112.275 36.11875Q111.66563 35.384377 111.66563 34.025L111.66563 27.478127L109.74375 27.478127L109.74375 26.087502L111.66563 26.087502L111.66563 23.525002L113.4625 23.525002ZM119.97813 36.65L118.18125 36.65L118.18125 26.087502L119.97813 26.087502L119.97813 36.65ZM118.025 23.275002Q118.025 22.837502 118.29063 22.540627Q118.57188 22.228127 119.0875 22.228127Q119.61875 22.228127 119.88438 22.540627Q120.16563 22.837502 120.16563 23.275002Q120.16563 23.712502 119.88438 24.009377Q119.61875 24.306252 119.0875 24.306252Q118.57188 24.306252 118.29063 24.009377Q118.025 23.712502 118.025 23.275002ZM122.54063 31.275002Q122.54063 29.712502 123.15 28.478127Q123.75938 27.228127 124.8375 26.556252Q125.93125 25.884377 127.3375 25.884377Q129.49374 25.884377 130.82187 27.384377Q132.16562 28.868752 132.16562 31.353127L132.16562 31.478127Q132.16562 33.025 131.57187 34.259377Q130.97812 35.478127 129.86874 36.165627Q128.775 36.853127 127.35313 36.853127Q125.2125 36.853127 123.86875 35.353127Q122.54063 33.853127 122.54063 31.400002L122.54063 31.275002ZM124.35313 31.478127Q124.35313 33.24375 125.16563 34.30625Q125.99375 35.36875 127.35313 35.36875Q128.72812 35.36875 129.54062 34.290627Q130.35312 33.2125 130.35312 31.275002Q130.35312 29.525002 129.525 28.446877Q128.69687 27.368752 127.3375 27.368752Q125.99375 27.368752 125.16563 28.431252Q124.35313 29.493752 124.35313 31.478127ZM135.72812 26.087502L135.79062 27.415627Q136.99374 25.884377 138.94687 25.884377Q142.30624 25.884377 142.32187 29.665627L142.32187 36.65L140.525 36.65L140.525 29.650002Q140.50937 28.509377 139.99374 27.962502Q139.49374 27.415627 138.4 27.415627Q137.525 27.415627 136.85312 27.884377Q136.19687 28.353127 135.82187 29.118752L135.82187 36.65L134.025 36.65L134.025 26.087502L135.72812 26.087502Z" fill-rule="nonzero"/></svg>